<svg height="135" viewBox="0 0 135 135" width="135" xmlns="http://www.w3.org/2000/svg" xmlns:xlink="http://www.w3.org/1999/xlink"><defs><linearGradient id="a" x1="50%" x2="50%" y1="0%" y2="100%"><stop offset="0" stop-color="#84f1ff"/><stop offset="1" stop-color="#4ddffe"/></linearGradient><path id="b" d="m32.0416359 24.7350579c-6.4568958 5.4508993-15.9383423 7.1163355-16.9324936 18.9361225-.9927815 11.8020879 4.8658211 23.9947707 14.3732159 29.6612175-.6345065.0402423 1.4120244 1.5638609 6.1395925 4.5708558 4.2345369 2.6931982 9.1485411 4.4495292 14.4803628 4.9510009 18.003142 1.6928112 33.9682737-11.5550886 35.7393505-29.6169203 1.7749907-18.1186652-11.5814721-34.3952575-29.6210142-36.0916086-9.1052915-.8562384-17.6894364 2.1105077-24.1790139 7.5893322z"/><filter id="c" height="172.7%" width="167.6%" x="-33.8%" y="-27.3%"><feOffset dx="0" dy="6" in="SourceAlpha" result="shadowOffsetOuter1"/><feGaussianBlur in="shadowOffsetOuter1" result="shadowBlurOuter1" stdDeviation="7"/><feColorMatrix in="shadowBlurOuter1" type="matrix" values="0 0 0 0 0.133333333   0 0 0 0 0.160784314   0 0 0 0 0.223529412  0 0 0 0.1 0"/></filter></defs><g fill="none" fill-rule="evenodd" transform="translate(12 14)"><path d="m16.4486692 98.2824427c1.2977642 0 2.3498099 1.0560612 2.3498099 2.3587783 0 1.302718-1.0520457 2.358779-2.3498099 2.358779s-2.3498099-1.056061-2.3498099-2.358779c0-1.3027171 1.0520457-2.3587783 2.3498099-2.3587783zm-14.09885931 0c1.29776416 0 2.34980988 1.0560612 2.34980988 2.3587783 0 1.302718-1.05204572 2.358779-2.34980988 2.358779-1.29776417 0-2.34980989-1.056061-2.34980989-2.358779 0-1.3027171 1.05204572-2.3587783 2.34980989-2.3587783zm42.29657791 0c1.2977642 0 2.3498099 1.0560612 2.3498099 2.3587783 0 1.302718-1.0520457 2.358779-2.3498099 2.358779-1.2977641 0-2.3498099-1.056061-2.3498099-2.358779 0-1.3027171 1.0520458-2.3587783 2.3498099-2.3587783zm-14.4904943 0c1.2977642 0 2.3498099 1.0560612 2.3498099 2.3587783 0 1.302718-1.0520457 2.358779-2.3498099 2.358779-1.2977641 0-2.3498098-1.056061-2.3498098-2.358779 0-1.3027171 1.0520457-2.3587783 2.3498098-2.3587783zm-13.7072243-14.1526717c1.2977642 0 2.3498099 1.0560612 2.3498099 2.3587786 0 1.3027175-1.0520457 2.3587786-2.3498099 2.3587786s-2.3498099-1.0560611-2.3498099-2.3587786c0-1.3027174 1.0520457-2.3587786 2.3498099-2.3587786zm-14.09885931 0c1.29776416 0 2.34980988 1.0560612 2.34980988 2.3587786 0 1.3027175-1.05204572 2.3587786-2.34980988 2.3587786-1.29776417 0-2.34980989-1.0560611-2.34980989-2.3587786 0-1.3027174 1.05204572-2.3587786 2.34980989-2.3587786zm42.29657791 0c1.2977642 0 2.3498099 1.0560612 2.3498099 2.3587786 0 1.3027175-1.0520457 2.3587786-2.3498099 2.3587786-1.2977641 0-2.3498099-1.0560611-2.3498099-2.3587786 0-1.3027174 1.0520458-2.3587786 2.3498099-2.3587786zm-13.7072243 0c1.2977642 0 2.3498099 1.0560612 2.3498099 2.3587786 0 1.3027175-1.0520457 2.3587786-2.3498099 2.3587786s-2.3498099-1.0560611-2.3498099-2.3587786c0-1.3027174 1.0520457-2.3587786 2.3498099-2.3587786zm27.8060836-13.759542c1.2977642 0 2.3498099 1.0560612 2.3498099 2.3587786 0 1.3027175-1.0520457 2.3587787-2.3498099 2.3587787-1.2977641 0-2.3498098-1.0560612-2.3498098-2.3587787 0-1.3027174 1.0520457-2.3587786 2.3498098-2.3587786zm41.9049429 0c1.297764 0 2.34981 1.0560612 2.34981 2.3587786 0 1.3027175-1.052046 2.3587787-2.34981 2.3587787-1.2977641 0-2.3498098-1.0560612-2.3498098-2.3587787 0-1.3027174 1.0520457-2.3587786 2.3498098-2.3587786zm-14.0988592 0c1.2977642 0 2.3498099 1.0560612 2.3498099 2.3587786 0 1.3027175-1.0520457 2.3587787-2.3498099 2.3587787s-2.3498099-1.0560612-2.3498099-2.3587787c0-1.3027174 1.0520457-2.3587786 2.3498099-2.3587786zm-70.1026616 0c1.2977642 0 2.3498099 1.0560612 2.3498099 2.3587786 0 1.3027175-1.0520457 2.3587787-2.3498099 2.3587787s-2.3498099-1.0560612-2.3498099-2.3587787c0-1.3027174 1.0520457-2.3587786 2.3498099-2.3587786zm-14.09885931 0c1.29776416 0 2.34980988 1.0560612 2.34980988 2.3587786 0 1.3027175-1.05204572 2.3587787-2.34980988 2.3587787-1.29776417 0-2.34980989-1.0560612-2.34980989-2.3587787 0-1.3027174 1.05204572-2.3587786 2.34980989-2.3587786zm42.29657791 0c1.2977642 0 2.3498099 1.0560612 2.3498099 2.3587786 0 1.3027175-1.0520457 2.3587787-2.3498099 2.3587787-1.2977641 0-2.3498099-1.0560612-2.3498099-2.3587787 0-1.3027174 1.0520458-2.3587786 2.3498099-2.3587786zm-14.4904943 0c1.2977642 0 2.3498099 1.0560612 2.3498099 2.3587786 0 1.3027175-1.0520457 2.3587787-2.3498099 2.3587787-1.2977641 0-2.3498098-1.0560612-2.3498098-2.3587787 0-1.3027174 1.0520457-2.3587786 2.3498098-2.3587786zm42.688213 0c1.2977641 0 2.3498098 1.0560612 2.3498098 2.3587786 0 1.3027175-1.0520457 2.3587787-2.3498098 2.3587787-1.2977642 0-2.3498099-1.0560612-2.3498099-2.3587787 0-1.3027174 1.0520457-2.3587786 2.3498099-2.3587786zm0-14.1526717c1.2977641 0 2.3498098 1.0560611 2.3498098 2.3587786 0 1.3027174-1.0520457 2.3587786-2.3498098 2.3587786-1.2977642 0-2.3498099-1.0560612-2.3498099-2.3587786 0-1.3027175 1.0520457-2.3587786 2.3498099-2.3587786zm-14.0988594 0c1.2977642 0 2.3498099 1.0560611 2.3498099 2.3587786 0 1.3027174-1.0520457 2.3587786-2.3498099 2.3587786-1.2977641 0-2.3498098-1.0560612-2.3498098-2.3587786 0-1.3027175 1.0520457-2.3587786 2.3498098-2.3587786zm41.9049429 0c1.297764 0 2.34981 1.0560611 2.34981 2.3587786 0 1.3027174-1.052046 2.3587786-2.34981 2.3587786-1.2977641 0-2.3498098-1.0560612-2.3498098-2.3587786 0-1.3027175 1.0520457-2.3587786 2.3498098-2.3587786zm-14.0988592 0c1.2977642 0 2.3498099 1.0560611 2.3498099 2.3587786 0 1.3027174-1.0520457 2.3587786-2.3498099 2.3587786s-2.3498099-1.0560612-2.3498099-2.3587786c0-1.3027175 1.0520457-2.3587786 2.3498099-2.3587786zm-70.1026616 0c1.2977642 0 2.3498099 1.0560611 2.3498099 2.3587786 0 1.3027174-1.0520457 2.3587786-2.3498099 2.3587786s-2.3498099-1.0560612-2.3498099-2.3587786c0-1.3027175 1.0520457-2.3587786 2.3498099-2.3587786zm-14.09885931 0c1.29776416 0 2.34980988 1.0560611 2.34980988 2.3587786 0 1.3027174-1.05204572 2.3587786-2.34980988 2.3587786-1.29776417 0-2.34980989-1.0560612-2.34980989-2.3587786 0-1.3027175 1.05204572-2.3587786 2.34980989-2.3587786zm42.29657791 0c1.2977642 0 2.3498099 1.0560611 2.3498099 2.3587786 0 1.3027174-1.0520457 2.3587786-2.3498099 2.3587786-1.2977641 0-2.3498099-1.0560612-2.3498099-2.3587786 0-1.3027175 1.0520458-2.3587786 2.3498099-2.3587786zm-13.7072243 0c1.2977642 0 2.3498099 1.0560611 2.3498099 2.3587786 0 1.3027174-1.0520457 2.3587786-2.3498099 2.3587786s-2.3498099-1.0560612-2.3498099-2.3587786c0-1.3027175 1.0520457-2.3587786 2.3498099-2.3587786zm-14.4904943-14.1526718c1.2977642 0 2.3498099 1.0560612 2.3498099 2.3587786 0 1.3027175-1.0520457 2.3587786-2.3498099 2.3587786s-2.3498099-1.0560611-2.3498099-2.3587786c0-1.3027174 1.0520457-2.3587786 2.3498099-2.3587786zm-14.09885931 0c1.29776416 0 2.34980988 1.0560612 2.34980988 2.3587786 0 1.3027175-1.05204572 2.3587786-2.34980988 2.3587786-1.29776417 0-2.34980989-1.0560611-2.34980989-2.3587786 0-1.3027174 1.05204572-2.3587786 2.34980989-2.3587786zm84.20152091 0c1.2977642 0 2.3498099 1.0560612 2.3498099 2.3587786 0 1.3027175-1.0520457 2.3587786-2.3498099 2.3587786s-2.3498099-1.0560611-2.3498099-2.3587786c0-1.3027174 1.0520457-2.3587786 2.3498099-2.3587786zm-41.904943 0c1.2977642 0 2.3498099 1.0560612 2.3498099 2.3587786 0 1.3027175-1.0520457 2.3587786-2.3498099 2.3587786-1.2977641 0-2.3498099-1.0560611-2.3498099-2.3587786 0-1.3027174 1.0520458-2.3587786 2.3498099-2.3587786zm56.0038022 0c1.297764 0 2.34981 1.0560612 2.34981 2.3587786 0 1.3027175-1.052046 2.3587786-2.34981 2.3587786-1.2977641 0-2.3498098-1.0560611-2.3498098-2.3587786 0-1.3027174 1.0520457-2.3587786 2.3498098-2.3587786zm-27.8060835 0c1.2977641 0 2.3498098 1.0560612 2.3498098 2.3587786 0 1.3027175-1.0520457 2.3587786-2.3498098 2.3587786-1.2977642 0-2.3498099-1.0560611-2.3498099-2.3587786 0-1.3027174 1.0520457-2.3587786 2.3498099-2.3587786zm-14.0988594 0c1.2977642 0 2.3498099 1.0560612 2.3498099 2.3587786 0 1.3027175-1.0520457 2.3587786-2.3498099 2.3587786-1.2977641 0-2.3498098-1.0560611-2.3498098-2.3587786 0-1.3027174 1.0520457-2.3587786 2.3498098-2.3587786zm-28.5893536 0c1.2977642 0 2.3498099 1.0560612 2.3498099 2.3587786 0 1.3027175-1.0520457 2.3587786-2.3498099 2.3587786-1.2977641 0-2.3498098-1.0560611-2.3498098-2.3587786 0-1.3027174 1.0520457-2.3587786 2.3498098-2.3587786zm42.688213-14.1526718c1.2977641 0 2.3498098 1.0560612 2.3498098 2.3587787 0 1.3027174-1.0520457 2.3587786-2.3498098 2.3587786-1.2977642 0-2.3498099-1.0560612-2.3498099-2.3587786 0-1.3027175 1.0520457-2.3587787 2.3498099-2.3587787zm-14.0988594 0c1.2977642 0 2.3498099 1.0560612 2.3498099 2.3587787 0 1.3027174-1.0520457 2.3587786-2.3498099 2.3587786-1.2977641 0-2.3498098-1.0560612-2.3498098-2.3587786 0-1.3027175 1.0520457-2.3587787 2.3498098-2.3587787zm41.9049429 0c1.297764 0 2.34981 1.0560612 2.34981 2.3587787 0 1.3027174-1.052046 2.3587786-2.34981 2.3587786-1.2977641 0-2.3498098-1.0560612-2.3498098-2.3587786 0-1.3027175 1.0520457-2.3587787 2.3498098-2.3587787zm-14.0988592 0c1.2977642 0 2.3498099 1.0560612 2.3498099 2.3587787 0 1.3027174-1.0520457 2.3587786-2.3498099 2.3587786s-2.3498099-1.0560612-2.3498099-2.3587786c0-1.3027175 1.0520457-2.3587787 2.3498099-2.3587787zm-41.904943 0c1.2977642 0 2.3498099 1.0560612 2.3498099 2.3587787 0 1.3027174-1.0520457 2.3587786-2.3498099 2.3587786-1.2977641 0-2.3498099-1.0560612-2.3498099-2.3587786 0-1.3027175 1.0520458-2.3587787 2.3498099-2.3587787zm-13.7072243 0c1.2977642 0 2.3498099 1.0560612 2.3498099 2.3587787 0 1.3027174-1.0520457 2.3587786-2.3498099 2.3587786s-2.3498099-1.0560612-2.3498099-2.3587786c0-1.3027175 1.0520457-2.3587787 2.3498099-2.3587787zm41.904943-13.7595419c1.2977641 0 2.3498098 1.0560611 2.3498098 2.3587786 0 1.3027174-1.0520457 2.3587786-2.3498098 2.3587786-1.2977642 0-2.3498099-1.0560612-2.3498099-2.3587786 0-1.3027175 1.0520457-2.3587786 2.3498099-2.3587786zm-14.0988594 0c1.2977642 0 2.3498099 1.0560611 2.3498099 2.3587786 0 1.3027174-1.0520457 2.3587786-2.3498099 2.3587786-1.2977641 0-2.3498098-1.0560612-2.3498098-2.3587786 0-1.3027175 1.0520457-2.3587786 2.3498098-2.3587786zm41.9049429 0c1.297764 0 2.34981 1.0560611 2.34981 2.3587786 0 1.3027174-1.052046 2.3587786-2.34981 2.3587786-1.2977641 0-2.3498098-1.0560612-2.3498098-2.3587786 0-1.3027175 1.0520457-2.3587786 2.3498098-2.3587786zm-14.0988592 0c1.2977642 0 2.3498099 1.0560611 2.3498099 2.3587786 0 1.3027174-1.0520457 2.3587786-2.3498099 2.3587786s-2.3498099-1.0560612-2.3498099-2.3587786c0-1.3027175 1.0520457-2.3587786 2.3498099-2.3587786zm-13.7072243-14.1526718c1.2977641 0 2.3498098 1.05606116 2.3498098 2.35877863 0 1.30271746-1.0520457 2.35877862-2.3498098 2.35877862-1.2977642 0-2.3498099-1.05606116-2.3498099-2.35877862 0-1.30271747 1.0520457-2.35877863 2.3498099-2.35877863zm-14.0988594 0c1.2977642 0 2.3498099 1.05606116 2.3498099 2.35877863 0 1.30271746-1.0520457 2.35877862-2.3498099 2.35877862-1.2977641 0-2.3498098-1.05606116-2.3498098-2.35877862 0-1.30271747 1.0520457-2.35877863 2.3498098-2.35877863zm41.9049429 0c1.297764 0 2.34981 1.05606116 2.34981 2.35877863 0 1.30271746-1.052046 2.35877862-2.34981 2.35877862-1.2977641 0-2.3498098-1.05606116-2.3498098-2.35877862 0-1.30271747 1.0520457-2.35877863 2.3498098-2.35877863zm-14.0988592 0c1.2977642 0 2.3498099 1.05606116 2.3498099 2.35877863 0 1.30271746-1.0520457 2.35877862-2.3498099 2.35877862s-2.3498099-1.05606116-2.3498099-2.35877862c0-1.30271747 1.0520457-2.35877863 2.3498099-2.35877863z" fill="#23263c" opacity=".088486"/><g transform="matrix(.5591929 -.82903757 .82903757 .5591929 -19.19112 63.906752)"><use fill="#000" filter="url(#c)" xlink:href="#b"/><g fill-rule="evenodd"><use fill="url(#a)" xlink:href="#b"/><use fill="#fff" xlink:href="#b"/></g></g><g transform="translate(35 35)"><rect fill="#481b92" height="28.444444" rx="3.555556" width="32"/><path d="m3.5555555 0h24.8888885c.6193938 0 1.2071533.15343786 1.7632785.46031358l-3.5410563 1.7619086 5.3333338 2.22222219h-32l5.33333324-2.22222219-3.50502382-1.7619086c.51929509-.30687572 1.09504379-.46031358 1.72724608-.46031358z" fill="#bab1ff"/><path d="m0 4.44444437h32v23.99999963c0 1.963679-1.5918764 3.5555555-3.5555555 3.5555555h-24.888889c-1.96367908 0-3.5555555-1.5918765-3.5555555-3.5555555z" fill="#8144e5"/><path d="m22.0163393 9.77777761c1.0963086 0 1.9836606.79343689 1.9836606 1.77172459v9.3733614c0 .6341807-.3797486 1.2209638-.9961241 1.5366322l-6.0168166 3.0836918c-.6203836.3127863-1.3537354.3127863-1.9741189 0l-6.01681665-3.0836918c-.61446716-.3156684-.99612379-.9024515-.99612379-1.5366322v-9.3733614c0-.9782877.88830579-1.77172459 1.9836603-1.77172459zm-6.0163396 2.83870959c-.7981405 0-1.4451612.6470208-1.4451612 1.4451613s.6470207 1.4451613 1.4451612 1.4451613c.7981406 0 1.4451613-.6470208 1.4451613-1.4451613s-.6470207-1.4451613-1.4451613-1.4451613z" fill="#fff" fill-rule="nonzero"/></g></g></svg>