<svg height="295" viewBox="0 0 792 295" width="792" xmlns="http://www.w3.org/2000/svg"><g fill="none" fill-rule="evenodd" opacity=".5"><g><path d="m144.184915 226.249311c0 6.48384-5.25492 11.73876-11.73744 11.73876-6.48384 0-11.73744-5.25492-11.73744-11.73876 0-6.482519 5.2536-11.737439 11.73744-11.737439 6.48252 0 11.73744 5.25492 11.73744 11.737439" fill="#b8b1f6"/><path d="m370.424986 64.3513176c0 4.6965598-3.8148 8.5047596-8.514 8.5047596s-8.500799-3.8081998-8.500799-8.5047596c0-4.6978799 3.801599-8.5047597 8.500799-8.5047597s8.514 3.8068798 8.514 8.5047597" fill="#b8b1f6"/><path d="m198.613792 11.7374396c0 4.6978798-3.814799 8.5060796-8.513999 8.5060796-4.686 0-8.5008-3.8081998-8.5008-8.5060796 0-4.69655987 3.8148-8.50475972 8.5008-8.50475972 4.6992 0 8.513999 3.80819985 8.513999 8.50475972" fill="#b8b1f6"/><path d="m199.445392 115.333676c0 4.696559-3.814799 8.504759-8.513999 8.504759s-8.5008-3.8082-8.5008-8.504759c0-4.69656 3.8016-8.50476 8.5008-8.50476s8.513999 3.8082 8.513999 8.50476" fill="#e9e6ff"/><path d="m23.4775191 245.897511c0 6.482519-5.2562398 11.738759-11.7387595 11.738759-6.4825198 0-11.7387596-5.25624-11.7387596-11.738759 0-6.48252 5.2562398-11.73744 11.7387596-11.73744 6.4825197 0 11.7387595 5.25492 11.7387595 11.73744" fill="#b8b1f6"/><path d="m373.658986 201.227392c0 6.48252-5.2668 11.73876-11.748 11.73876-6.481199 0-11.734799-5.25624-11.734799-11.73876 0-6.482519 5.2536-11.738759 11.734799-11.738759 6.4812 0 11.748 5.25624 11.748 11.738759" fill="#b9b2f7"/><g fill="#e9e6ff"><path d="m273.97259 11.7374396c0 6.4838397-5.2668 11.7387595-11.748 11.7387595s-11.7348-5.2549198-11.7348-11.7387595c0-6.4825198 5.2536-11.7374396 11.7348-11.7374396s11.748 5.2549198 11.748 11.7374396"/><path d="m129.630595 169.070874h2.64v-35.319239h-2.64z"/><path d="m189.611393 74.0335172h2.64v-32.4205188h-2.64z"/><path d="m360.590986 107.277716h2.64v-26.1016791h-2.64z"/><path d="m141.617515 116.653676h26.095079v-2.64h-26.095079z"/><path d="m204.342592 282.412669c0 6.48252-5.2668 11.73876-11.747999 11.73876-6.4812 0-11.7348-5.25624-11.7348-11.73876 0-6.482519 5.2536-11.737439 11.7348-11.737439 6.481199 0 11.747999 5.25492 11.747999 11.737439"/><path d="m214.730992 283.732669h26.096399v-2.64h-26.096399z"/><path d="m211.985392 13.0574395h26.096399v-2.6399999h-26.096399z"/><path d="m19.1030393 201.298672c0 4.69788-3.8081999 8.50608-8.5047597 8.50608-4.69787982 0-8.50475968-3.8082-8.50475968-8.50608 0-4.696559 3.80687986-8.504759 8.50475968-8.504759 4.6965598 0 8.5047597 3.8082 8.5047597 8.504759"/><path d="m266.03939 282.412669c0 4.69788-3.8148 8.50608-8.514 8.50608s-8.500799-3.8082-8.500799-8.50608c0-4.69656 3.801599-8.504759 8.500799-8.504759s8.514 3.808199 8.514 8.504759"/><path d="m297.851389 201.227392c0 4.69656-3.8148 8.50476-8.5008 8.50476-4.6992 0-8.514-3.8082-8.514-8.50476 0-4.697879 3.8148-8.504759 8.514-8.504759 4.686 0 8.5008 3.80688 8.5008 8.504759"/><path d="m32.1340788 202.618672h122.5369152v-2.64h-122.5369152z"/><path d="m305.282988 202.547392h26.096399v-2.64h-26.096399z"/><path d="m129.630595 120.567475h2.64v-18.068159h-2.64z"/><path d="m91.1459965 183.883913h-2.6399999v-45.608638c0-13.3782 10.8833996-24.261599 24.2615994-24.261599h7.501559v2.64h-7.501559c-11.92224 0-21.6215995 9.699359-21.6215995 21.621599z"/></g><path d="m68.4604774 247.217511h-36.3263986v-2.64h36.3263986c11.0536796 0 20.0455192-8.99184 20.0455192-20.04552v-9.074999h2.6399999v9.074999c0 12.50832-10.1771996 22.68552-22.6855191 22.68552" fill="#2d488c" opacity=".401181"/></g><g transform="translate(418)"><path d="m144.184915 226.249311c0 6.48384-5.25492 11.73876-11.73744 11.73876-6.48384 0-11.73744-5.25492-11.73744-11.73876 0-6.482519 5.2536-11.737439 11.73744-11.737439 6.48252 0 11.73744 5.25492 11.73744 11.737439" fill="#b9b2f7"/><path d="m370.424986 64.3513176c0 4.6965598-3.8148 8.5047596-8.514 8.5047596s-8.500799-3.8081998-8.500799-8.5047596c0-4.6978799 3.801599-8.5047597 8.500799-8.5047597s8.514 3.8068798 8.514 8.5047597" fill="#b9b2f7"/><path d="m198.613792 11.7374396c0 4.6978798-3.814799 8.5060796-8.513999 8.5060796-4.686 0-8.5008-3.8081998-8.5008-8.5060796 0-4.69655987 3.8148-8.50475972 8.5008-8.50475972 4.6992 0 8.513999 3.80819985 8.513999 8.50475972" fill="#b9b2f7"/><path d="m199.445392 115.333676c0 4.696559-3.814799 8.504759-8.513999 8.504759s-8.5008-3.8082-8.5008-8.504759c0-4.69656 3.8016-8.50476 8.5008-8.50476s8.513999 3.8082 8.513999 8.50476" fill="#e9e6ff"/><path d="m23.4775191 245.897511c0 6.482519-5.2562398 11.738759-11.7387595 11.738759-6.4825198 0-11.7387596-5.25624-11.7387596-11.738759 0-6.48252 5.2562398-11.73744 11.7387596-11.73744 6.4825197 0 11.7387595 5.25492 11.7387595 11.73744" fill="#b9b2f7"/><path d="m373.658986 201.227392c0 6.48252-5.2668 11.73876-11.748 11.73876-6.481199 0-11.734799-5.25624-11.734799-11.73876 0-6.482519 5.2536-11.738759 11.734799-11.738759 6.4812 0 11.748 5.25624 11.748 11.738759" fill="#8144e5"/><g fill="#e9e6ff"><path d="m273.97259 11.7374396c0 6.4838397-5.2668 11.7387595-11.748 11.7387595s-11.7348-5.2549198-11.7348-11.7387595c0-6.4825198 5.2536-11.7374396 11.7348-11.7374396s11.748 5.2549198 11.748 11.7374396"/><path d="m373.658986 149.309154c0 6.48384-5.2668 11.73876-11.748 11.73876-6.481199 0-11.734799-5.25492-11.734799-11.73876 0-6.482519 5.2536-11.737439 11.734799-11.737439 6.4812 0 11.748 5.25492 11.748 11.737439"/><path d="m189.611393 74.0335172h2.64v-32.4205188h-2.64z"/><path d="m360.590986 107.277716h2.64v-26.1016791h-2.64z"/><path d="m204.342592 282.412669c0 6.48252-5.2668 11.73876-11.747999 11.73876-6.4812 0-11.7348-5.25624-11.7348-11.73876 0-6.482519 5.2536-11.737439 11.7348-11.737439 6.481199 0 11.747999 5.25492 11.747999 11.737439"/><path d="m214.730992 283.732669h26.096399v-2.64h-26.096399z"/><path d="m211.985392 13.0574395h26.096399v-2.6399999h-26.096399z"/><path d="m19.1030393 201.298672c0 4.69788-3.8081999 8.50608-8.5047597 8.50608-4.69787982 0-8.50475968-3.8082-8.50475968-8.50608 0-4.696559 3.80687986-8.504759 8.50475968-8.504759 4.6965598 0 8.5047597 3.8082 8.5047597 8.504759"/><path d="m266.03939 282.412669c0 4.69788-3.8148 8.50608-8.514 8.50608s-8.500799-3.8082-8.500799-8.50608c0-4.69656 3.801599-8.504759 8.500799-8.504759s8.514 3.808199 8.514 8.504759"/><path d="m297.851389 201.227392c0 4.69656-3.8148 8.50476-8.5008 8.50476-4.6992 0-8.514-3.8082-8.514-8.50476 0-4.697879 3.8148-8.504759 8.514-8.504759 4.686 0 8.5008 3.80688 8.5008 8.504759"/><path d="m32.1340788 202.618672h122.5369152v-2.64h-122.5369152z"/><path d="m305.282988 202.547392h26.096399v-2.64h-26.096399z"/></g><path d="m68.4604774 247.217511h-36.3263986v-2.64h36.3263986c11.0536796 0 20.0455192-8.99184 20.0455192-20.04552v-9.074999h2.6399999v9.074999c0 12.50832-10.1771996 22.68552-22.6855191 22.68552" fill="#abb6d1"/></g></g></svg>