<svg height="45" viewBox="0 0 1440 45" width="1440" xmlns="http://www.w3.org/2000/svg"><path d="m0 216.005206c13.2997336-.139118 26.8036857 2.543875 39.963019 3.974805 9.5472176.993702 22.6682599.775087 31.1433301 4.113924 7.942181 3.259585 16.450961 5.602735 25.2592828 6.955908 6.8686111 1.037854 13.6433621 2.422014 20.2814551 4.143735 6.803031 1.738977 14.040026 1.848284 20.996221 3.269277 3.829098.785024 7.517796 1.788662 11.270312 2.265639 7.824123.993701 16.873558 0 24.825318 0 6.643967.009312 13.270572.528548 19.783673 1.550174 5.820229.86452 11.487294 2.901608 17.320286 3.974805 6.726449 1.192442 13.491189 1.182505 20.421856.993701 6.423734-.172175 12.822663-.710211 19.14549-1.609796 6.483939-.993701 12.355223-2.981104 18.826398-3.915183 9.828018-1.361371 19.298654-3.318962 29.113908-4.829388 5.354608-.883356 10.81293-1.329622 16.28643-1.33156 1.710331 0 3.510007-.109307 5.220337 0 2.961169.139118 5.462847 1.172568 8.372961 1.401119 5.271391.407418 10.313037 1.06326 15.661011 1.182505 5.781938.129181 11.117147 1.937717 16.988431 1.401118 4.071607-.367669 8.360197-1.093071 12.393514-1.649544 8.053869-1.112945 16.28643-1.778725 24.51899-2.623371 13.580534-1.391182 26.803686-2.603497 40.333165-4.531278 7.173177-.993701 14.269772-2.056962 21.430185-3.239466 3.829098-.635969 7.887942-1.172568 11.729804-1.937718 3.841861-.76515 7.658196-.884394 11.23202-1.589922 3.739753-.745276 6.037211-1.351433 10.057764-1.331559h17.154359c5.399028 0 11.027802-.357733 16.414067-.069559 3.829098.218614 7.390159 1.281874 11.270311 1.430929 4.965064.188804 9.993946-.377606 14.95901-.129181 6.943431.347796 13.248679 1.401119 20.33251 1.33156 5.085071.040689 10.101123.921305 14.7165 2.583623 10.695947 3.418333 23.114988 5.515042 34.066208 7.512382 2.744187.506788 5.182046 0 7.926233.218614 3.152624.218615 6.011683 1.192442 9.151544 1.43093 5.922338.46704 11.946785-.586284 17.869124.228551 5.577719.76515 11.066093.685654 16.784212 1.291812 4.923528.524703 9.877828.856355 14.844137.993701 4.875718.149056 8.934562 1.709167 13.682643 2.335198 5.781938.76515 11.742567.526662 17.562796 1.222253 3.573825.427291 6.930667 1.291812 10.491728 1.689292 4.926773.546536 9.585509 1.599859 14.461227 2.265639 14.928462 1.935577 30.036526 2.909392 45.170592 2.911545 13.095515.09937 23.178807-2.742616 34.883083-6.538555 2.217392-.669443 4.518968-1.155712 6.866849-1.450804 4.492808-.785024 5.845756-2.802237 9.330235-4.451781 5.105464-2.39482 12.661551-3.974805 18.520071-4.49153 17.039485-1.579985 33.976862 3.418332 50.837657 4.02449 3.829098.139118 6.713685 1.083135 10.415146 1.252064 2.884587.139118 5.526665-.198741 8.411252.228551 4.04608.606158 7.658196 2.365009 11.487294 3.338836 4.693534 1.285554 9.518397 2.259544 14.422936 2.911545 2.437859.258362 4.735317-.139118 7.224231.258362 2.488914.397481 3.829098 1.093072 6.38183 1.093072 6.011684 0 11.921258-2.29545 17.869124-2.643246 7.722014-.457102 15.08665-3.269277 22.74484-4.243104 16.66934-2.126521 32.75155-5.862838 49.11456-9.102304 11.66599-2.305387 22.36194-4.809514 34.65334-4.819451h18.34138c3.58659 0 5.70536-.606158 9.01114-1.043386 3.76498-.346638 7.56136-.439729 11.3469-.278237h41.71164c8.11769 0 15.86523 1.281875 23.88081 1.321623 3.25473 0 5.01611-.109307 8.05387.914205 5.41179 1.808537 12.11271 4.094049 18.04781 4.332538 4.50557.188803 7.07107 1.222252 11.81915 1.192441 9.23238-.059622 18.46051-.059622 27.68438 0 6.7775 0 12.50838-1.5303 19.06891-2.29545 3.66317-.437228 7.24975-.109307 10.92569-.576346 3.19091-.407418 6.4967-1.550174 9.39405-1.987403 7.81136-1.252064 18.34138-.675717 25.79536.705528 7.08383 1.321623 15.8397.248425 23.16604.288173 8.06663 0 15.08665-2.712804 23.15328-2.59356 4.35241.069559 7.44121-1.112945 11.65322-1.252064 4.21201-.139118 7.32634-1.351433 11.60217-1.331559 7.23699 0 16.23537-1.13282 23.20433.288173 1.74862.357733 3.24197.725402 5.01612.993701 2.02942.317985 2.97393.993702 4.85019 1.361371 3.35684.635969 8.18151-.069559 11.67875-.069559v35.773246h-1442z" fill="#fff" transform="matrix(1 0 0 -1 -1 261)"/></svg>