<svg height="24" viewBox="0 0 24 24" width="24" xmlns="http://www.w3.org/2000/svg"><path d="m1032.81918 428h-11.49456c-.73178 0-1.32462-.593204-1.32462-1.324699v-21.350696c0-.73168.59293-1.324605 1.32462-1.324605h21.35086c.7315 0 1.32452.592925 1.32452 1.324605v21.350696c0 .731588-.59312 1.324699-1.32452 1.324699h-6.11583v-9.294123h3.11961l.46712-3.622084h-3.58673v-2.312472c0-1.048677.29121-1.763316 1.79499-1.763316l1.91802-.000838v-3.239622c-.33172-.044141-1.47027-.14276-2.79488-.14276-2.76536 0-4.6586 1.687978-4.6586 4.787819v2.671189h-3.12762v3.622084h3.12762z" fill="#ccd2e1" fill-rule="evenodd" transform="translate(-1020 -404)"/></svg>