<svg height="135" viewBox="0 0 135 135" width="135" xmlns="http://www.w3.org/2000/svg" xmlns:xlink="http://www.w3.org/1999/xlink"><defs><linearGradient id="a" x1="50%" x2="50%" y1="0%" y2="100%"><stop offset="0" stop-color="#84f1ff"/><stop offset="1" stop-color="#4ddffe"/></linearGradient><path id="b" d="m30.0416359 24.7350579c-6.4568958 5.4508993-15.9383423 7.1163355-16.9324936 18.9361225-.9927815 11.8020879 4.8658211 23.9947707 14.3732159 29.6612175-.6345065.0402423 1.4120244 1.5638609 6.1395925 4.5708558 4.2345369 2.6931982 9.1485411 4.4495292 14.4803628 4.9510009 18.003142 1.6928112 33.9682737-11.5550886 35.7393505-29.6169203 1.7749907-18.1186652-11.5814721-34.3952575-29.6210142-36.0916086-9.1052915-.8562384-17.6894364 2.1105077-24.1790139 7.5893322z"/><filter id="c" height="172.7%" width="167.6%" x="-33.8%" y="-27.3%"><feOffset dx="0" dy="6" in="SourceAlpha" result="shadowOffsetOuter1"/><feGaussianBlur in="shadowOffsetOuter1" result="shadowBlurOuter1" stdDeviation="7"/><feColorMatrix in="shadowBlurOuter1" type="matrix" values="0 0 0 0 0.133333333   0 0 0 0 0.160784314   0 0 0 0 0.223529412  0 0 0 0.1 0"/></filter></defs><g fill="none" fill-rule="evenodd" transform="translate(14 14)"><path d="m16.4486692 98.2824427c1.2977642 0 2.3498099 1.0560612 2.3498099 2.3587783 0 1.302718-1.0520457 2.358779-2.3498099 2.358779s-2.3498099-1.056061-2.3498099-2.358779c0-1.3027171 1.0520457-2.3587783 2.3498099-2.3587783zm-14.09885931 0c1.29776416 0 2.34980988 1.0560612 2.34980988 2.3587783 0 1.302718-1.05204572 2.358779-2.34980988 2.358779-1.29776417 0-2.34980989-1.056061-2.34980989-2.358779 0-1.3027171 1.05204572-2.3587783 2.34980989-2.3587783zm42.29657791 0c1.2977642 0 2.3498099 1.0560612 2.3498099 2.3587783 0 1.302718-1.0520457 2.358779-2.3498099 2.358779-1.2977641 0-2.3498099-1.056061-2.3498099-2.358779 0-1.3027171 1.0520458-2.3587783 2.3498099-2.3587783zm-14.4904943 0c1.2977642 0 2.3498099 1.0560612 2.3498099 2.3587783 0 1.302718-1.0520457 2.358779-2.3498099 2.358779-1.2977641 0-2.3498098-1.056061-2.3498098-2.358779 0-1.3027171 1.0520457-2.3587783 2.3498098-2.3587783zm-13.7072243-14.1526717c1.2977642 0 2.3498099 1.0560612 2.3498099 2.3587786 0 1.3027175-1.0520457 2.3587786-2.3498099 2.3587786s-2.3498099-1.0560611-2.3498099-2.3587786c0-1.3027174 1.0520457-2.3587786 2.3498099-2.3587786zm-14.09885931 0c1.29776416 0 2.34980988 1.0560612 2.34980988 2.3587786 0 1.3027175-1.05204572 2.3587786-2.34980988 2.3587786-1.29776417 0-2.34980989-1.0560611-2.34980989-2.3587786 0-1.3027174 1.05204572-2.3587786 2.34980989-2.3587786zm42.29657791 0c1.2977642 0 2.3498099 1.0560612 2.3498099 2.3587786 0 1.3027175-1.0520457 2.3587786-2.3498099 2.3587786-1.2977641 0-2.3498099-1.0560611-2.3498099-2.3587786 0-1.3027174 1.0520458-2.3587786 2.3498099-2.3587786zm-13.7072243 0c1.2977642 0 2.3498099 1.0560612 2.3498099 2.3587786 0 1.3027175-1.0520457 2.3587786-2.3498099 2.3587786s-2.3498099-1.0560611-2.3498099-2.3587786c0-1.3027174 1.0520457-2.3587786 2.3498099-2.3587786zm27.8060836-13.759542c1.2977642 0 2.3498099 1.0560612 2.3498099 2.3587786 0 1.3027175-1.0520457 2.3587787-2.3498099 2.3587787-1.2977641 0-2.3498098-1.0560612-2.3498098-2.3587787 0-1.3027174 1.0520457-2.3587786 2.3498098-2.3587786zm41.9049429 0c1.297764 0 2.34981 1.0560612 2.34981 2.3587786 0 1.3027175-1.052046 2.3587787-2.34981 2.3587787-1.2977641 0-2.3498098-1.0560612-2.3498098-2.3587787 0-1.3027174 1.0520457-2.3587786 2.3498098-2.3587786zm-14.0988592 0c1.2977642 0 2.3498099 1.0560612 2.3498099 2.3587786 0 1.3027175-1.0520457 2.3587787-2.3498099 2.3587787s-2.3498099-1.0560612-2.3498099-2.3587787c0-1.3027174 1.0520457-2.3587786 2.3498099-2.3587786zm-70.1026616 0c1.2977642 0 2.3498099 1.0560612 2.3498099 2.3587786 0 1.3027175-1.0520457 2.3587787-2.3498099 2.3587787s-2.3498099-1.0560612-2.3498099-2.3587787c0-1.3027174 1.0520457-2.3587786 2.3498099-2.3587786zm-14.09885931 0c1.29776416 0 2.34980988 1.0560612 2.34980988 2.3587786 0 1.3027175-1.05204572 2.3587787-2.34980988 2.3587787-1.29776417 0-2.34980989-1.0560612-2.34980989-2.3587787 0-1.3027174 1.05204572-2.3587786 2.34980989-2.3587786zm42.29657791 0c1.2977642 0 2.3498099 1.0560612 2.3498099 2.3587786 0 1.3027175-1.0520457 2.3587787-2.3498099 2.3587787-1.2977641 0-2.3498099-1.0560612-2.3498099-2.3587787 0-1.3027174 1.0520458-2.3587786 2.3498099-2.3587786zm-14.4904943 0c1.2977642 0 2.3498099 1.0560612 2.3498099 2.3587786 0 1.3027175-1.0520457 2.3587787-2.3498099 2.3587787-1.2977641 0-2.3498098-1.0560612-2.3498098-2.3587787 0-1.3027174 1.0520457-2.3587786 2.3498098-2.3587786zm42.688213 0c1.2977641 0 2.3498098 1.0560612 2.3498098 2.3587786 0 1.3027175-1.0520457 2.3587787-2.3498098 2.3587787-1.2977642 0-2.3498099-1.0560612-2.3498099-2.3587787 0-1.3027174 1.0520457-2.3587786 2.3498099-2.3587786zm0-14.1526717c1.2977641 0 2.3498098 1.0560611 2.3498098 2.3587786 0 1.3027174-1.0520457 2.3587786-2.3498098 2.3587786-1.2977642 0-2.3498099-1.0560612-2.3498099-2.3587786 0-1.3027175 1.0520457-2.3587786 2.3498099-2.3587786zm-14.0988594 0c1.2977642 0 2.3498099 1.0560611 2.3498099 2.3587786 0 1.3027174-1.0520457 2.3587786-2.3498099 2.3587786-1.2977641 0-2.3498098-1.0560612-2.3498098-2.3587786 0-1.3027175 1.0520457-2.3587786 2.3498098-2.3587786zm41.9049429 0c1.297764 0 2.34981 1.0560611 2.34981 2.3587786 0 1.3027174-1.052046 2.3587786-2.34981 2.3587786-1.2977641 0-2.3498098-1.0560612-2.3498098-2.3587786 0-1.3027175 1.0520457-2.3587786 2.3498098-2.3587786zm-14.0988592 0c1.2977642 0 2.3498099 1.0560611 2.3498099 2.3587786 0 1.3027174-1.0520457 2.3587786-2.3498099 2.3587786s-2.3498099-1.0560612-2.3498099-2.3587786c0-1.3027175 1.0520457-2.3587786 2.3498099-2.3587786zm-70.1026616 0c1.2977642 0 2.3498099 1.0560611 2.3498099 2.3587786 0 1.3027174-1.0520457 2.3587786-2.3498099 2.3587786s-2.3498099-1.0560612-2.3498099-2.3587786c0-1.3027175 1.0520457-2.3587786 2.3498099-2.3587786zm-14.09885931 0c1.29776416 0 2.34980988 1.0560611 2.34980988 2.3587786 0 1.3027174-1.05204572 2.3587786-2.34980988 2.3587786-1.29776417 0-2.34980989-1.0560612-2.34980989-2.3587786 0-1.3027175 1.05204572-2.3587786 2.34980989-2.3587786zm42.29657791 0c1.2977642 0 2.3498099 1.0560611 2.3498099 2.3587786 0 1.3027174-1.0520457 2.3587786-2.3498099 2.3587786-1.2977641 0-2.3498099-1.0560612-2.3498099-2.3587786 0-1.3027175 1.0520458-2.3587786 2.3498099-2.3587786zm-13.7072243 0c1.2977642 0 2.3498099 1.0560611 2.3498099 2.3587786 0 1.3027174-1.0520457 2.3587786-2.3498099 2.3587786s-2.3498099-1.0560612-2.3498099-2.3587786c0-1.3027175 1.0520457-2.3587786 2.3498099-2.3587786zm-14.4904943-14.1526718c1.2977642 0 2.3498099 1.0560612 2.3498099 2.3587786 0 1.3027175-1.0520457 2.3587786-2.3498099 2.3587786s-2.3498099-1.0560611-2.3498099-2.3587786c0-1.3027174 1.0520457-2.3587786 2.3498099-2.3587786zm-14.09885931 0c1.29776416 0 2.34980988 1.0560612 2.34980988 2.3587786 0 1.3027175-1.05204572 2.3587786-2.34980988 2.3587786-1.29776417 0-2.34980989-1.0560611-2.34980989-2.3587786 0-1.3027174 1.05204572-2.3587786 2.34980989-2.3587786zm84.20152091 0c1.2977642 0 2.3498099 1.0560612 2.3498099 2.3587786 0 1.3027175-1.0520457 2.3587786-2.3498099 2.3587786s-2.3498099-1.0560611-2.3498099-2.3587786c0-1.3027174 1.0520457-2.3587786 2.3498099-2.3587786zm-41.904943 0c1.2977642 0 2.3498099 1.0560612 2.3498099 2.3587786 0 1.3027175-1.0520457 2.3587786-2.3498099 2.3587786-1.2977641 0-2.3498099-1.0560611-2.3498099-2.3587786 0-1.3027174 1.0520458-2.3587786 2.3498099-2.3587786zm56.0038022 0c1.297764 0 2.34981 1.0560612 2.34981 2.3587786 0 1.3027175-1.052046 2.3587786-2.34981 2.3587786-1.2977641 0-2.3498098-1.0560611-2.3498098-2.3587786 0-1.3027174 1.0520457-2.3587786 2.3498098-2.3587786zm-27.8060835 0c1.2977641 0 2.3498098 1.0560612 2.3498098 2.3587786 0 1.3027175-1.0520457 2.3587786-2.3498098 2.3587786-1.2977642 0-2.3498099-1.0560611-2.3498099-2.3587786 0-1.3027174 1.0520457-2.3587786 2.3498099-2.3587786zm-14.0988594 0c1.2977642 0 2.3498099 1.0560612 2.3498099 2.3587786 0 1.3027175-1.0520457 2.3587786-2.3498099 2.3587786-1.2977641 0-2.3498098-1.0560611-2.3498098-2.3587786 0-1.3027174 1.0520457-2.3587786 2.3498098-2.3587786zm-28.5893536 0c1.2977642 0 2.3498099 1.0560612 2.3498099 2.3587786 0 1.3027175-1.0520457 2.3587786-2.3498099 2.3587786-1.2977641 0-2.3498098-1.0560611-2.3498098-2.3587786 0-1.3027174 1.0520457-2.3587786 2.3498098-2.3587786zm42.688213-14.1526718c1.2977641 0 2.3498098 1.0560612 2.3498098 2.3587787 0 1.3027174-1.0520457 2.3587786-2.3498098 2.3587786-1.2977642 0-2.3498099-1.0560612-2.3498099-2.3587786 0-1.3027175 1.0520457-2.3587787 2.3498099-2.3587787zm-14.0988594 0c1.2977642 0 2.3498099 1.0560612 2.3498099 2.3587787 0 1.3027174-1.0520457 2.3587786-2.3498099 2.3587786-1.2977641 0-2.3498098-1.0560612-2.3498098-2.3587786 0-1.3027175 1.0520457-2.3587787 2.3498098-2.3587787zm41.9049429 0c1.297764 0 2.34981 1.0560612 2.34981 2.3587787 0 1.3027174-1.052046 2.3587786-2.34981 2.3587786-1.2977641 0-2.3498098-1.0560612-2.3498098-2.3587786 0-1.3027175 1.0520457-2.3587787 2.3498098-2.3587787zm-14.0988592 0c1.2977642 0 2.3498099 1.0560612 2.3498099 2.3587787 0 1.3027174-1.0520457 2.3587786-2.3498099 2.3587786s-2.3498099-1.0560612-2.3498099-2.3587786c0-1.3027175 1.0520457-2.3587787 2.3498099-2.3587787zm-41.904943 0c1.2977642 0 2.3498099 1.0560612 2.3498099 2.3587787 0 1.3027174-1.0520457 2.3587786-2.3498099 2.3587786-1.2977641 0-2.3498099-1.0560612-2.3498099-2.3587786 0-1.3027175 1.0520458-2.3587787 2.3498099-2.3587787zm-13.7072243 0c1.2977642 0 2.3498099 1.0560612 2.3498099 2.3587787 0 1.3027174-1.0520457 2.3587786-2.3498099 2.3587786s-2.3498099-1.0560612-2.3498099-2.3587786c0-1.3027175 1.0520457-2.3587787 2.3498099-2.3587787zm41.904943-13.7595419c1.2977641 0 2.3498098 1.0560611 2.3498098 2.3587786 0 1.3027174-1.0520457 2.3587786-2.3498098 2.3587786-1.2977642 0-2.3498099-1.0560612-2.3498099-2.3587786 0-1.3027175 1.0520457-2.3587786 2.3498099-2.3587786zm-14.0988594 0c1.2977642 0 2.3498099 1.0560611 2.3498099 2.3587786 0 1.3027174-1.0520457 2.3587786-2.3498099 2.3587786-1.2977641 0-2.3498098-1.0560612-2.3498098-2.3587786 0-1.3027175 1.0520457-2.3587786 2.3498098-2.3587786zm41.9049429 0c1.297764 0 2.34981 1.0560611 2.34981 2.3587786 0 1.3027174-1.052046 2.3587786-2.34981 2.3587786-1.2977641 0-2.3498098-1.0560612-2.3498098-2.3587786 0-1.3027175 1.0520457-2.3587786 2.3498098-2.3587786zm-14.0988592 0c1.2977642 0 2.3498099 1.0560611 2.3498099 2.3587786 0 1.3027174-1.0520457 2.3587786-2.3498099 2.3587786s-2.3498099-1.0560612-2.3498099-2.3587786c0-1.3027175 1.0520457-2.3587786 2.3498099-2.3587786zm-13.7072243-14.1526718c1.2977641 0 2.3498098 1.05606116 2.3498098 2.35877863 0 1.30271746-1.0520457 2.35877862-2.3498098 2.35877862-1.2977642 0-2.3498099-1.05606116-2.3498099-2.35877862 0-1.30271747 1.0520457-2.35877863 2.3498099-2.35877863zm-14.0988594 0c1.2977642 0 2.3498099 1.05606116 2.3498099 2.35877863 0 1.30271746-1.0520457 2.35877862-2.3498099 2.35877862-1.2977641 0-2.3498098-1.05606116-2.3498098-2.35877862 0-1.30271747 1.0520457-2.35877863 2.3498098-2.35877863zm41.9049429 0c1.297764 0 2.34981 1.05606116 2.34981 2.35877863 0 1.30271746-1.052046 2.35877862-2.34981 2.35877862-1.2977641 0-2.3498098-1.05606116-2.3498098-2.35877862 0-1.30271747 1.0520457-2.35877863 2.3498098-2.35877863zm-14.0988592 0c1.2977642 0 2.3498099 1.05606116 2.3498099 2.35877863 0 1.30271746-1.0520457 2.35877862-2.3498099 2.35877862s-2.3498099-1.05606116-2.3498099-2.35877862c0-1.30271747 1.0520457-2.35877863 2.3498099-2.35877863z" fill="#23263c" opacity=".088486"/><g transform="matrix(.5591929 -.82903757 .82903757 .5591929 -20.072734 62.248677)"><use fill="#000" filter="url(#c)" xlink:href="#b"/><g fill-rule="evenodd"><use fill="url(#a)" xlink:href="#b"/><use fill="#fff" xlink:href="#b"/></g></g><g fill-rule="nonzero" transform="translate(37 31)"><path d="m23.868444 6.19733323c-.0248889-.14933333-.1493333-.24888889-.2737777-.24888889-.1244445 0-2.3146667-.04977777-2.3146667-.04977777s-1.8417777-1.79199997-2.0159999-1.96622219-.5475556-.12444444-.672-.07466667c0 0-.3484445.09955556-.9208889.27377778-.0995555-.32355555-.2488889-.69688888-.448-1.0951111-.6471111-1.24444442-1.6177777-1.91644441-2.7626666-1.91644441-.0746667 0-.1493333 0-.2488889.02488889-.0248889-.04977778-.0746667-.07466667-.0995555-.12444444-.4977778-.54755555-1.1448889-.79644443-1.9164445-.77155554-1.4933333.04977777-2.98666657 1.11999998-4.18133321 3.03644439-.84622221 1.34399997-1.49333331 3.03644439-1.69244442 4.35555548-1.7173333.52266666-2.91199995.89599998-2.93688884.92088887-.8711111.27377778-.89599998.29866666-.99555554 1.11999998-.07466666.62222219-2.3644444 18.16888859-2.3644444 18.16888859l19.01511081 3.2853333 8.2382221-2.0408889c-.0248889-.0248889-3.3848889-22.74844404-3.4097778-22.89777737zm-7.143111-1.76711108c-.4479999.12444444-.9457777.29866666-1.4684444.44799999 0-.74666665-.0995555-1.81688886-.448-2.71288884 1.12.22399999 1.6675556 1.4933333 1.9164444 2.26488885zm-2.4888888.77155554c-.9955555.29866666-2.0906666.6471111-3.1857777.97066665.2986666-1.16977776.896-2.33955552 1.5928888-3.11111106.2737778-.27377777.6471111-.59733332 1.0702222-.79644443.448.8711111.5475556 2.09066663.5226667 2.93688884zm-2.016-3.95733327c.3484445 0 .6471111.07466667.896.224-.3982222.224-.7964444.52266666-1.1697777.92088887-.9457778 1.02044443-1.6675556 2.61333329-1.96622223 4.13155549-.89599998.27377777-1.79199997.54755554-2.61333328.79644443.52266665-2.38933329 2.53866662-5.99822212 4.85333321-6.07288879z" fill="#95bf47"/><g transform="translate(5.944888 3.733333)"><path d="m18.6168886 2.21511107c-.1244445 0-2.3146667-.04977777-2.3146667-.04977777s-1.8417777-1.79199997-2.0159999-1.96622219c-.0746667-.07466667-.1493334-.09955556-.2488889-.12444444v27.30311063l8.2382221-2.0408888s-3.36-22.72355521-3.3848889-22.89777743c-.0248888-.12444444-.1493333-.224-.2737777-.224z" fill="#5e8e3e"/><path d="m9.45777762 6.44622211-.94577776 3.58399999s-1.07022221-.49777782-2.33955552-.39822226c-1.86666664.12444444-1.86666664 1.29422216-1.86666664 1.59288886.09955556 1.5928889 4.30577771 1.9413333 4.55466659 5.6995555.17422222 2.9617777-1.56799997 4.9777776-4.0817777 5.127111-3.0364444.1991111-4.70399992-1.5928889-4.70399992-1.5928889l.6471111-2.7377777s1.66755552 1.2693333 3.0115555 1.1697777c.8711111-.0497777 1.19466665-.7715555 1.16977776-1.2693333-.12444444-2.0906666-3.55911105-1.9662222-3.78311105-5.4008888-.17422222-2.88711103 1.71733331-5.82399986 5.89866657-6.07288875 1.61777775-.12444444 2.43911107.29866666 2.43911107.29866666z" fill="#fff"/></g></g></g></svg>