<svg height="193" viewBox="0 0 192 193" width="192" xmlns="http://www.w3.org/2000/svg" xmlns:xlink="http://www.w3.org/1999/xlink"><defs><linearGradient id="a" x1="50%" x2="50%" y1="0%" y2="100%"><stop offset="0" stop-color="#84f1ff"/><stop offset="1" stop-color="#4ddffe"/></linearGradient><path id="b" d="m41.4823502 32.5959762c-9.2761038 7.7634022-22.8973368 10.135387-24.3255543 26.9696291-1.4262494 16.8090343 6.9903346 34.1743704 20.6488454 42.2447647-.9115444.057314 2.0285422 2.227317 8.8202598 6.510006 6.0834192 3.835767 13.1429744 6.337209 20.8027746 7.051426 25.8636688 2.410973 48.7994923-16.4572474 51.3438553-42.1816744 2.549987-25.8053717-16.638171-48.9871851-42.5541327-51.4032002-13.0808414-1.219491-25.4129931 3.0058746-34.7360481 10.8090488z"/><filter id="c" height="173.4%" width="167.6%" x="-33.8%" y="-27.1%"><feOffset dx="0" dy="9" in="SourceAlpha" result="shadowOffsetOuter1"/><feGaussianBlur in="shadowOffsetOuter1" result="shadowBlurOuter1" stdDeviation="10"/><feColorMatrix in="shadowBlurOuter1" type="matrix" values="0 0 0 0 0.133333333   0 0 0 0 0.160784314   0 0 0 0 0.223529412  0 0 0 0.1 0"/></filter></defs><g fill="none" fill-rule="evenodd" transform="translate(20.947078 23)"><path d="m35.5015911 117.282443c1.2977642 0 2.3498099 1.056061 2.3498099 2.358778 0 1.302718-1.0520457 2.358779-2.3498099 2.358779s-2.3498099-1.056061-2.3498099-2.358779c0-1.302717 1.0520457-2.358778 2.3498099-2.358778zm-14.0988593 0c1.2977642 0 2.3498099 1.056061 2.3498099 2.358778 0 1.302718-1.0520457 2.358779-2.3498099 2.358779s-2.3498099-1.056061-2.3498099-2.358779c0-1.302717 1.0520457-2.358778 2.3498099-2.358778zm42.2965779 0c1.2977642 0 2.3498099 1.056061 2.3498099 2.358778 0 1.302718-1.0520457 2.358779-2.3498099 2.358779-1.2977641 0-2.3498098-1.056061-2.3498098-2.358779 0-1.302717 1.0520457-2.358778 2.3498098-2.358778zm-14.4904943 0c1.2977642 0 2.3498099 1.056061 2.3498099 2.358778 0 1.302718-1.0520457 2.358779-2.3498099 2.358779-1.2977641 0-2.3498098-1.056061-2.3498098-2.358779 0-1.302717 1.0520457-2.358778 2.3498098-2.358778zm-13.7072243-14.152672c1.2977642 0 2.3498099 1.056061 2.3498099 2.358779 0 1.302717-1.0520457 2.358778-2.3498099 2.358778s-2.3498099-1.056061-2.3498099-2.358778c0-1.302718 1.0520457-2.358779 2.3498099-2.358779zm-14.0988593 0c1.2977642 0 2.3498099 1.056061 2.3498099 2.358779 0 1.302717-1.0520457 2.358778-2.3498099 2.358778s-2.3498099-1.056061-2.3498099-2.358778c0-1.302718 1.0520457-2.358779 2.3498099-2.358779zm42.2965779 0c1.2977642 0 2.3498099 1.056061 2.3498099 2.358779 0 1.302717-1.0520457 2.358778-2.3498099 2.358778-1.2977641 0-2.3498098-1.056061-2.3498098-2.358778 0-1.302718 1.0520457-2.358779 2.3498098-2.358779zm-13.7072243 0c1.2977642 0 2.3498099 1.056061 2.3498099 2.358779 0 1.302717-1.0520457 2.358778-2.3498099 2.358778s-2.3498099-1.056061-2.3498099-2.358778c0-1.302718 1.0520457-2.358779 2.3498099-2.358779zm27.8060837-13.759542c1.2977641 0 2.3498098 1.0560612 2.3498098 2.3587786 0 1.3027175-1.0520457 2.3587787-2.3498098 2.3587787-1.2977642 0-2.3498099-1.0560612-2.3498099-2.3587787 0-1.3027174 1.0520457-2.3587786 2.3498099-2.3587786zm41.9049429 0c1.297764 0 2.34981 1.0560612 2.34981 2.3587786 0 1.3027175-1.052046 2.3587787-2.34981 2.3587787s-2.34981-1.0560612-2.34981-2.3587787c0-1.3027174 1.052046-2.3587786 2.34981-2.3587786zm-14.098859 0c1.297764 0 2.34981 1.0560612 2.34981 2.3587786 0 1.3027175-1.052046 2.3587787-2.34981 2.3587787s-2.34981-1.0560612-2.34981-2.3587787c0-1.3027174 1.052046-2.3587786 2.34981-2.3587786zm-70.1026619 0c1.2977642 0 2.3498099 1.0560612 2.3498099 2.3587786 0 1.3027175-1.0520457 2.3587787-2.3498099 2.3587787s-2.3498099-1.0560612-2.3498099-2.3587787c0-1.3027174 1.0520457-2.3587786 2.3498099-2.3587786zm-14.0988593 0c1.2977642 0 2.3498099 1.0560612 2.3498099 2.3587786 0 1.3027175-1.0520457 2.3587787-2.3498099 2.3587787s-2.3498099-1.0560612-2.3498099-2.3587787c0-1.3027174 1.0520457-2.3587786 2.3498099-2.3587786zm42.2965779 0c1.2977642 0 2.3498099 1.0560612 2.3498099 2.3587786 0 1.3027175-1.0520457 2.3587787-2.3498099 2.3587787-1.2977641 0-2.3498098-1.0560612-2.3498098-2.3587787 0-1.3027174 1.0520457-2.3587786 2.3498098-2.3587786zm-14.4904943 0c1.2977642 0 2.3498099 1.0560612 2.3498099 2.3587786 0 1.3027175-1.0520457 2.3587787-2.3498099 2.3587787-1.2977641 0-2.3498098-1.0560612-2.3498098-2.3587787 0-1.3027174 1.0520457-2.3587786 2.3498098-2.3587786zm42.688213 0c1.2977641 0 2.3498099 1.0560612 2.3498099 2.3587786 0 1.3027175-1.0520458 2.3587787-2.3498099 2.3587787-1.2977642 0-2.3498099-1.0560612-2.3498099-2.3587787 0-1.3027174 1.0520457-2.3587786 2.3498099-2.3587786zm0-14.1526717c1.2977641 0 2.3498099 1.0560611 2.3498099 2.3587786 0 1.3027174-1.0520458 2.3587786-2.3498099 2.3587786-1.2977642 0-2.3498099-1.0560612-2.3498099-2.3587786 0-1.3027175 1.0520457-2.3587786 2.3498099-2.3587786zm-14.0988593 0c1.2977641 0 2.3498098 1.0560611 2.3498098 2.3587786 0 1.3027174-1.0520457 2.3587786-2.3498098 2.3587786-1.2977642 0-2.3498099-1.0560612-2.3498099-2.3587786 0-1.3027175 1.0520457-2.3587786 2.3498099-2.3587786zm41.9049429 0c1.297764 0 2.34981 1.0560611 2.34981 2.3587786 0 1.3027174-1.052046 2.3587786-2.34981 2.3587786s-2.34981-1.0560612-2.34981-2.3587786c0-1.3027175 1.052046-2.3587786 2.34981-2.3587786zm-14.098859 0c1.297764 0 2.34981 1.0560611 2.34981 2.3587786 0 1.3027174-1.052046 2.3587786-2.34981 2.3587786s-2.34981-1.0560612-2.34981-2.3587786c0-1.3027175 1.052046-2.3587786 2.34981-2.3587786zm-70.1026619 0c1.2977642 0 2.3498099 1.0560611 2.3498099 2.3587786 0 1.3027174-1.0520457 2.3587786-2.3498099 2.3587786s-2.3498099-1.0560612-2.3498099-2.3587786c0-1.3027175 1.0520457-2.3587786 2.3498099-2.3587786zm-14.0988593 0c1.2977642 0 2.3498099 1.0560611 2.3498099 2.3587786 0 1.3027174-1.0520457 2.3587786-2.3498099 2.3587786s-2.3498099-1.0560612-2.3498099-2.3587786c0-1.3027175 1.0520457-2.3587786 2.3498099-2.3587786zm42.2965779 0c1.2977642 0 2.3498099 1.0560611 2.3498099 2.3587786 0 1.3027174-1.0520457 2.3587786-2.3498099 2.3587786-1.2977641 0-2.3498098-1.0560612-2.3498098-2.3587786 0-1.3027175 1.0520457-2.3587786 2.3498098-2.3587786zm-13.7072243 0c1.2977642 0 2.3498099 1.0560611 2.3498099 2.3587786 0 1.3027174-1.0520457 2.3587786-2.3498099 2.3587786s-2.3498099-1.0560612-2.3498099-2.3587786c0-1.3027175 1.0520457-2.3587786 2.3498099-2.3587786zm-14.4904943-14.1526718c1.2977642 0 2.3498099 1.0560612 2.3498099 2.3587786 0 1.3027175-1.0520457 2.3587786-2.3498099 2.3587786s-2.3498099-1.0560611-2.3498099-2.3587786c0-1.3027174 1.0520457-2.3587786 2.3498099-2.3587786zm-14.0988593 0c1.2977642 0 2.3498099 1.0560612 2.3498099 2.3587786 0 1.3027175-1.0520457 2.3587786-2.3498099 2.3587786s-2.3498099-1.0560611-2.3498099-2.3587786c0-1.3027174 1.0520457-2.3587786 2.3498099-2.3587786zm84.2015212 0c1.297764 0 2.34981 1.0560612 2.34981 2.3587786 0 1.3027175-1.052046 2.3587786-2.34981 2.3587786s-2.34981-1.0560611-2.34981-2.3587786c0-1.3027174 1.052046-2.3587786 2.34981-2.3587786zm-41.9049433 0c1.2977642 0 2.3498099 1.0560612 2.3498099 2.3587786 0 1.3027175-1.0520457 2.3587786-2.3498099 2.3587786-1.2977641 0-2.3498098-1.0560611-2.3498098-2.3587786 0-1.3027174 1.0520457-2.3587786 2.3498098-2.3587786zm56.0038023 0c1.297764 0 2.34981 1.0560612 2.34981 2.3587786 0 1.3027175-1.052046 2.3587786-2.34981 2.3587786s-2.34981-1.0560611-2.34981-2.3587786c0-1.3027174 1.052046-2.3587786 2.34981-2.3587786zm-27.8060836 0c1.2977641 0 2.3498099 1.0560612 2.3498099 2.3587786 0 1.3027175-1.0520458 2.3587786-2.3498099 2.3587786-1.2977642 0-2.3498099-1.0560611-2.3498099-2.3587786 0-1.3027174 1.0520457-2.3587786 2.3498099-2.3587786zm-14.0988593 0c1.2977641 0 2.3498098 1.0560612 2.3498098 2.3587786 0 1.3027175-1.0520457 2.3587786-2.3498098 2.3587786-1.2977642 0-2.3498099-1.0560611-2.3498099-2.3587786 0-1.3027174 1.0520457-2.3587786 2.3498099-2.3587786zm-28.5893537 0c1.2977642 0 2.3498099 1.0560612 2.3498099 2.3587786 0 1.3027175-1.0520457 2.3587786-2.3498099 2.3587786-1.2977641 0-2.3498098-1.0560611-2.3498098-2.3587786 0-1.3027174 1.0520457-2.3587786 2.3498098-2.3587786zm42.688213-14.1526718c1.2977641 0 2.3498099 1.0560612 2.3498099 2.3587787 0 1.3027174-1.0520458 2.3587786-2.3498099 2.3587786-1.2977642 0-2.3498099-1.0560612-2.3498099-2.3587786 0-1.3027175 1.0520457-2.3587787 2.3498099-2.3587787zm-14.0988593 0c1.2977641 0 2.3498098 1.0560612 2.3498098 2.3587787 0 1.3027174-1.0520457 2.3587786-2.3498098 2.3587786-1.2977642 0-2.3498099-1.0560612-2.3498099-2.3587786 0-1.3027175 1.0520457-2.3587787 2.3498099-2.3587787zm41.9049429 0c1.297764 0 2.34981 1.0560612 2.34981 2.3587787 0 1.3027174-1.052046 2.3587786-2.34981 2.3587786s-2.34981-1.0560612-2.34981-2.3587786c0-1.3027175 1.052046-2.3587787 2.34981-2.3587787zm-14.098859 0c1.297764 0 2.34981 1.0560612 2.34981 2.3587787 0 1.3027174-1.052046 2.3587786-2.34981 2.3587786s-2.34981-1.0560612-2.34981-2.3587786c0-1.3027175 1.052046-2.3587787 2.34981-2.3587787zm-41.9049433 0c1.2977642 0 2.3498099 1.0560612 2.3498099 2.3587787 0 1.3027174-1.0520457 2.3587786-2.3498099 2.3587786-1.2977641 0-2.3498098-1.0560612-2.3498098-2.3587786 0-1.3027175 1.0520457-2.3587787 2.3498098-2.3587787zm-13.7072243 0c1.2977642 0 2.3498099 1.0560612 2.3498099 2.3587787 0 1.3027174-1.0520457 2.3587786-2.3498099 2.3587786s-2.3498099-1.0560612-2.3498099-2.3587786c0-1.3027175 1.0520457-2.3587787 2.3498099-2.3587787zm41.904943-13.7595419c1.2977641 0 2.3498099 1.0560611 2.3498099 2.3587786 0 1.3027174-1.0520458 2.3587786-2.3498099 2.3587786-1.2977642 0-2.3498099-1.0560612-2.3498099-2.3587786 0-1.3027175 1.0520457-2.3587786 2.3498099-2.3587786zm-14.0988593 0c1.2977641 0 2.3498098 1.0560611 2.3498098 2.3587786 0 1.3027174-1.0520457 2.3587786-2.3498098 2.3587786-1.2977642 0-2.3498099-1.0560612-2.3498099-2.3587786 0-1.3027175 1.0520457-2.3587786 2.3498099-2.3587786zm41.9049429 0c1.297764 0 2.34981 1.0560611 2.34981 2.3587786 0 1.3027174-1.052046 2.3587786-2.34981 2.3587786s-2.34981-1.0560612-2.34981-2.3587786c0-1.3027175 1.052046-2.3587786 2.34981-2.3587786zm-14.098859 0c1.297764 0 2.34981 1.0560611 2.34981 2.3587786 0 1.3027174-1.052046 2.3587786-2.34981 2.3587786s-2.34981-1.0560612-2.34981-2.3587786c0-1.3027175 1.052046-2.3587786 2.34981-2.3587786zm-13.7072246-14.1526718c1.2977641 0 2.3498099 1.0560612 2.3498099 2.3587786 0 1.3027175-1.0520458 2.3587787-2.3498099 2.3587787-1.2977642 0-2.3498099-1.0560612-2.3498099-2.3587787 0-1.3027174 1.0520457-2.3587786 2.3498099-2.3587786zm-14.0988593 0c1.2977641 0 2.3498098 1.0560612 2.3498098 2.3587786 0 1.3027175-1.0520457 2.3587787-2.3498098 2.3587787-1.2977642 0-2.3498099-1.0560612-2.3498099-2.3587787 0-1.3027174 1.0520457-2.3587786 2.3498099-2.3587786zm41.9049429 0c1.297764 0 2.34981 1.0560612 2.34981 2.3587786 0 1.3027175-1.052046 2.3587787-2.34981 2.3587787s-2.34981-1.0560612-2.34981-2.3587787c0-1.3027174 1.052046-2.3587786 2.34981-2.3587786zm-14.098859 0c1.297764 0 2.34981 1.0560612 2.34981 2.3587786 0 1.3027175-1.052046 2.3587787-2.34981 2.3587787s-2.34981-1.0560612-2.34981-2.3587787c0-1.3027174 1.052046-2.3587786 2.34981-2.3587786z" fill="#23263c" opacity=".088486"/><g transform="matrix(.5591929 -.82903757 .82903757 .5591929 -26.879999 86.604832)"><use fill="#000" filter="url(#c)" xlink:href="#b"/><g fill-rule="evenodd"><use fill="url(#a)" xlink:href="#b"/><use fill="#fff" xlink:href="#b"/></g></g><g fill-rule="nonzero" transform="translate(37.052922 45)"><path d="m59.8192105 33.7097368c-19.8805263 1.8442106-39.7586842 7.1471053-59.63842103 15.9063158 8.92657895-16.6018421 9.31657895-33.1010526 1.16842106-49.4960526 19.09973687 8.41578947 38.19947367 13.5102632 57.30157897 15.2818421-2.7678948 6.2068421-2.3778948 12.3102632 1.168421 18.3078947z" fill="#8144e5"/><g fill="#1d594e" transform="translate(13.223684 17.763158)"><path d="m.9331579.10184211c2.05263157.26210526 4.12342105.51157894 6.20921052.74605263.06.52736842.11131579 1.05473684.15394737 1.58052631-1.57105263-.13105263-3.13342105-.26842105-4.68473684-.41052631.16815789 1.77.22815789 3.54.17921052 5.31236842 1.42184211-.01578948 2.85236842-.03078948 4.2931579-.045-.01263158.52421052-.03236842 1.04842105-.06157895 1.57105263-1.44631579.05842105-2.88315789.11842105-4.31289474.18157895-.1618421 2.41184206-.52578947 4.82605266-1.09342105 7.24105266-.51631579.0907894-1.0318421.1815789-1.545.2747368 1.35078948-5.49 1.6381579-10.97526315.86210527-16.45184209z"/><path d="m9.30473684 1.27026316c.74447366-.10657895 1.82842106-.08921053 2.87763156.01815789 1.6263158.1681579 2.7118421.59842106 3.4871053 1.35394737.6276316.6031579.9994737 1.45421053 1.0207895 2.39605263.0339473 1.6081579-.9639474 2.69052632-2.206579 3.18236842-.0015789.0181579-.0015789.03710527-.0031579.05684211.8913158.31736842 1.4139474 1.18421053 1.6239474 2.44263162.2865789 1.6942105.4610526 2.8247368.6742105 3.2628947-.5502631.0726316-1.0997368.1436842-1.65.2171053-.1602631-.3284211-.3055263-1.3673685-.5226316-2.9186843-.2297368-1.71789469-.8478947-2.36842101-2.2073684-2.37315785-.4721053.0181579-.945.03868421-1.4171053.05842106-.0955263 1.96736839-.3039473 3.93473679-.6197368 5.90447369-.52578947.0773684-1.04999999.1555263-1.57421052.2360526.81-4.6128947.98210526-9.22499998.51710526-13.83710524zm1.72499996 6.36236842c.5092106-.00789474 1.0192106-.01578947 1.5307895-.02447369 1.6018421-.03552631 2.6518421-1.00263157 2.6210526-2.43157894-.0371052-1.61447369-1.1952631-2.40868421-2.7907894-2.55947369-.7294737-.05842105-1.2410527-.01815789-1.4771053.04342106.1176316 1.65710526.1563158 3.31421052.1160526 4.97210526z"/><path d="m25.035 8.09368421c-1.5623684.03552632-3.1128947.07421053-4.6547368.11447368-.0126316 1.37368422-.0505264 2.74657891-.1144737 4.11710531 1.7731579-.1744737 3.5542105-.3378948 5.3471052-.4918421.0031579.375.0063158.7492105.0110527 1.1257894-2.3573685.2439474-4.6997369.5092106-7.0263158.7973684.2976316-3.91184206.3378947-7.8315789.1215789-11.75447364 2.1528948.18631579 4.3223684.36078948 6.5068421.52105263.0078948.37894737.0142106.75710527.0181579 1.13605264-1.6531579-.08921053-3.2952631-.18473685-4.9294737-.28657895.0434211 1.20552631.0647369 2.41026316.0678948 3.61421053 1.5371052-.00631579 3.0836842-.01263158 4.6397368-.01657895.0047369.37421052.0078948.74842105.0126316 1.12342105z"/><path d="m33.9331579 7.91289474c-1.5971053.02763158-3.1855263.05842105-4.7644737.09078947.0339474 1.17631579.0805263 2.35184209.1421053 3.52657899 1.8071052-.1389474 3.6236842-.2684211 5.4505263-.3868421.0386842.3236842.0805263.6457894.1247368.9702631-2.3992105.1878947-4.7818421.3994737-7.1486842.6307895-.1247368-3.34105265-.1910526-6.69394738-.1989473-10.05631581 2.1971052.15078948 4.41.2881579 6.6410526.41131579-.0142105.32842106-.0228948.65526316-.0307895.98210527-1.6902631-.06947369-3.3678947-.14368421-5.0376316-.225 0 1.035.0110527 2.06763158.0323685 3.10105263 1.5726315-.00473684 3.1547368-.00947369 4.7494736-.01421053.0094737.32368421.0236842.64736842.0402632.96947369z"/><path d="m36.5518421 11.3163158c-.0694737-.4657895.3576316-.8313158.9947368-.8621053.675-.0339473 1.1581579.2731579 1.2394737.7231579.0789474.4381579-.2913158.8076316-.9805263.8589474-.6710526.0513158-1.1873684-.2636842-1.2536842-.72zm.2328947-1.87184212c-.3071052-2.06131579-.4397368-4.1368421-.4113157-6.22657894.5905263.02921052 1.1826315.05842105 1.7763157.08763158-.2202631 2.03052631-.2510526 4.06026315-.1002631 6.09078947-.4231579.01578947-.8439474.03078947-1.2647369.04815789z"/></g><g fill="#ededed" transform="translate(12.828947 16.184211)"><path d="m.41684211.16184211c2.07078947.32052631 4.15894736.62605263 6.26052631.91263157.07894737.53526316.14684211 1.06894737.20526316 1.60184211-1.57894737-.16973684-3.15-.3481579-4.71078947-.53526316.23289473 1.79289474.35289473 3.58657895.36078947 5.38105263 1.41710526.02289474 2.84368421.045 4.27894737.06631579.00157894.53052632-.00473684 1.06105263-.01973684 1.5931579-1.43842106.02289473-2.8681579.04657894-4.28684211.07105263-.08921053 2.44421052-.38842105 4.88921052-.89605263 7.33657892-.50763158.0789474-1.01289474.1571053-1.51894737.2376316 1.20710526-5.5626316 1.31526316-11.11736842.32684211-16.66499999z"/><path d="m8.86184211 1.55447368c.74289473-.09236842 1.83315789-.04815789 2.88947369.08289474 1.6373684.20526316 2.7394737.6631579 3.5336842 1.44473684.6442105.61973685 1.0302632 1.49131579 1.0673684 2.44736842.0631579 1.62947369-.9205263 2.7031579-2.1497368 3.17763158v.05842106c.8913158.33947368 1.423421 1.22763157 1.6436842 2.51052628.3023684 1.7242106.4792105 2.88.6923684 3.3260527-.5431579.0615789-1.0855263.1247368-1.6271053.1878947-.1618421-.3347368-.3118421-1.3942105-.5439473-2.9747368-.2478948-1.7502632-.8755263-2.41894741-2.2278948-2.45447373-.4705263.00947369-.9386842.0181579-1.4076315.02763158-.0568421 1.99342105-.2297369 3.98763155-.5178948 5.98263155-.51789471.0663158-1.03499997.1342106-1.54973682.2036842.73421053-4.6728947.80052632-9.34657891.19736843-14.02026312zm1.89078949 6.48078948c.5076316.00315789 1.0160526.00631579 1.5252631.00947368 1.5955264-.00157895 2.6273685-.95921052 2.5697369-2.40710526-.0663158-1.63578947-1.2473684-2.46078947-2.8507895-2.65184211-.7310526-.07421052-1.2457895-.04815789-1.4802632.01105264.1618422 1.67842105.24 3.35921052.2360527 5.03842105z"/><path d="m24.705 8.77342105c-1.5544737.01105263-3.0978947.02289474-4.6334211.03552632-.0015789 1.39263153-.0323684 2.78289473-.0923684 4.17236843 1.7518421-.1452632 3.5139474-.2818421 5.2871053-.4113158.0015789.3805263.0015789.7602632.0031579 1.1392105-2.3297369.2131579-4.6413158.4444737-6.9355263.6939474.285-3.9639474.285-7.93500001.0015789-11.91157895 2.1663158.23131579 4.3468421.44447368 6.5439474.64263158.0078947.38210526.0165789.76657894.0244737 1.15026315-1.6578948-.1168421-3.3063158-.24236842-4.9452632-.375.0584211 1.22131579.0939474 2.44105264.1081579 3.66236843 1.5307895.02131578 3.0734211.04342105 4.6255263.06315789.0047369.37973684.0078948.75947368.0126316 1.13842105z"/><path d="m33.5621053 8.71657895c-1.59.00789473-3.1721053.01815789-4.741579.02763158.0228948 1.19210526.0584211 2.38421057.105 3.57236837 1.7889474-.1168421 3.5881579-.2265789 5.3984211-.3252631.0307894.3268421.0647368.6536842.1018421.9821053-2.3731579.165-4.7289474.3481578-7.0681579.5502631-.0860527-3.3860526-.1389474-6.78157894-.1555263-10.18736841 2.2081579.18631579 4.4297368.35605263 6.6686842.51-.0157895.33157895-.0292106.66315789-.0402632.99473684-1.693421-.09078947-3.375-.18947368-5.0486842-.29605263-.0015789 1.04684211.0047368 2.09368421.0197368 3.13973684 1.5678948.01657895 3.1452632.03394737 4.7352632.04973684.0047368.32684211.0142105.65526316.0252632.98210527z"/><path d="m36.0892105 12.1863158c-.0552631-.4736842.375-.8360526 1.006579-.8621053.6710526-.0260526 1.1392105.285 1.2071052.7413158.0663158.4452632-.3118421.8139474-.9931579.8605263-.6607894.0434211-1.1652631-.2802631-1.2205263-.7397368zm.2763158-1.8907895c-.2557895-2.08657893-.3497368-4.18657893-.2944737-6.30157893.5936842.03710526 1.1873685.07421052 1.7826316.10973684-.2557895 2.05263158-.33 4.10447368-.2313158 6.15710529-.42.0118421-.8392105.0221052-1.2568421.0347368z"/></g></g></g></svg>