<svg height="193" viewBox="0 0 192 193" width="192" xmlns="http://www.w3.org/2000/svg" xmlns:xlink="http://www.w3.org/1999/xlink"><defs><linearGradient id="a" x1="50%" x2="50%" y1="0%" y2="100%"><stop offset="0" stop-color="#84f1ff"/><stop offset="1" stop-color="#4ddffe"/></linearGradient><path id="b" d="m41.4823502 32.5959762c-9.2761038 7.7634022-22.8973368 10.135387-24.3255543 26.9696291-1.4262494 16.8090343 6.9903346 34.1743704 20.6488454 42.2447647-.9115444.057314 2.0285422 2.227317 8.8202598 6.510006 6.0834192 3.835767 13.1429744 6.337209 20.8027746 7.051426 25.8636688 2.410973 48.7994923-16.4572474 51.3438553-42.1816744 2.549987-25.8053717-16.638171-48.9871851-42.5541327-51.4032002-13.0808414-1.219491-25.4129931 3.0058746-34.7360481 10.8090488z"/><filter id="c" height="173.4%" width="167.6%" x="-33.8%" y="-27.1%"><feOffset dx="0" dy="9" in="SourceAlpha" result="shadowOffsetOuter1"/><feGaussianBlur in="shadowOffsetOuter1" result="shadowBlurOuter1" stdDeviation="10"/><feColorMatrix in="shadowBlurOuter1" type="matrix" values="0 0 0 0 0.133333333   0 0 0 0 0.160784314   0 0 0 0 0.223529412  0 0 0 0.1 0"/></filter><rect id="d" height="27.812571" rx="3.2448" width="38.9376"/><rect id="e" height="27.812571" rx="3.2448" width="38.9376"/><linearGradient id="f" x1="50%" x2="50%" y1="0%" y2="100%"><stop offset="0" stop-color="#fff"/><stop offset="1" stop-color="#f0f0f0"/></linearGradient><path id="g" d="m13.9062857 9.27085713c.5120153 0 .9270857.41507041.9270857.92708567 0 .5120153-.4150704.9270858-.9270857.9270858s-.9270857-.4150705-.9270857-.9270858c0-.51201526.4150704-.92708567.9270857-.92708567zm-3.7083429 0c.5120153 0 .9270858.41507041.9270858.92708567 0 .5120153-.4150705.9270858-.9270858.9270858-.51201526 0-.92708567-.4150705-.92708567-.9270858 0-.51201526.41507041-.92708567.92708567-.92708567zm-3.70834281 0c.5120153 0 .92708571.41507041.92708571.92708567 0 .5120153-.41507041.9270858-.92708571.9270858s-.92708571-.4150705-.92708571-.9270858c0-.51201526.41507041-.92708567.92708571-.92708567zm-3.70834285 0c.5120153 0 .92708571.41507041.92708571.92708567 0 .5120153-.41507041.9270858-.92708571.9270858s-.92708571-.4150705-.92708571-.9270858c0-.51201526.41507041-.92708567.92708571-.92708567zm1.85417142-1.85417143c.51201531 0 .92708572.41507041.92708572.92708572 0 .5120153-.41507041.92708571-.92708572.92708571-.5120153 0-.92708571-.41507041-.92708571-.92708571 0-.51201531.41507041-.92708572.92708571-.92708572zm3.70834286 0c.5120153 0 .92708571.41507041.92708571.92708572 0 .5120153-.41507041.92708571-.92708571.92708571-.51201531 0-.92708572-.41507041-.92708572-.92708571 0-.51201531.41507041-.92708572.92708572-.92708572zm3.70834288 0c.5120153 0 .9270857.41507041.9270857.92708572 0 .5120153-.4150704.92708571-.9270857.92708571s-.9270857-.41507041-.9270857-.92708571c0-.51201531.4150704-.92708572.9270857-.92708572zm1.8541714-1.85417142c.5120153 0 .9270857.41507041.9270857.92708571s-.4150704.92708571-.9270857.92708571-.9270857-.41507041-.9270857-.92708571.4150704-.92708571.9270857-.92708571zm-3.7083429 0c.5120153 0 .9270858.41507041.9270858.92708571s-.4150705.92708571-.9270858.92708571c-.51201526 0-.92708567-.41507041-.92708567-.92708571s.41507041-.92708571.92708567-.92708571zm-3.70834281 0c.5120153 0 .92708571.41507041.92708571.92708571s-.41507041.92708571-.92708571.92708571-.92708571-.41507041-.92708571-.92708571.41507041-.92708571.92708571-.92708571zm-3.70834285 0c.5120153 0 .92708571.41507041.92708571.92708571s-.41507041.92708571-.92708571.92708571-.92708571-.41507041-.92708571-.92708571.41507041-.92708571.92708571-.92708571zm1.85417142-1.85417143c.51201531 0 .92708572.41507041.92708572.92708571 0 .51201531-.41507041.92708572-.92708572.92708572-.5120153 0-.92708571-.41507041-.92708571-.92708572 0-.5120153.41507041-.92708571.92708571-.92708571zm3.70834286 0c.5120153 0 .92708571.41507041.92708571.92708571 0 .51201531-.41507041.92708572-.92708571.92708572-.51201531 0-.92708572-.41507041-.92708572-.92708572 0-.5120153.41507041-.92708571.92708572-.92708571zm3.70834288 0c.5120153 0 .9270857.41507041.9270857.92708571 0 .51201531-.4150704.92708572-.9270857.92708572s-.9270857-.41507041-.9270857-.92708572c0-.5120153.4150704-.92708571.9270857-.92708571zm-9.27085716-1.85417142c.5120153 0 .92708571.41507041.92708571.92708571s-.41507041.92708571-.92708571.92708571-.92708571-.41507041-.92708571-.92708571.41507041-.92708571.92708571-.92708571zm3.70834285 0c.5120153 0 .92708571.41507041.92708571.92708571s-.41507041.92708571-.92708571.92708571-.92708571-.41507041-.92708571-.92708571.41507041-.92708571.92708571-.92708571zm3.70834281 0c.5120153 0 .9270858.41507041.9270858.92708571s-.4150705.92708571-.9270858.92708571c-.51201526 0-.92708567-.41507041-.92708567-.92708571s.41507041-.92708571.92708567-.92708571zm3.7083429 0c.5120153 0 .9270857.41507041.9270857.92708571s-.4150704.92708571-.9270857.92708571-.9270857-.41507041-.9270857-.92708571.4150704-.92708571.9270857-.92708571z"/><filter id="h" height="121.6%" width="107.7%" x="-3.9%" y="-5.4%"><feOffset dx="0" dy="1" in="SourceAlpha" result="shadowOffsetOuter1"/><feColorMatrix in="shadowOffsetOuter1" type="matrix" values="0 0 0 0 0   0 0 0 0 0   0 0 0 0 0  0 0 0 0.06 0"/></filter><mask id="i" fill="#fff"><use fill="#fff" fill-rule="evenodd" xlink:href="#d"/></mask><mask id="j" fill="#fff"><use fill="#fff" fill-rule="evenodd" xlink:href="#e"/></mask></defs><g fill="none" fill-rule="evenodd" transform="translate(20.947078 23)"><path d="m35.5015911 117.282443c1.2977642 0 2.3498099 1.056061 2.3498099 2.358778 0 1.302718-1.0520457 2.358779-2.3498099 2.358779s-2.3498099-1.056061-2.3498099-2.358779c0-1.302717 1.0520457-2.358778 2.3498099-2.358778zm-14.0988593 0c1.2977642 0 2.3498099 1.056061 2.3498099 2.358778 0 1.302718-1.0520457 2.358779-2.3498099 2.358779s-2.3498099-1.056061-2.3498099-2.358779c0-1.302717 1.0520457-2.358778 2.3498099-2.358778zm42.2965779 0c1.2977642 0 2.3498099 1.056061 2.3498099 2.358778 0 1.302718-1.0520457 2.358779-2.3498099 2.358779-1.2977641 0-2.3498098-1.056061-2.3498098-2.358779 0-1.302717 1.0520457-2.358778 2.3498098-2.358778zm-14.4904943 0c1.2977642 0 2.3498099 1.056061 2.3498099 2.358778 0 1.302718-1.0520457 2.358779-2.3498099 2.358779-1.2977641 0-2.3498098-1.056061-2.3498098-2.358779 0-1.302717 1.0520457-2.358778 2.3498098-2.358778zm-13.7072243-14.152672c1.2977642 0 2.3498099 1.056061 2.3498099 2.358779 0 1.302717-1.0520457 2.358778-2.3498099 2.358778s-2.3498099-1.056061-2.3498099-2.358778c0-1.302718 1.0520457-2.358779 2.3498099-2.358779zm-14.0988593 0c1.2977642 0 2.3498099 1.056061 2.3498099 2.358779 0 1.302717-1.0520457 2.358778-2.3498099 2.358778s-2.3498099-1.056061-2.3498099-2.358778c0-1.302718 1.0520457-2.358779 2.3498099-2.358779zm42.2965779 0c1.2977642 0 2.3498099 1.056061 2.3498099 2.358779 0 1.302717-1.0520457 2.358778-2.3498099 2.358778-1.2977641 0-2.3498098-1.056061-2.3498098-2.358778 0-1.302718 1.0520457-2.358779 2.3498098-2.358779zm-13.7072243 0c1.2977642 0 2.3498099 1.056061 2.3498099 2.358779 0 1.302717-1.0520457 2.358778-2.3498099 2.358778s-2.3498099-1.056061-2.3498099-2.358778c0-1.302718 1.0520457-2.358779 2.3498099-2.358779zm27.8060837-13.759542c1.2977641 0 2.3498098 1.0560612 2.3498098 2.3587786 0 1.3027175-1.0520457 2.3587787-2.3498098 2.3587787-1.2977642 0-2.3498099-1.0560612-2.3498099-2.3587787 0-1.3027174 1.0520457-2.3587786 2.3498099-2.3587786zm41.9049429 0c1.297764 0 2.34981 1.0560612 2.34981 2.3587786 0 1.3027175-1.052046 2.3587787-2.34981 2.3587787s-2.34981-1.0560612-2.34981-2.3587787c0-1.3027174 1.052046-2.3587786 2.34981-2.3587786zm-14.098859 0c1.297764 0 2.34981 1.0560612 2.34981 2.3587786 0 1.3027175-1.052046 2.3587787-2.34981 2.3587787s-2.34981-1.0560612-2.34981-2.3587787c0-1.3027174 1.052046-2.3587786 2.34981-2.3587786zm-70.1026619 0c1.2977642 0 2.3498099 1.0560612 2.3498099 2.3587786 0 1.3027175-1.0520457 2.3587787-2.3498099 2.3587787s-2.3498099-1.0560612-2.3498099-2.3587787c0-1.3027174 1.0520457-2.3587786 2.3498099-2.3587786zm-14.0988593 0c1.2977642 0 2.3498099 1.0560612 2.3498099 2.3587786 0 1.3027175-1.0520457 2.3587787-2.3498099 2.3587787s-2.3498099-1.0560612-2.3498099-2.3587787c0-1.3027174 1.0520457-2.3587786 2.3498099-2.3587786zm42.2965779 0c1.2977642 0 2.3498099 1.0560612 2.3498099 2.3587786 0 1.3027175-1.0520457 2.3587787-2.3498099 2.3587787-1.2977641 0-2.3498098-1.0560612-2.3498098-2.3587787 0-1.3027174 1.0520457-2.3587786 2.3498098-2.3587786zm-14.4904943 0c1.2977642 0 2.3498099 1.0560612 2.3498099 2.3587786 0 1.3027175-1.0520457 2.3587787-2.3498099 2.3587787-1.2977641 0-2.3498098-1.0560612-2.3498098-2.3587787 0-1.3027174 1.0520457-2.3587786 2.3498098-2.3587786zm42.688213 0c1.2977641 0 2.3498099 1.0560612 2.3498099 2.3587786 0 1.3027175-1.0520458 2.3587787-2.3498099 2.3587787-1.2977642 0-2.3498099-1.0560612-2.3498099-2.3587787 0-1.3027174 1.0520457-2.3587786 2.3498099-2.3587786zm0-14.1526717c1.2977641 0 2.3498099 1.0560611 2.3498099 2.3587786 0 1.3027174-1.0520458 2.3587786-2.3498099 2.3587786-1.2977642 0-2.3498099-1.0560612-2.3498099-2.3587786 0-1.3027175 1.0520457-2.3587786 2.3498099-2.3587786zm-14.0988593 0c1.2977641 0 2.3498098 1.0560611 2.3498098 2.3587786 0 1.3027174-1.0520457 2.3587786-2.3498098 2.3587786-1.2977642 0-2.3498099-1.0560612-2.3498099-2.3587786 0-1.3027175 1.0520457-2.3587786 2.3498099-2.3587786zm41.9049429 0c1.297764 0 2.34981 1.0560611 2.34981 2.3587786 0 1.3027174-1.052046 2.3587786-2.34981 2.3587786s-2.34981-1.0560612-2.34981-2.3587786c0-1.3027175 1.052046-2.3587786 2.34981-2.3587786zm-14.098859 0c1.297764 0 2.34981 1.0560611 2.34981 2.3587786 0 1.3027174-1.052046 2.3587786-2.34981 2.3587786s-2.34981-1.0560612-2.34981-2.3587786c0-1.3027175 1.052046-2.3587786 2.34981-2.3587786zm-70.1026619 0c1.2977642 0 2.3498099 1.0560611 2.3498099 2.3587786 0 1.3027174-1.0520457 2.3587786-2.3498099 2.3587786s-2.3498099-1.0560612-2.3498099-2.3587786c0-1.3027175 1.0520457-2.3587786 2.3498099-2.3587786zm-14.0988593 0c1.2977642 0 2.3498099 1.0560611 2.3498099 2.3587786 0 1.3027174-1.0520457 2.3587786-2.3498099 2.3587786s-2.3498099-1.0560612-2.3498099-2.3587786c0-1.3027175 1.0520457-2.3587786 2.3498099-2.3587786zm42.2965779 0c1.2977642 0 2.3498099 1.0560611 2.3498099 2.3587786 0 1.3027174-1.0520457 2.3587786-2.3498099 2.3587786-1.2977641 0-2.3498098-1.0560612-2.3498098-2.3587786 0-1.3027175 1.0520457-2.3587786 2.3498098-2.3587786zm-13.7072243 0c1.2977642 0 2.3498099 1.0560611 2.3498099 2.3587786 0 1.3027174-1.0520457 2.3587786-2.3498099 2.3587786s-2.3498099-1.0560612-2.3498099-2.3587786c0-1.3027175 1.0520457-2.3587786 2.3498099-2.3587786zm-14.4904943-14.1526718c1.2977642 0 2.3498099 1.0560612 2.3498099 2.3587786 0 1.3027175-1.0520457 2.3587786-2.3498099 2.3587786s-2.3498099-1.0560611-2.3498099-2.3587786c0-1.3027174 1.0520457-2.3587786 2.3498099-2.3587786zm-14.0988593 0c1.2977642 0 2.3498099 1.0560612 2.3498099 2.3587786 0 1.3027175-1.0520457 2.3587786-2.3498099 2.3587786s-2.3498099-1.0560611-2.3498099-2.3587786c0-1.3027174 1.0520457-2.3587786 2.3498099-2.3587786zm84.2015212 0c1.297764 0 2.34981 1.0560612 2.34981 2.3587786 0 1.3027175-1.052046 2.3587786-2.34981 2.3587786s-2.34981-1.0560611-2.34981-2.3587786c0-1.3027174 1.052046-2.3587786 2.34981-2.3587786zm-41.9049433 0c1.2977642 0 2.3498099 1.0560612 2.3498099 2.3587786 0 1.3027175-1.0520457 2.3587786-2.3498099 2.3587786-1.2977641 0-2.3498098-1.0560611-2.3498098-2.3587786 0-1.3027174 1.0520457-2.3587786 2.3498098-2.3587786zm56.0038023 0c1.297764 0 2.34981 1.0560612 2.34981 2.3587786 0 1.3027175-1.052046 2.3587786-2.34981 2.3587786s-2.34981-1.0560611-2.34981-2.3587786c0-1.3027174 1.052046-2.3587786 2.34981-2.3587786zm-27.8060836 0c1.2977641 0 2.3498099 1.0560612 2.3498099 2.3587786 0 1.3027175-1.0520458 2.3587786-2.3498099 2.3587786-1.2977642 0-2.3498099-1.0560611-2.3498099-2.3587786 0-1.3027174 1.0520457-2.3587786 2.3498099-2.3587786zm-14.0988593 0c1.2977641 0 2.3498098 1.0560612 2.3498098 2.3587786 0 1.3027175-1.0520457 2.3587786-2.3498098 2.3587786-1.2977642 0-2.3498099-1.0560611-2.3498099-2.3587786 0-1.3027174 1.0520457-2.3587786 2.3498099-2.3587786zm-28.5893537 0c1.2977642 0 2.3498099 1.0560612 2.3498099 2.3587786 0 1.3027175-1.0520457 2.3587786-2.3498099 2.3587786-1.2977641 0-2.3498098-1.0560611-2.3498098-2.3587786 0-1.3027174 1.0520457-2.3587786 2.3498098-2.3587786zm42.688213-14.1526718c1.2977641 0 2.3498099 1.0560612 2.3498099 2.3587787 0 1.3027174-1.0520458 2.3587786-2.3498099 2.3587786-1.2977642 0-2.3498099-1.0560612-2.3498099-2.3587786 0-1.3027175 1.0520457-2.3587787 2.3498099-2.3587787zm-14.0988593 0c1.2977641 0 2.3498098 1.0560612 2.3498098 2.3587787 0 1.3027174-1.0520457 2.3587786-2.3498098 2.3587786-1.2977642 0-2.3498099-1.0560612-2.3498099-2.3587786 0-1.3027175 1.0520457-2.3587787 2.3498099-2.3587787zm41.9049429 0c1.297764 0 2.34981 1.0560612 2.34981 2.3587787 0 1.3027174-1.052046 2.3587786-2.34981 2.3587786s-2.34981-1.0560612-2.34981-2.3587786c0-1.3027175 1.052046-2.3587787 2.34981-2.3587787zm-14.098859 0c1.297764 0 2.34981 1.0560612 2.34981 2.3587787 0 1.3027174-1.052046 2.3587786-2.34981 2.3587786s-2.34981-1.0560612-2.34981-2.3587786c0-1.3027175 1.052046-2.3587787 2.34981-2.3587787zm-41.9049433 0c1.2977642 0 2.3498099 1.0560612 2.3498099 2.3587787 0 1.3027174-1.0520457 2.3587786-2.3498099 2.3587786-1.2977641 0-2.3498098-1.0560612-2.3498098-2.3587786 0-1.3027175 1.0520457-2.3587787 2.3498098-2.3587787zm-13.7072243 0c1.2977642 0 2.3498099 1.0560612 2.3498099 2.3587787 0 1.3027174-1.0520457 2.3587786-2.3498099 2.3587786s-2.3498099-1.0560612-2.3498099-2.3587786c0-1.3027175 1.0520457-2.3587787 2.3498099-2.3587787zm41.904943-13.7595419c1.2977641 0 2.3498099 1.0560611 2.3498099 2.3587786 0 1.3027174-1.0520458 2.3587786-2.3498099 2.3587786-1.2977642 0-2.3498099-1.0560612-2.3498099-2.3587786 0-1.3027175 1.0520457-2.3587786 2.3498099-2.3587786zm-14.0988593 0c1.2977641 0 2.3498098 1.0560611 2.3498098 2.3587786 0 1.3027174-1.0520457 2.3587786-2.3498098 2.3587786-1.2977642 0-2.3498099-1.0560612-2.3498099-2.3587786 0-1.3027175 1.0520457-2.3587786 2.3498099-2.3587786zm41.9049429 0c1.297764 0 2.34981 1.0560611 2.34981 2.3587786 0 1.3027174-1.052046 2.3587786-2.34981 2.3587786s-2.34981-1.0560612-2.34981-2.3587786c0-1.3027175 1.052046-2.3587786 2.34981-2.3587786zm-14.098859 0c1.297764 0 2.34981 1.0560611 2.34981 2.3587786 0 1.3027174-1.052046 2.3587786-2.34981 2.3587786s-2.34981-1.0560612-2.34981-2.3587786c0-1.3027175 1.052046-2.3587786 2.34981-2.3587786zm-13.7072246-14.1526718c1.2977641 0 2.3498099 1.0560612 2.3498099 2.3587786 0 1.3027175-1.0520458 2.3587787-2.3498099 2.3587787-1.2977642 0-2.3498099-1.0560612-2.3498099-2.3587787 0-1.3027174 1.0520457-2.3587786 2.3498099-2.3587786zm-14.0988593 0c1.2977641 0 2.3498098 1.0560612 2.3498098 2.3587786 0 1.3027175-1.0520457 2.3587787-2.3498098 2.3587787-1.2977642 0-2.3498099-1.0560612-2.3498099-2.3587787 0-1.3027174 1.0520457-2.3587786 2.3498099-2.3587786zm41.9049429 0c1.297764 0 2.34981 1.0560612 2.34981 2.3587786 0 1.3027175-1.052046 2.3587787-2.34981 2.3587787s-2.34981-1.0560612-2.34981-2.3587787c0-1.3027174 1.052046-2.3587786 2.34981-2.3587786zm-14.098859 0c1.297764 0 2.34981 1.0560612 2.34981 2.3587786 0 1.3027175-1.052046 2.3587787-2.34981 2.3587787s-2.34981-1.0560612-2.34981-2.3587787c0-1.3027174 1.052046-2.3587786 2.34981-2.3587786z" fill="#23263c" opacity=".088486"/><g transform="matrix(.5591929 -.82903757 .82903757 .5591929 -26.879999 86.604832)"><use fill="#000" filter="url(#c)" xlink:href="#b"/><g fill-rule="evenodd"><use fill="url(#a)" xlink:href="#b"/><use fill="#fff" xlink:href="#b"/></g></g><g transform="matrix(.99254615 .12186934 -.12186934 .99254615 66.141006 56.930139)"><use fill="#fff" xlink:href="#d"/><path d="m0 0h38.9376v27.812571h-38.9376z" fill="#043cae" mask="url(#i)"/><path d="m20.7798972 21.8660456-.3840115 1.3110972.3840115 1.3110972-1.3110972-.3840115-1.3110972.3840115.3840115-1.3110972-.3840115-1.3110972 1.3110972.3840115zm-4.6354286-1.2420593-.3840115 1.3110972.3840115 1.3110972-1.3110972-.3840115-1.3110972.3840115.3840115-1.3110972-.3840115-1.3110972 1.3110972.3840115zm9.2708571 0-.3840115 1.3110972.3840115 1.3110972-1.3110972-.3840115-1.3110972.3840115.3840115-1.3110972-.3840115-1.3110972 1.3110972.3840115zm3.3933692-3.3933692-.3840114 1.3110972.3840114 1.3110971-1.3110971-.3840114-1.3110972.3840114.3840114-1.3110971-.3840114-1.3110972 1.3110972.3840114zm-16.0575955 0-.3840115 1.3110972.3840115 1.3110971-1.3110972-.3840114-1.3110972.3840114.3840115-1.3110971-.3840115-1.3110972 1.3110972.3840114zm17.2996549-4.6354286-.3840115 1.3110972.3840115 1.3110972-1.3110972-.3840115-1.3110972.3840115.3840115-1.3110972-.3840115-1.3110972 1.3110972.3840115zm-18.5417143 0-.3840114 1.3110972.3840114 1.3110972-1.3110972-.3840115-1.31109715.3840115.38401148-1.3110972-.38401148-1.3110972 1.31109715.3840115zm17.2996549-4.63542856-.3840114 1.31109719.3840114 1.31109717-1.3110971-.3840115-1.3110972.3840115.3840114-1.31109717-.3840114-1.31109719 1.3110972.38401148zm-16.0575955 0-.3840115 1.31109719.3840115 1.31109717-1.3110972-.3840115-1.3110972.3840115.3840115-1.31109717-.3840115-1.31109719 1.3110972.38401148zm12.6642263-3.39336922-.3840115 1.31109718.3840115 1.31109719-1.3110972-.38401147-1.3110972.38401147.3840115-1.31109719-.3840115-1.31109718 1.3110972.38401147zm-9.2708571 0-.3840115 1.31109718.3840115 1.31109719-1.3110972-.38401147-1.3110972.38401147.3840115-1.31109719-.3840115-1.31109718 1.3110972.38401147zm4.6354286-1.24205934-.3840115 1.31109718.3840115 1.31109719-1.3110972-.38401147-1.3110972.38401147.3840115-1.31109719-.3840115-1.31109718 1.3110972.38401147z" fill="#ffd429" mask="url(#i)"/></g><g transform="matrix(.9961947 -.08715574 .08715574 .9961947 33.180798 45.353953)"><use fill="#fff" xlink:href="#e"/><path d="m38.9375999 25.9584v1.8541714h-38.9375999v-1.8541714zm0-3.7083429v1.8541714h-38.9375999v-1.8541714zm0-3.7083428v1.8541714h-38.9375999v-1.8541714zm0-3.7083429v1.8541714h-38.9375999v-1.8541714zm0-3.7083428v1.8541714h-38.9375999v-1.8541714zm0-3.7083429v1.85417143h-38.9375999v-1.85417143zm0-3.70834285v1.85417143h-38.9375999v-1.85417143zm0-3.70834285v1.85417143h-38.9375999v-1.85417143z" fill="#d02f44" mask="url(#j)"/><path d="m0 0h16.687543v12.9792h-16.687543z" fill="#46467f" mask="url(#j)"/><g mask="url(#j)"><use fill="#000" filter="url(#h)" xlink:href="#g"/><use fill="url(#f)" fill-rule="evenodd" xlink:href="#g"/></g></g></g></svg>