<svg height="193" viewBox="0 0 192 193" width="192" xmlns="http://www.w3.org/2000/svg" xmlns:xlink="http://www.w3.org/1999/xlink"><defs><linearGradient id="a" x1="50%" x2="50%" y1="0%" y2="100%"><stop offset="0" stop-color="#84f1ff"/><stop offset="1" stop-color="#4ddffe"/></linearGradient><path id="b" d="m41.4823502 32.5959762c-9.2761038 7.7634022-22.8973368 10.135387-24.3255543 26.9696291-1.4262494 16.8090343 6.9903346 34.1743704 20.6488454 42.2447647-.9115444.057314 2.0285422 2.227317 8.8202598 6.510006 6.0834192 3.835767 13.1429744 6.337209 20.8027746 7.051426 25.8636688 2.410973 48.7994923-16.4572474 51.3438553-42.1816744 2.549987-25.8053717-16.638171-48.9871851-42.5541327-51.4032002-13.0808414-1.219491-25.4129931 3.0058746-34.7360481 10.8090488z"/><filter id="c" height="173.4%" width="167.6%" x="-33.8%" y="-27.1%"><feOffset dx="0" dy="9" in="SourceAlpha" result="shadowOffsetOuter1"/><feGaussianBlur in="shadowOffsetOuter1" result="shadowBlurOuter1" stdDeviation="10"/><feColorMatrix in="shadowBlurOuter1" type="matrix" values="0 0 0 0 0.133333333   0 0 0 0 0.160784314   0 0 0 0 0.223529412  0 0 0 0.1 0"/></filter></defs><g fill="none" fill-rule="evenodd" transform="translate(20.947078 23)"><path d="m35.5015911 117.282443c1.2977642 0 2.3498099 1.056061 2.3498099 2.358778 0 1.302718-1.0520457 2.358779-2.3498099 2.358779s-2.3498099-1.056061-2.3498099-2.358779c0-1.302717 1.0520457-2.358778 2.3498099-2.358778zm-14.0988593 0c1.2977642 0 2.3498099 1.056061 2.3498099 2.358778 0 1.302718-1.0520457 2.358779-2.3498099 2.358779s-2.3498099-1.056061-2.3498099-2.358779c0-1.302717 1.0520457-2.358778 2.3498099-2.358778zm42.2965779 0c1.2977642 0 2.3498099 1.056061 2.3498099 2.358778 0 1.302718-1.0520457 2.358779-2.3498099 2.358779-1.2977641 0-2.3498098-1.056061-2.3498098-2.358779 0-1.302717 1.0520457-2.358778 2.3498098-2.358778zm-14.4904943 0c1.2977642 0 2.3498099 1.056061 2.3498099 2.358778 0 1.302718-1.0520457 2.358779-2.3498099 2.358779-1.2977641 0-2.3498098-1.056061-2.3498098-2.358779 0-1.302717 1.0520457-2.358778 2.3498098-2.358778zm-13.7072243-14.152672c1.2977642 0 2.3498099 1.056061 2.3498099 2.358779 0 1.302717-1.0520457 2.358778-2.3498099 2.358778s-2.3498099-1.056061-2.3498099-2.358778c0-1.302718 1.0520457-2.358779 2.3498099-2.358779zm-14.0988593 0c1.2977642 0 2.3498099 1.056061 2.3498099 2.358779 0 1.302717-1.0520457 2.358778-2.3498099 2.358778s-2.3498099-1.056061-2.3498099-2.358778c0-1.302718 1.0520457-2.358779 2.3498099-2.358779zm42.2965779 0c1.2977642 0 2.3498099 1.056061 2.3498099 2.358779 0 1.302717-1.0520457 2.358778-2.3498099 2.358778-1.2977641 0-2.3498098-1.056061-2.3498098-2.358778 0-1.302718 1.0520457-2.358779 2.3498098-2.358779zm-13.7072243 0c1.2977642 0 2.3498099 1.056061 2.3498099 2.358779 0 1.302717-1.0520457 2.358778-2.3498099 2.358778s-2.3498099-1.056061-2.3498099-2.358778c0-1.302718 1.0520457-2.358779 2.3498099-2.358779zm27.8060837-13.759542c1.2977641 0 2.3498098 1.0560612 2.3498098 2.3587786 0 1.3027175-1.0520457 2.3587787-2.3498098 2.3587787-1.2977642 0-2.3498099-1.0560612-2.3498099-2.3587787 0-1.3027174 1.0520457-2.3587786 2.3498099-2.3587786zm41.9049429 0c1.297764 0 2.34981 1.0560612 2.34981 2.3587786 0 1.3027175-1.052046 2.3587787-2.34981 2.3587787s-2.34981-1.0560612-2.34981-2.3587787c0-1.3027174 1.052046-2.3587786 2.34981-2.3587786zm-14.098859 0c1.297764 0 2.34981 1.0560612 2.34981 2.3587786 0 1.3027175-1.052046 2.3587787-2.34981 2.3587787s-2.34981-1.0560612-2.34981-2.3587787c0-1.3027174 1.052046-2.3587786 2.34981-2.3587786zm-70.1026619 0c1.2977642 0 2.3498099 1.0560612 2.3498099 2.3587786 0 1.3027175-1.0520457 2.3587787-2.3498099 2.3587787s-2.3498099-1.0560612-2.3498099-2.3587787c0-1.3027174 1.0520457-2.3587786 2.3498099-2.3587786zm-14.0988593 0c1.2977642 0 2.3498099 1.0560612 2.3498099 2.3587786 0 1.3027175-1.0520457 2.3587787-2.3498099 2.3587787s-2.3498099-1.0560612-2.3498099-2.3587787c0-1.3027174 1.0520457-2.3587786 2.3498099-2.3587786zm42.2965779 0c1.2977642 0 2.3498099 1.0560612 2.3498099 2.3587786 0 1.3027175-1.0520457 2.3587787-2.3498099 2.3587787-1.2977641 0-2.3498098-1.0560612-2.3498098-2.3587787 0-1.3027174 1.0520457-2.3587786 2.3498098-2.3587786zm-14.4904943 0c1.2977642 0 2.3498099 1.0560612 2.3498099 2.3587786 0 1.3027175-1.0520457 2.3587787-2.3498099 2.3587787-1.2977641 0-2.3498098-1.0560612-2.3498098-2.3587787 0-1.3027174 1.0520457-2.3587786 2.3498098-2.3587786zm42.688213 0c1.2977641 0 2.3498099 1.0560612 2.3498099 2.3587786 0 1.3027175-1.0520458 2.3587787-2.3498099 2.3587787-1.2977642 0-2.3498099-1.0560612-2.3498099-2.3587787 0-1.3027174 1.0520457-2.3587786 2.3498099-2.3587786zm0-14.1526717c1.2977641 0 2.3498099 1.0560611 2.3498099 2.3587786 0 1.3027174-1.0520458 2.3587786-2.3498099 2.3587786-1.2977642 0-2.3498099-1.0560612-2.3498099-2.3587786 0-1.3027175 1.0520457-2.3587786 2.3498099-2.3587786zm-14.0988593 0c1.2977641 0 2.3498098 1.0560611 2.3498098 2.3587786 0 1.3027174-1.0520457 2.3587786-2.3498098 2.3587786-1.2977642 0-2.3498099-1.0560612-2.3498099-2.3587786 0-1.3027175 1.0520457-2.3587786 2.3498099-2.3587786zm41.9049429 0c1.297764 0 2.34981 1.0560611 2.34981 2.3587786 0 1.3027174-1.052046 2.3587786-2.34981 2.3587786s-2.34981-1.0560612-2.34981-2.3587786c0-1.3027175 1.052046-2.3587786 2.34981-2.3587786zm-14.098859 0c1.297764 0 2.34981 1.0560611 2.34981 2.3587786 0 1.3027174-1.052046 2.3587786-2.34981 2.3587786s-2.34981-1.0560612-2.34981-2.3587786c0-1.3027175 1.052046-2.3587786 2.34981-2.3587786zm-70.1026619 0c1.2977642 0 2.3498099 1.0560611 2.3498099 2.3587786 0 1.3027174-1.0520457 2.3587786-2.3498099 2.3587786s-2.3498099-1.0560612-2.3498099-2.3587786c0-1.3027175 1.0520457-2.3587786 2.3498099-2.3587786zm-14.0988593 0c1.2977642 0 2.3498099 1.0560611 2.3498099 2.3587786 0 1.3027174-1.0520457 2.3587786-2.3498099 2.3587786s-2.3498099-1.0560612-2.3498099-2.3587786c0-1.3027175 1.0520457-2.3587786 2.3498099-2.3587786zm42.2965779 0c1.2977642 0 2.3498099 1.0560611 2.3498099 2.3587786 0 1.3027174-1.0520457 2.3587786-2.3498099 2.3587786-1.2977641 0-2.3498098-1.0560612-2.3498098-2.3587786 0-1.3027175 1.0520457-2.3587786 2.3498098-2.3587786zm-13.7072243 0c1.2977642 0 2.3498099 1.0560611 2.3498099 2.3587786 0 1.3027174-1.0520457 2.3587786-2.3498099 2.3587786s-2.3498099-1.0560612-2.3498099-2.3587786c0-1.3027175 1.0520457-2.3587786 2.3498099-2.3587786zm-14.4904943-14.1526718c1.2977642 0 2.3498099 1.0560612 2.3498099 2.3587786 0 1.3027175-1.0520457 2.3587786-2.3498099 2.3587786s-2.3498099-1.0560611-2.3498099-2.3587786c0-1.3027174 1.0520457-2.3587786 2.3498099-2.3587786zm-14.0988593 0c1.2977642 0 2.3498099 1.0560612 2.3498099 2.3587786 0 1.3027175-1.0520457 2.3587786-2.3498099 2.3587786s-2.3498099-1.0560611-2.3498099-2.3587786c0-1.3027174 1.0520457-2.3587786 2.3498099-2.3587786zm84.2015212 0c1.297764 0 2.34981 1.0560612 2.34981 2.3587786 0 1.3027175-1.052046 2.3587786-2.34981 2.3587786s-2.34981-1.0560611-2.34981-2.3587786c0-1.3027174 1.052046-2.3587786 2.34981-2.3587786zm-41.9049433 0c1.2977642 0 2.3498099 1.0560612 2.3498099 2.3587786 0 1.3027175-1.0520457 2.3587786-2.3498099 2.3587786-1.2977641 0-2.3498098-1.0560611-2.3498098-2.3587786 0-1.3027174 1.0520457-2.3587786 2.3498098-2.3587786zm56.0038023 0c1.297764 0 2.34981 1.0560612 2.34981 2.3587786 0 1.3027175-1.052046 2.3587786-2.34981 2.3587786s-2.34981-1.0560611-2.34981-2.3587786c0-1.3027174 1.052046-2.3587786 2.34981-2.3587786zm-27.8060836 0c1.2977641 0 2.3498099 1.0560612 2.3498099 2.3587786 0 1.3027175-1.0520458 2.3587786-2.3498099 2.3587786-1.2977642 0-2.3498099-1.0560611-2.3498099-2.3587786 0-1.3027174 1.0520457-2.3587786 2.3498099-2.3587786zm-14.0988593 0c1.2977641 0 2.3498098 1.0560612 2.3498098 2.3587786 0 1.3027175-1.0520457 2.3587786-2.3498098 2.3587786-1.2977642 0-2.3498099-1.0560611-2.3498099-2.3587786 0-1.3027174 1.0520457-2.3587786 2.3498099-2.3587786zm-28.5893537 0c1.2977642 0 2.3498099 1.0560612 2.3498099 2.3587786 0 1.3027175-1.0520457 2.3587786-2.3498099 2.3587786-1.2977641 0-2.3498098-1.0560611-2.3498098-2.3587786 0-1.3027174 1.0520457-2.3587786 2.3498098-2.3587786zm42.688213-14.1526718c1.2977641 0 2.3498099 1.0560612 2.3498099 2.3587787 0 1.3027174-1.0520458 2.3587786-2.3498099 2.3587786-1.2977642 0-2.3498099-1.0560612-2.3498099-2.3587786 0-1.3027175 1.0520457-2.3587787 2.3498099-2.3587787zm-14.0988593 0c1.2977641 0 2.3498098 1.0560612 2.3498098 2.3587787 0 1.3027174-1.0520457 2.3587786-2.3498098 2.3587786-1.2977642 0-2.3498099-1.0560612-2.3498099-2.3587786 0-1.3027175 1.0520457-2.3587787 2.3498099-2.3587787zm41.9049429 0c1.297764 0 2.34981 1.0560612 2.34981 2.3587787 0 1.3027174-1.052046 2.3587786-2.34981 2.3587786s-2.34981-1.0560612-2.34981-2.3587786c0-1.3027175 1.052046-2.3587787 2.34981-2.3587787zm-14.098859 0c1.297764 0 2.34981 1.0560612 2.34981 2.3587787 0 1.3027174-1.052046 2.3587786-2.34981 2.3587786s-2.34981-1.0560612-2.34981-2.3587786c0-1.3027175 1.052046-2.3587787 2.34981-2.3587787zm-41.9049433 0c1.2977642 0 2.3498099 1.0560612 2.3498099 2.3587787 0 1.3027174-1.0520457 2.3587786-2.3498099 2.3587786-1.2977641 0-2.3498098-1.0560612-2.3498098-2.3587786 0-1.3027175 1.0520457-2.3587787 2.3498098-2.3587787zm-13.7072243 0c1.2977642 0 2.3498099 1.0560612 2.3498099 2.3587787 0 1.3027174-1.0520457 2.3587786-2.3498099 2.3587786s-2.3498099-1.0560612-2.3498099-2.3587786c0-1.3027175 1.0520457-2.3587787 2.3498099-2.3587787zm41.904943-13.7595419c1.2977641 0 2.3498099 1.0560611 2.3498099 2.3587786 0 1.3027174-1.0520458 2.3587786-2.3498099 2.3587786-1.2977642 0-2.3498099-1.0560612-2.3498099-2.3587786 0-1.3027175 1.0520457-2.3587786 2.3498099-2.3587786zm-14.0988593 0c1.2977641 0 2.3498098 1.0560611 2.3498098 2.3587786 0 1.3027174-1.0520457 2.3587786-2.3498098 2.3587786-1.2977642 0-2.3498099-1.0560612-2.3498099-2.3587786 0-1.3027175 1.0520457-2.3587786 2.3498099-2.3587786zm41.9049429 0c1.297764 0 2.34981 1.0560611 2.34981 2.3587786 0 1.3027174-1.052046 2.3587786-2.34981 2.3587786s-2.34981-1.0560612-2.34981-2.3587786c0-1.3027175 1.052046-2.3587786 2.34981-2.3587786zm-14.098859 0c1.297764 0 2.34981 1.0560611 2.34981 2.3587786 0 1.3027174-1.052046 2.3587786-2.34981 2.3587786s-2.34981-1.0560612-2.34981-2.3587786c0-1.3027175 1.052046-2.3587786 2.34981-2.3587786zm-13.7072246-14.1526718c1.2977641 0 2.3498099 1.0560612 2.3498099 2.3587786 0 1.3027175-1.0520458 2.3587787-2.3498099 2.3587787-1.2977642 0-2.3498099-1.0560612-2.3498099-2.3587787 0-1.3027174 1.0520457-2.3587786 2.3498099-2.3587786zm-14.0988593 0c1.2977641 0 2.3498098 1.0560612 2.3498098 2.3587786 0 1.3027175-1.0520457 2.3587787-2.3498098 2.3587787-1.2977642 0-2.3498099-1.0560612-2.3498099-2.3587787 0-1.3027174 1.0520457-2.3587786 2.3498099-2.3587786zm41.9049429 0c1.297764 0 2.34981 1.0560612 2.34981 2.3587786 0 1.3027175-1.052046 2.3587787-2.34981 2.3587787s-2.34981-1.0560612-2.34981-2.3587787c0-1.3027174 1.052046-2.3587786 2.34981-2.3587786zm-14.098859 0c1.297764 0 2.34981 1.0560612 2.34981 2.3587786 0 1.3027175-1.052046 2.3587787-2.34981 2.3587787s-2.34981-1.0560612-2.34981-2.3587787c0-1.3027174 1.052046-2.3587786 2.34981-2.3587786z" fill="#23263c" opacity=".088486"/><g transform="matrix(.5591929 -.82903757 .82903757 .5591929 -26.879999 86.604832)"><use fill="#000" filter="url(#c)" xlink:href="#b"/><g fill-rule="evenodd"><use fill="url(#a)" xlink:href="#b"/><use fill="#fff" xlink:href="#b"/></g></g><g fill-rule="nonzero" transform="translate(32.052922 43)"><g fill="#fff" transform="translate(22.022727 14.295455)"><path d="m3.18981818 22.4253182c-.59113636-.2295-1.20390909-.1769546-1.83677273.1537727-.6065909.3183636-.98213636.7889546-1.12354545 1.411-.14218182.6220455.04713636 1.4295455.56640909 2.4209546.51540909.982909 1.06868182 1.5941363 1.65827273 1.8321363.59113636.2372273 1.20081818.1916364 1.82904545-.1375454.64677273-.3392273 1.037-.8121364 1.17068182-1.4187273.13445455-.6058182-.085-1.4542727-.65604545-2.5430455-.48063637-.9164545-1.01536364-1.4898181-1.60804546-1.7185454z"/><path d="m4.3265 11.2176818c.45668182.3384546.89327273.3987273 1.30977273.1808182.27431818-.1452727.46286363-.3655.56254545-.6637727.10122727-.2982728.08963637-.68-.03322727-1.14595457-.12286364-.46595455-.41572727-1.14054546-.87859091-2.02145455-.67768182-1.29277273-1.24254545-2.10413636-1.69459091-2.43409091-.45281818-.33072727-.89790909-.38018182-1.33604545-.14990909-.44663637.23490909-.65140909.63054546-.61277273 1.18922727.03863636.55868182.37940909 1.45118182 1.02231818 2.6775.64909091 1.23868185 1.20313636 2.02763635 1.66059091 2.36763635z"/><path d="m10.3885455.17618182c-.1939546-.10122727-.40259095-.09427273-.62359095.02163636-.22177273.11668182-.34772728.28436364-.3794091.50304546-.04790909.34077272.0734091.78740909.36086364 1.33604545.28745451.54940909.58572731.901.89250001 1.05631818.2009091.10431818.4118636.09736364.6336364-.01854545.2217727-.11590909.3438636-.28513637.3693636-.50690909.0479091-.34-.0734091-.78586364-.3616364-1.33527273-.2851363-.54477273-.5818636-.89713636-.8917272-1.05631818z"/><path d="m20.1681818 1.75563636c-.1985909-.09890909-.408-.09040909-.6297727.0255-.221.11590909-.3446364.28513637-.3701364.50690909-.0471363.34.0741818.78509091.3616364 1.3345.2874545.5494091.5857273.90177273.8925 1.05709091.1939545.10122728.4025909.09272728.6235909-.02318181.221-.11513637.3477273-.28281819.3794091-.50227273.0479091-.34077273-.0734091-.78663637-.3608636-1.33604546-.2882273-.54863636-.5872728-.90331818-.8963637-1.0625z"/></g><path d="m22.3990455 10.5624091 4.1317727-1.96659092c.9226363-.43272727 1.8622727-.85309091 2.8135-1.27809091.5154091-.23104545 1.0331363-.46286363 1.5539545-.69854545l3.6650455-1.59104546c-.272-.26195454-.5857273-.5525-.7209546-.60659091-.2418636.00618182-.9883181.4845-1.4334091.77118182-.7356363.47136364-1.4326363.918-2.1273181.95354546-.7657728.03786363-1.6080455-.38636364-2.4248182-.79745455-.4358182-.21945454-1.1691364-.58959091-1.3700455-.54631818-.0115909.00231818-.1004545.02472727-.2781818.17-.2944091.23877273-.6274545.64754545-.9481364 1.04240909-.5385909.66222727-1.122 1.33218182-1.6899545 1.54777273-.6514091.25036363-1.5369545.11281818-2.3931364-.01777273-.5911363-.09195454-1.4009545-.21636364-1.6428181-.07804545-.2635.29363636-.5710455.95122727-.7905 1.52459091-.3160455.82063636-.615091 1.59490905-1.1328182 2.01604545-.5177273.4211364-1.3368182.5548182-2.2053637.697-.6058181.0981364-1.36.221-1.6242727.4358182-.2148182.2349091-.2588636 1.0524545-.289 1.6505454-.0224091.4288637-.0463636.8654546-.1105 1.2680455.4999546-.2565455 1.0006818-.5169546 1.5006364-.7711818 2.5190909-1.2904546 5.0482272-2.5438182 7.5163182-3.7253182z" fill="#ed5e53"/><path d="m72.0946818 7.37954545s-1.4102273.9945-4.0235909 2.48277273c-.6436818.38636362-1.3793182.77581822-2.1821818 1.19386362-.3995.2101818-.816.4304091-1.2464091.6568182-.4396818.2109545-.8948182.4304091-1.3661818.6568182-.4698182.2248636-.9543182.4574545-1.4535.697-.5076818.2109545-1.0300455.4288636-1.5647727.6521818-.5331819.2248636-1.0810455.4543636-1.6412728.6900455-.5834091.2086363-1.1799545.4195909-1.7896363.6367272-.5965455.2078637-1.2610909.4574546-1.8375455.6436818-.6220454.1862273-1.2587727.3693637-1.9024545.4883637-.6413637.1267273-1.2997273.2163636-1.9148182.2078636-.612.0100455-1.1992727-.1591818-1.3855-.3624091-.0904091-.0973636-.1275-.1645909-.136-.3446363-.0054091-.1761819.0401818-.4226819.1329091-.6861819.2055454-.5362727.5803182-1.1111818 1.0238636-1.6474545.901-1.0779545 2.0639546-2.0554545 3.3227273-2.9294091 1.2108636-.86313635 2.7277273-1.57404545 4.1920454-2.5955909.7255909-.51154545 1.4434546-1.06868182 2.1180455-1.78345455.3322727-.37322727.6653182-.7565.9396364-1.2950909.2650454-.51231819.5161818-1.24022728.3183636-2.09486364-.0888636-.41572727-.3145-.79977273-.5633182-1.08877273-.2503636-.28822727-.5316364-.50304545-.7982273-.65990909-.5385909-.3145-1.0617272-.493-1.5531818-.60427273-.9929545-.23413636-1.9279545-.28668181-2.8490454-.29286363-1.8406364 0-3.6078637.21095454-5.3673637.51-1.7193182.27354545-3.4958182.74568182-5.1695454 1.25877272-.8314546.27277273-1.6613637.54477273-2.4897273.81677273-.8098182.29981818-1.6188636.59809091-2.4240455.89636364-1.6134545.58881818-3.1735909 1.24022727-4.7275454 1.87154545-1.5338636.66531818-3.0491818 1.32368182-4.539 1.97045455-1.4782273.66995454-2.941 1.309-4.3543182 1.97045454-1.4094545.67072728-2.7872273 1.32754544-4.1294545 1.96581814-2.6805909 1.2835-5.1935 2.536091-7.5000909 3.7183637-2.3104546 1.1714545-4.4153637 2.2733636-6.27068186 3.2678636-1.85995455.986-3.47031819 1.8684546-4.79245455 2.601-2.64427273 1.4650909-4.13563636 2.3398182-4.13563636 2.3398182l.08654545.1723182s6.324-2.7632727 15.80845452-6.9081818c2.3707273-1.0285 4.9392728-2.1427728 7.6546364-3.3219546 2.7230909-1.1505909 5.5953182-2.3653182 8.5672273-3.62099998 2.9788636-1.22554546 6.0720909-2.45340909 9.2248181-3.61868182.7897273-.28436364 1.5833182-.57027273 2.3784546-.85618182.799-.25422727 1.6010909-.50922727 2.4031818-.76577273.8044091-.28127272 1.6049546-.43040909 2.4078182-.6490909.4118636-.10586364.7812273-.204 1.2147273-.28359091.4280909-.09040909.8415-.16922728 1.2440909-.23877273 1.6366363-.29286364 3.3065-.49918182 4.9045-.51154546.7951363-.00386363 1.5848636.04868182 2.2579091.204.3430909.06954546.6328636.187.8306818.29827273.1553182.09118182.1993636.15068182.2086363.16536364.0061819-.01313637.0069546.12363636-.1043181.34927273-.0981364.22563636-.3106364.49686363-.5308637.75495454-.4675.52313636-1.0625 1.01922727-1.6860909 1.47977273-1.2417727.92186363-2.7076363 1.64977273-4.1163182 2.68909091-1.3731363.99681818-2.6442727 2.11727277-3.6835909 3.47881817-.5154091.6854091-.9844545 1.4233636-1.2881363 2.3243636-.1390909.459-.2410909.9659091-.187 1.541591.0386363.5702727.3508181 1.2270909.8183181 1.6188636.4597728.3971818.9728637.5872727 1.4318637.6877273.4613182.0942727.8948182.1151363 1.3082273.1058636.8268181-.0200909 1.5748181-.1785 2.291909-.3585455.7201819-.1769545 1.3924546-.4118636 2.0469546-.6483181.6900454-.2673637 1.2487273-.5185 1.8607273-.7704091.5965454-.2495909 1.1807272-.4953182 1.7525454-.7348637.5648637-.2805 1.1165909-.5548181 1.6559546-.8214091.5347272-.2696818 1.0570909-.5316363 1.564-.787409.4899091-.2789546.9651363-.5501819 1.4272272-.8136819.4597728-.2619545.9056364-.5161818 1.3360455-.7619091.4226818-.2557727.8206364-.5223636 1.207-.7665454.7735-.4922273 1.479-.9481364 2.0956364-1.3932273 1.254909-.85309089 2.1852727-1.60109089 2.8258636-2.10027271.6328636-.50768182.9620454-.79281818.9620454-.79281818z" fill="#3a8073"/><path d="m53.4843182 31.1185c.3716818-.3778636.9921818-1.0115 1.0478182-1.2966364-.034-.1390909-.4056819-.7147727-.6266819-1.0601818-.4991818-.7742727-1.0671363-1.6528636-1.1181363-2.5245-.0440455-.7588182.3145-1.4836363.7302273-2.3228182.1908636-.3848181.4945454-.9975909.5640909-1.3329545-.1877728-.1978182-.5640909-.5053636-.8075-.7039546-.7294546-.5996363-1.5601364-1.2788636-1.9101819-2.1821818-.081909-.2109545-.1321363-.4257727-.1622727-.6436818-.5424545.0131364-1.0122727-.0255-1.4766818-.1205454-.7116818-.1553182-1.2912273-.4358182-1.7811364-.8585-.6004091-.5038182-1.0292727-1.3507273-1.0841363-2.1512728-.0703182-.748.0911818-1.3970909.2186818-1.819.1282727-.3809545.2843636-.7194091.4474091-1.0393182-.204-.5355-.3044546-1.1212272-.408-1.7278181-.0502273-.2975-.1259546-.7425909-.2063182-1.0339091-.3276364-.0656818-.8569545-.0981364-1.2054545-.1182273-.9798182-.0602727-1.8259546-.1128182-2.5507728-.58340909-.8136818-.52854546-1.3082272-1.479-1.7463636-2.31663636-.0726364-.13831819-.1645909-.3145-.2573182-.4845-2.6867727.99913636-5.5381364 2.11881818-8.7086364 3.42318185l-8.5595 3.6179091-7.6476818 3.3188636-6.25522725 2.7331364c.23568185.8785909.47522725 1.7873181.28281815 2.5275909-.1769545.6722727-.75649996 1.2626363-1.36849996 1.8854545-.37090909.3786364-.99218182 1.0115-1.04704546 1.2958636.034.1406364.40568182.717091.62590909 1.0617273.49995455.7742727 1.06713637 1.6528637 1.11813637 2.5237273.04404545.7588182-.3145 1.4844091-.73022728 2.3243636-.19086363.3848182-.493.9945-.56486363 1.3314091.18777272.1978182.56486363.5053637.8075.7039546.73022727.5996363 1.56013637 1.2788636 1.91095457 2.1829545.3137272.8044091.1924091 1.6443636.0502272 2.6164546-.0502272.3446363-.1267272.8693181-.1298181 1.203909.2689091.1375455.6900454.3029091.9697727.4126364.9319091.3662727 1.8105.7132273 2.4194091 1.462.6081363.7487727.7680909 1.6791364.9365454 2.6651364.0494546.2975.1259546.7425909.2070909 1.0346818.3268637.0656818.8561819.0973636 1.2046819.1182273.9798181.0602727 1.8267272.1128181 2.5507727.5826363.8129091.5300909 1.3082273 1.479 1.7471364 2.3174091.1475909.2843637.3801818.731.5355.9496818.285909-.0054091.9782727-.1854545 1.4071363-.2975.9071818-.2356818 1.6899546-.4389091 2.4225-.2410909.8438182.2287273 1.5879546.9628182 2.244 1.6095909.2928637.2866819.7804546.7680909.9581818.8391819.2426364-.0046364.9883182-.4837273 1.4341819-.7696364.7356363-.4721364 1.4326363-.9187727 2.1257727-.9535455.7665454-.0394091 1.6103636.3855909 2.4255909.7959091.4365909.2194546 1.1683636.5895909 1.3700454.5455455.0108182-.0023182.102-.0239546.2789546-.1684546.2951818-.2403181.6266818-.6483181.9481364-1.0424091.5401363-.6622272 1.1243181-1.3298636 1.6891818-1.5485454.6514091-.2495909 1.5369545-.1128182 2.3939091.0177727.5911363.0919546 1.4009545.2171364 1.6420454.0772727.0007727-.0007727.0007727-.0007727.0030909-.0015454.2951818-.2403182.5679546-.9504546.7881818-1.5215.3168182-.8214091.615091-1.5949091 1.1328182-2.0168182.5177273-.4203636 1.3368182-.5540454 2.2053637-.6962273.6058181-.0981363 1.36-.2202272 1.6250454-.4358181l.0285909-.0270455c.1854546-.2086364.2295-1.0261818.2604091-1.6235.0455909-.8654545.0927273-1.7595.4690455-2.3467727.3307272-.5084546 1.1034545-.9442728 1.8615-1.3368182.4512727-.2341364.918-.4744546 1.2124091-.7147727.1777272-.1445.2179091-.2295.2217727-.2387728.0834545-.1893181-.1275-.9813636-.2534546-1.4542727-.2356818-.8824545-.4798636-1.7935-.2851363-2.5360909.1769545-.6738182.7565-1.2641818 1.3685-1.887z" fill="#dd4a43"/><g fill="#ededed" transform="translate(9.227273 12.363636)"><path d="m26.1559091 4.675c.8755 1.97045455.2735454 3.40927273-.935 3.94554545-1.1652727.51695455-2.5878636.02859091-3.4386364-1.85068181-.8299091-1.86922728-.2743182-3.37295455.9628182-3.92236364 1.309-.58031818 2.6195455.0425 3.4108182 1.8275zm-3.3853182 1.6065c.5007273 1.20622727 1.3491818 1.91481818 2.1412273 1.56322727.8345454-.37013636.8121363-1.42877272.2627273-2.66590909-.504591-1.13668182-1.2564546-1.93954545-2.1342728-1.54931818-.7920454.35081818-.7943636 1.47204545-.2696818 2.652zm4.1078182 6.3039091 1.2039091-12.10709092.8051818-.35777272-1.2039091 12.10709094zm7.0812727-6.74204546c.8747273 1.97122727.2735455 3.40927272-.9210909 3.93936363-1.1652727.51772723-2.5878636.02936364-3.4316818-1.83445454-.8368636-1.88468182-.2812727-3.38840909.9558636-3.93781818 1.309-.58109091 2.6048637.04790909 3.3969091 1.83290909zm-3.3853182 1.6065c.5154091 1.20004545 1.3777728 1.90168181 2.1551364 1.55704545.8345455-.37013636.8121364-1.42877273.2635-2.66513636-.5045909-1.13668182-1.2564545-1.93877273-2.1342727-1.54931818-.7912728.35081818-.8082728 1.47668181-.2843637 2.65740909z"/><path d="m22.1555 23.2768636c1.4813182 3.3374091.2387727 6.0079546-2.2362727 7.1067728-2.5608182 1.1366818-5.2406364-.0502273-6.5434546-2.9850455-1.3669545-3.0785454-.3477272-5.9430454 2.2416818-7.0928636 2.6481364-1.1745455 5.2607273.0927272 6.5380455 2.9711363zm-7.4537273 3.4989091c.9195455 2.0724546 2.8652728 3.4285909 4.8365 2.5538637 1.9851364-.8816819 2.2965455-3.2060455 1.3198182-5.4075455-.8554091-1.9271818-2.7570909-3.4942727-4.8434545-2.5685454-2.0716819.9187727-2.2579091 3.2933636-1.3128637 5.4222272z"/><path d="m21.6717727 17.8090455 5.2228637-2.3181819.4659545 1.0501364-3.9710454 1.7625909 1.4310909 3.2222727 3.6689091-1.6281363.4597727 1.0362272-3.6689091 1.6281364 1.9480454 4.3875455-1.2518181.5555909z"/><path d="m28.6773182 14.6988182 5.2228636-2.3181818.4659546 1.0501363-3.9710455 1.7625909 1.4310909 3.2222728 3.6689091-1.6281364.4597727 1.0362273-3.6689091 1.6281363 1.9480455 4.3875455-1.2518182.5555909z"/><path d="m10.8056524 19.2222384v-2.734375h1.6484375v-1.2265625h-1.6484375v-7.25781246h-1.1875l-5.125 7.10937496v1.375h4.90625v2.734375zm-1.4296875-3.9609375h-3.5859375l3.5859375-5.0703125zm7.9296875 4.265625c1.4895833 0 2.5625-.7135416 3.21875-2.140625.453125-.9947916.6796875-2.2526041.6796875-3.7734375 0-1.6041666-.25-2.8671875-.75-3.78906246-.6458333-1.19270833-1.6927083-1.7890625-3.140625-1.7890625-1.609375 0-2.7213542.84895834-3.3359375 2.54687496-.328125.9114584-.4921875 2.0026042-.4921875 3.2734375 0 1.640625.2734375 2.9479167.8203125 3.921875.65625 1.1666667 1.65625 1.75 3 1.75zm-.0078125-1.28125c-.90625 0-1.546875-.5286458-1.921875-1.5859375-.2447917-.6927083-.3671875-1.609375-.3671875-2.75 0-1.515625.1914062-2.6627604.5742187-3.4414062.3828125-.77864584.9882813-1.16796876 1.8164063-1.16796876.9010417 0 1.5078125.41015625 1.8203125 1.23046876.3125.8203125.46875 1.8658854.46875 3.1367187 0 1.7604167-.2161458 2.9635417-.6484375 3.609375-.4322917.6458334-1.0130208.96875-1.7421875.96875z" transform="matrix(.89879405 -.43837115 .43837115 .89879405 -4.733913 7.025586)"/></g></g></g></svg>