<svg height="193" viewBox="0 0 192 193" width="192" xmlns="http://www.w3.org/2000/svg" xmlns:xlink="http://www.w3.org/1999/xlink"><defs><linearGradient id="a" x1="50%" x2="50%" y1="0%" y2="100%"><stop offset="0" stop-color="#84f1ff"/><stop offset="1" stop-color="#4ddffe"/></linearGradient><path id="b" d="m41.4823502 32.5959762c-9.2761038 7.7634022-22.8973368 10.135387-24.3255543 26.9696291-1.4262494 16.8090343 6.9903346 34.1743704 20.6488454 42.2447647-.9115444.057314 2.0285422 2.227317 8.8202598 6.510006 6.0834192 3.835767 13.1429744 6.337209 20.8027746 7.051426 25.8636688 2.410973 48.7994923-16.4572474 51.3438553-42.1816744 2.549987-25.8053717-16.638171-48.9871851-42.5541327-51.4032002-13.0808414-1.219491-25.4129931 3.0058746-34.7360481 10.8090488z"/><filter id="c" height="173.4%" width="167.6%" x="-33.8%" y="-27.1%"><feOffset dx="0" dy="9" in="SourceAlpha" result="shadowOffsetOuter1"/><feGaussianBlur in="shadowOffsetOuter1" result="shadowBlurOuter1" stdDeviation="10"/><feColorMatrix in="shadowBlurOuter1" type="matrix" values="0 0 0 0 0.133333333   0 0 0 0 0.160784314   0 0 0 0 0.223529412  0 0 0 0.1 0"/></filter></defs><g fill="none" fill-rule="evenodd" transform="translate(20.947078 23)"><path d="m35.5015911 117.282443c1.2977642 0 2.3498099 1.056061 2.3498099 2.358778 0 1.302718-1.0520457 2.358779-2.3498099 2.358779s-2.3498099-1.056061-2.3498099-2.358779c0-1.302717 1.0520457-2.358778 2.3498099-2.358778zm-14.0988593 0c1.2977642 0 2.3498099 1.056061 2.3498099 2.358778 0 1.302718-1.0520457 2.358779-2.3498099 2.358779s-2.3498099-1.056061-2.3498099-2.358779c0-1.302717 1.0520457-2.358778 2.3498099-2.358778zm42.2965779 0c1.2977642 0 2.3498099 1.056061 2.3498099 2.358778 0 1.302718-1.0520457 2.358779-2.3498099 2.358779-1.2977641 0-2.3498098-1.056061-2.3498098-2.358779 0-1.302717 1.0520457-2.358778 2.3498098-2.358778zm-14.4904943 0c1.2977642 0 2.3498099 1.056061 2.3498099 2.358778 0 1.302718-1.0520457 2.358779-2.3498099 2.358779-1.2977641 0-2.3498098-1.056061-2.3498098-2.358779 0-1.302717 1.0520457-2.358778 2.3498098-2.358778zm-13.7072243-14.152672c1.2977642 0 2.3498099 1.056061 2.3498099 2.358779 0 1.302717-1.0520457 2.358778-2.3498099 2.358778s-2.3498099-1.056061-2.3498099-2.358778c0-1.302718 1.0520457-2.358779 2.3498099-2.358779zm-14.0988593 0c1.2977642 0 2.3498099 1.056061 2.3498099 2.358779 0 1.302717-1.0520457 2.358778-2.3498099 2.358778s-2.3498099-1.056061-2.3498099-2.358778c0-1.302718 1.0520457-2.358779 2.3498099-2.358779zm42.2965779 0c1.2977642 0 2.3498099 1.056061 2.3498099 2.358779 0 1.302717-1.0520457 2.358778-2.3498099 2.358778-1.2977641 0-2.3498098-1.056061-2.3498098-2.358778 0-1.302718 1.0520457-2.358779 2.3498098-2.358779zm-13.7072243 0c1.2977642 0 2.3498099 1.056061 2.3498099 2.358779 0 1.302717-1.0520457 2.358778-2.3498099 2.358778s-2.3498099-1.056061-2.3498099-2.358778c0-1.302718 1.0520457-2.358779 2.3498099-2.358779zm27.8060837-13.759542c1.2977641 0 2.3498098 1.0560612 2.3498098 2.3587786 0 1.3027175-1.0520457 2.3587787-2.3498098 2.3587787-1.2977642 0-2.3498099-1.0560612-2.3498099-2.3587787 0-1.3027174 1.0520457-2.3587786 2.3498099-2.3587786zm41.9049429 0c1.297764 0 2.34981 1.0560612 2.34981 2.3587786 0 1.3027175-1.052046 2.3587787-2.34981 2.3587787s-2.34981-1.0560612-2.34981-2.3587787c0-1.3027174 1.052046-2.3587786 2.34981-2.3587786zm-14.098859 0c1.297764 0 2.34981 1.0560612 2.34981 2.3587786 0 1.3027175-1.052046 2.3587787-2.34981 2.3587787s-2.34981-1.0560612-2.34981-2.3587787c0-1.3027174 1.052046-2.3587786 2.34981-2.3587786zm-70.1026619 0c1.2977642 0 2.3498099 1.0560612 2.3498099 2.3587786 0 1.3027175-1.0520457 2.3587787-2.3498099 2.3587787s-2.3498099-1.0560612-2.3498099-2.3587787c0-1.3027174 1.0520457-2.3587786 2.3498099-2.3587786zm-14.0988593 0c1.2977642 0 2.3498099 1.0560612 2.3498099 2.3587786 0 1.3027175-1.0520457 2.3587787-2.3498099 2.3587787s-2.3498099-1.0560612-2.3498099-2.3587787c0-1.3027174 1.0520457-2.3587786 2.3498099-2.3587786zm42.2965779 0c1.2977642 0 2.3498099 1.0560612 2.3498099 2.3587786 0 1.3027175-1.0520457 2.3587787-2.3498099 2.3587787-1.2977641 0-2.3498098-1.0560612-2.3498098-2.3587787 0-1.3027174 1.0520457-2.3587786 2.3498098-2.3587786zm-14.4904943 0c1.2977642 0 2.3498099 1.0560612 2.3498099 2.3587786 0 1.3027175-1.0520457 2.3587787-2.3498099 2.3587787-1.2977641 0-2.3498098-1.0560612-2.3498098-2.3587787 0-1.3027174 1.0520457-2.3587786 2.3498098-2.3587786zm42.688213 0c1.2977641 0 2.3498099 1.0560612 2.3498099 2.3587786 0 1.3027175-1.0520458 2.3587787-2.3498099 2.3587787-1.2977642 0-2.3498099-1.0560612-2.3498099-2.3587787 0-1.3027174 1.0520457-2.3587786 2.3498099-2.3587786zm0-14.1526717c1.2977641 0 2.3498099 1.0560611 2.3498099 2.3587786 0 1.3027174-1.0520458 2.3587786-2.3498099 2.3587786-1.2977642 0-2.3498099-1.0560612-2.3498099-2.3587786 0-1.3027175 1.0520457-2.3587786 2.3498099-2.3587786zm-14.0988593 0c1.2977641 0 2.3498098 1.0560611 2.3498098 2.3587786 0 1.3027174-1.0520457 2.3587786-2.3498098 2.3587786-1.2977642 0-2.3498099-1.0560612-2.3498099-2.3587786 0-1.3027175 1.0520457-2.3587786 2.3498099-2.3587786zm41.9049429 0c1.297764 0 2.34981 1.0560611 2.34981 2.3587786 0 1.3027174-1.052046 2.3587786-2.34981 2.3587786s-2.34981-1.0560612-2.34981-2.3587786c0-1.3027175 1.052046-2.3587786 2.34981-2.3587786zm-14.098859 0c1.297764 0 2.34981 1.0560611 2.34981 2.3587786 0 1.3027174-1.052046 2.3587786-2.34981 2.3587786s-2.34981-1.0560612-2.34981-2.3587786c0-1.3027175 1.052046-2.3587786 2.34981-2.3587786zm-70.1026619 0c1.2977642 0 2.3498099 1.0560611 2.3498099 2.3587786 0 1.3027174-1.0520457 2.3587786-2.3498099 2.3587786s-2.3498099-1.0560612-2.3498099-2.3587786c0-1.3027175 1.0520457-2.3587786 2.3498099-2.3587786zm-14.0988593 0c1.2977642 0 2.3498099 1.0560611 2.3498099 2.3587786 0 1.3027174-1.0520457 2.3587786-2.3498099 2.3587786s-2.3498099-1.0560612-2.3498099-2.3587786c0-1.3027175 1.0520457-2.3587786 2.3498099-2.3587786zm42.2965779 0c1.2977642 0 2.3498099 1.0560611 2.3498099 2.3587786 0 1.3027174-1.0520457 2.3587786-2.3498099 2.3587786-1.2977641 0-2.3498098-1.0560612-2.3498098-2.3587786 0-1.3027175 1.0520457-2.3587786 2.3498098-2.3587786zm-13.7072243 0c1.2977642 0 2.3498099 1.0560611 2.3498099 2.3587786 0 1.3027174-1.0520457 2.3587786-2.3498099 2.3587786s-2.3498099-1.0560612-2.3498099-2.3587786c0-1.3027175 1.0520457-2.3587786 2.3498099-2.3587786zm-14.4904943-14.1526718c1.2977642 0 2.3498099 1.0560612 2.3498099 2.3587786 0 1.3027175-1.0520457 2.3587786-2.3498099 2.3587786s-2.3498099-1.0560611-2.3498099-2.3587786c0-1.3027174 1.0520457-2.3587786 2.3498099-2.3587786zm-14.0988593 0c1.2977642 0 2.3498099 1.0560612 2.3498099 2.3587786 0 1.3027175-1.0520457 2.3587786-2.3498099 2.3587786s-2.3498099-1.0560611-2.3498099-2.3587786c0-1.3027174 1.0520457-2.3587786 2.3498099-2.3587786zm84.2015212 0c1.297764 0 2.34981 1.0560612 2.34981 2.3587786 0 1.3027175-1.052046 2.3587786-2.34981 2.3587786s-2.34981-1.0560611-2.34981-2.3587786c0-1.3027174 1.052046-2.3587786 2.34981-2.3587786zm-41.9049433 0c1.2977642 0 2.3498099 1.0560612 2.3498099 2.3587786 0 1.3027175-1.0520457 2.3587786-2.3498099 2.3587786-1.2977641 0-2.3498098-1.0560611-2.3498098-2.3587786 0-1.3027174 1.0520457-2.3587786 2.3498098-2.3587786zm56.0038023 0c1.297764 0 2.34981 1.0560612 2.34981 2.3587786 0 1.3027175-1.052046 2.3587786-2.34981 2.3587786s-2.34981-1.0560611-2.34981-2.3587786c0-1.3027174 1.052046-2.3587786 2.34981-2.3587786zm-27.8060836 0c1.2977641 0 2.3498099 1.0560612 2.3498099 2.3587786 0 1.3027175-1.0520458 2.3587786-2.3498099 2.3587786-1.2977642 0-2.3498099-1.0560611-2.3498099-2.3587786 0-1.3027174 1.0520457-2.3587786 2.3498099-2.3587786zm-14.0988593 0c1.2977641 0 2.3498098 1.0560612 2.3498098 2.3587786 0 1.3027175-1.0520457 2.3587786-2.3498098 2.3587786-1.2977642 0-2.3498099-1.0560611-2.3498099-2.3587786 0-1.3027174 1.0520457-2.3587786 2.3498099-2.3587786zm-28.5893537 0c1.2977642 0 2.3498099 1.0560612 2.3498099 2.3587786 0 1.3027175-1.0520457 2.3587786-2.3498099 2.3587786-1.2977641 0-2.3498098-1.0560611-2.3498098-2.3587786 0-1.3027174 1.0520457-2.3587786 2.3498098-2.3587786zm42.688213-14.1526718c1.2977641 0 2.3498099 1.0560612 2.3498099 2.3587787 0 1.3027174-1.0520458 2.3587786-2.3498099 2.3587786-1.2977642 0-2.3498099-1.0560612-2.3498099-2.3587786 0-1.3027175 1.0520457-2.3587787 2.3498099-2.3587787zm-14.0988593 0c1.2977641 0 2.3498098 1.0560612 2.3498098 2.3587787 0 1.3027174-1.0520457 2.3587786-2.3498098 2.3587786-1.2977642 0-2.3498099-1.0560612-2.3498099-2.3587786 0-1.3027175 1.0520457-2.3587787 2.3498099-2.3587787zm41.9049429 0c1.297764 0 2.34981 1.0560612 2.34981 2.3587787 0 1.3027174-1.052046 2.3587786-2.34981 2.3587786s-2.34981-1.0560612-2.34981-2.3587786c0-1.3027175 1.052046-2.3587787 2.34981-2.3587787zm-14.098859 0c1.297764 0 2.34981 1.0560612 2.34981 2.3587787 0 1.3027174-1.052046 2.3587786-2.34981 2.3587786s-2.34981-1.0560612-2.34981-2.3587786c0-1.3027175 1.052046-2.3587787 2.34981-2.3587787zm-41.9049433 0c1.2977642 0 2.3498099 1.0560612 2.3498099 2.3587787 0 1.3027174-1.0520457 2.3587786-2.3498099 2.3587786-1.2977641 0-2.3498098-1.0560612-2.3498098-2.3587786 0-1.3027175 1.0520457-2.3587787 2.3498098-2.3587787zm-13.7072243 0c1.2977642 0 2.3498099 1.0560612 2.3498099 2.3587787 0 1.3027174-1.0520457 2.3587786-2.3498099 2.3587786s-2.3498099-1.0560612-2.3498099-2.3587786c0-1.3027175 1.0520457-2.3587787 2.3498099-2.3587787zm41.904943-13.7595419c1.2977641 0 2.3498099 1.0560611 2.3498099 2.3587786 0 1.3027174-1.0520458 2.3587786-2.3498099 2.3587786-1.2977642 0-2.3498099-1.0560612-2.3498099-2.3587786 0-1.3027175 1.0520457-2.3587786 2.3498099-2.3587786zm-14.0988593 0c1.2977641 0 2.3498098 1.0560611 2.3498098 2.3587786 0 1.3027174-1.0520457 2.3587786-2.3498098 2.3587786-1.2977642 0-2.3498099-1.0560612-2.3498099-2.3587786 0-1.3027175 1.0520457-2.3587786 2.3498099-2.3587786zm41.9049429 0c1.297764 0 2.34981 1.0560611 2.34981 2.3587786 0 1.3027174-1.052046 2.3587786-2.34981 2.3587786s-2.34981-1.0560612-2.34981-2.3587786c0-1.3027175 1.052046-2.3587786 2.34981-2.3587786zm-14.098859 0c1.297764 0 2.34981 1.0560611 2.34981 2.3587786 0 1.3027174-1.052046 2.3587786-2.34981 2.3587786s-2.34981-1.0560612-2.34981-2.3587786c0-1.3027175 1.052046-2.3587786 2.34981-2.3587786zm-13.7072246-14.1526718c1.2977641 0 2.3498099 1.0560612 2.3498099 2.3587786 0 1.3027175-1.0520458 2.3587787-2.3498099 2.3587787-1.2977642 0-2.3498099-1.0560612-2.3498099-2.3587787 0-1.3027174 1.0520457-2.3587786 2.3498099-2.3587786zm-14.0988593 0c1.2977641 0 2.3498098 1.0560612 2.3498098 2.3587786 0 1.3027175-1.0520457 2.3587787-2.3498098 2.3587787-1.2977642 0-2.3498099-1.0560612-2.3498099-2.3587787 0-1.3027174 1.0520457-2.3587786 2.3498099-2.3587786zm41.9049429 0c1.297764 0 2.34981 1.0560612 2.34981 2.3587786 0 1.3027175-1.052046 2.3587787-2.34981 2.3587787s-2.34981-1.0560612-2.34981-2.3587787c0-1.3027174 1.052046-2.3587786 2.34981-2.3587786zm-14.098859 0c1.297764 0 2.34981 1.0560612 2.34981 2.3587786 0 1.3027175-1.052046 2.3587787-2.34981 2.3587787s-2.34981-1.0560612-2.34981-2.3587787c0-1.3027174 1.052046-2.3587786 2.34981-2.3587786z" fill="#23263c" opacity=".088486"/><g transform="matrix(.5591929 -.82903757 .82903757 .5591929 -26.879999 86.604832)"><use fill="#000" filter="url(#c)" xlink:href="#b"/><g fill-rule="evenodd"><use fill="url(#a)" xlink:href="#b"/><use fill="#fff" xlink:href="#b"/></g></g><g transform="translate(37.052922 38)"><path d="m55.523299 59.1249485c0 .5641237-.461031 1.0259793-1.0243299 1.0259793h-53.40206188c-.56412371 0-1.0243299-.4626804-1.0243299-1.0259793v-58.05278355c0-.56412371.46103093-1.02515464 1.0243299-1.02515464h53.40206188c.5641237 0 1.0243299.46185567 1.0243299 1.02515464z" fill="#e3e3e6" fill-rule="nonzero"/><path d="m3.049072 2.966598h49.501031v54.020619h-49.501031z" fill="#f9f9f9" fill-rule="nonzero"/><text fill="#222939" font-family="Avenir-Black, Avenir" font-size="6" font-weight="700"><tspan x="18" y="14">My Brand</tspan></text><circle cx="11" cy="12" fill="#decbff" r="5"/><path d="m16 12c0-2.76142375-2.2385763-5-5-5-2.76142375 0-5 2.23857625-5 5z" fill="#a274ec"/><g fill-rule="nonzero"><g fill="#a274ec"><path d="m9.309278 25.195876h12.106804v2h-12.106804z"/><path d="m9.309278 33.542268h37.106804v2h-37.106804z"/><path d="m9.309278 41.88866h37.106804v2h-37.106804z"/></g><path d="m9.05731959 59.4317526c-.30268041.1096907-.64082474-.0519588-.7472165-.3562887-.10639175-.3059794.05278351-.6408247.35793815-.7480412.30597938-.1072165.64247422.0519587.74886598.3571134.10969072.3035051-.05195877.6391752-.35958763.7472165z" fill="#fff"/></g></g></g></svg>