<svg height="24" viewBox="0 0 24 24" width="24" xmlns="http://www.w3.org/2000/svg"><path d="m1129.40841 404.000484c2.0102.004549 2.47176.022253 3.53836.07092 1.27727.058256 2.14959.26113 2.91288.557795.7891.30662 1.45831.71694 2.12548 1.384055.66711.667163 1.07743 1.336374 1.3841 2.12548.29662.763289.49949 1.635612.55775 2.912872.0584 1.279927.07221 1.68858.07221 4.947608l-.00005.316535c-.00092 2.970657-.01571 3.393763-.07216 4.631026-.05826 1.27726-.26113 2.149583-.55775 2.912871-.30667.789106-.71699 1.458318-1.3841 2.12548-.66717.667116-1.33638 1.077436-2.12548 1.384104-.76329.296617-1.63561.499491-2.91288.557747-1.27992.058399-1.68858.072213-4.94756.072213l-.31654-.000047c-2.9707-.000923-3.3938-.015713-4.63106-.072166-1.27726-.058256-2.14959-.26113-2.91288-.557747-.7891-.306668-1.45831-.716988-2.12548-1.384104-.66711-.667162-1.07743-1.336374-1.38405-2.12548-.29667-.763288-.49954-1.635611-.5578-2.912871-.04866-1.066606-.06637-1.528161-.07092-3.538368v-2.818406c.00455-2.010235.02226-2.471789.07092-3.538395.05826-1.27726.26113-2.149583.5578-2.912872.30662-.789106.71694-1.458317 1.38405-2.12548.66717-.667115 1.33638-1.077435 2.12548-1.384055.76329-.296665 1.63562-.499539 2.91288-.557795 1.0666-.048667 1.52816-.066371 3.53839-.07092zm-.52899 2.161265h-1.76042c-2.40871.002503-2.83002.017615-3.96884.069574-1.16999.05335-1.80538.24884-2.22823.413178-.56013.217688-.95987.477722-1.37976.897664-.41995.419895-.67998.81964-.89767 1.379769-.16434.422847-.35983 1.058238-.41318 2.228227-.05196 1.138816-.06707 1.560132-.06957 3.968835v1.760424c.0025 2.408668.01761 2.829984.06957 3.9688.05335 1.169988.24884 1.805379.41318 2.228227.21769.560129.47777.959874.89767 1.379768.41989.419942.81963.679977 1.37976.897665.42285.164337 1.05824.359827 2.22823.413178 1.26521.057732 1.64466.069974 4.84905.069974 3.20435 0 3.58385-.012242 4.84901-.069974 1.16999-.053351 1.80538-.248841 2.22823-.413178.56013-.217688.95987-.477723 1.37977-.897665.41994-.419894.67997-.819639.89766-1.379768.16434-.422848.35983-1.058239.41318-2.228227.05773-1.265351.06997-1.6449.06997-4.849006 0-3.204154-.01224-3.583702-.06997-4.849053-.05335-1.169989-.24884-1.80538-.41318-2.228227-.21769-.560129-.47772-.959874-.89766-1.379769-.4199-.419942-.81964-.679976-1.37977-.897664-.42285-.164338-1.05824-.359828-2.22823-.413178-1.13882-.051959-1.56013-.067071-3.9688-.069574zm-.88021 3.675283c3.40327 0 6.16214 2.75887 6.16214 6.162182 0 3.403264-2.75887 6.162135-6.16214 6.162135-3.40331 0-6.16218-2.758871-6.16218-6.162135 0-3.403312 2.75887-6.162182 6.16218-6.162182zm0 2.162158c-2.20917 0-4.00002 1.790851-4.00002 4.000024 0 2.209126 1.79085 3.999976 4.00002 3.999976 2.20913 0 3.99998-1.79085 3.99998-3.999976 0-2.209173-1.79085-4.000024-3.99998-4.000024zm6.4056-3.845641c.79529 0 1.44002.644727 1.44002 1.440025 0 .795299-.64473 1.439978-1.44002 1.439978-.79525 0-1.43998-.644679-1.43998-1.439978 0-.795298.64473-1.440025 1.43998-1.440025z" fill="#ccd2e1" fill-rule="evenodd" transform="translate(-1116 -404)"/></svg>