<svg height="23" viewBox="0 0 24 23" width="24" xmlns="http://www.w3.org/2000/svg"><path d="m1217.44831 411.481031v15.518557h-5.14413v-15.518557zm.33881-4.800516c0 1.490067-1.11709 2.682368-2.91077 2.682368h-.03287c-1.72701 0-2.84348-1.192301-2.84348-2.682368 0-1.521585 1.15048-2.680515 2.91025-2.680515 1.75978 0 2.84348 1.15893 2.87687 2.680515zm18.21288 11.421206-.00021 8.897867h-5.14392v-8.302437c0-2.085394-.74438-3.50841-2.60658-3.50841-1.42117 0-2.26767.95932-2.63945 1.885888-.13602.332064-.1694.79473-.1694 1.258528v8.666843h-5.14475s.0678-14.062376 0-15.518557h5.14475v2.198073c.68274-1.056653 1.90554-2.562891 4.63674-2.562891 3.38507 0 5.92282 2.218467 5.92282 6.985096z" fill="#ccd2e1" transform="translate(-1212 -404)"/></svg>