<svg height="25" viewBox="0 0 113 25" width="113" xmlns="http://www.w3.org/2000/svg"><g fill="none" fill-rule="evenodd"><path d="m34.196998 18.8227489c-2.0047499 0-3.8609998-.99-4.5292498-2.5987499l2.3759999-.8662499c.4455.8909999 1.2622499 1.2869999 2.1284999 1.2869999.9652499 0 1.6582499-.495 1.6582499-1.2869999 0-.792-.81675-1.06425-2.2027499-1.5344999-1.8562499-.6435-3.4649998-1.5097499-3.4649998-3.6134998 0-2.30174987 1.9304999-3.4649998 4.0837498-3.4649998 1.6334999 0 3.1184998.74249995 3.8114997 2.05424988l-2.1779998 1.06424993c-.37125-.64349996-1.01475-1.01474994-1.7324999-1.01474994-.76725 0-1.41075.37124998-1.41075 1.18799993 0 .81675.66825 1.0394999 2.1037499 1.5344999 1.6582499.5445 3.6629998 1.3364999 3.6629998 3.6629998 0 2.4502498-2.2027499 3.5887498-4.3064997 3.5887498zm12.8624992-12.0779993c3.1184998 0 5.7419997 2.67299984 5.7419997 6.0389996 0 3.3659998-2.6234999 6.0389997-5.7419997 6.0389997-1.5839999 0-2.8709998-.56925-3.8114998-1.5097499v7.1032495h-2.7719998v-17.44874892h2.7719998v1.28699993c.9405-.94049995 2.2274999-1.50974991 3.8114998-1.50974991zm-.47025 9.5287494c1.9304999 0 3.4649998-1.5344999 3.4649998-3.4897498 0-1.9552498-1.5344999-3.48974975-3.4649998-3.48974975-1.9552499 0-3.5144998 1.53449995-3.5144998 3.48974975 0 1.9552499 1.5592499 3.4897498 3.5144998 3.4897498zm13.7782492 2.5492499c-3.4897498 0-6.1627496-2.6729999-6.1627496-6.0389997 0-3.36599976 2.6729998-6.0389996 6.1627496-6.0389996 3.4402498 0 6.1132496 2.67299984 6.1132496 6.0389996 0 3.3659998-2.6729998 6.0389997-6.1132496 6.0389997zm0-2.5739999c1.8809999 0 3.4402498-1.5344999 3.4402498-3.4649998 0-1.9304998-1.5592499-3.46499976-3.4402498-3.46499976-1.9552499 0-3.4897498 1.53449996-3.4897498 3.46499976 0 1.9304999 1.5344999 3.4649998 3.4897498 3.4649998zm13.6792492 2.5739999c-3.4897498 0-6.1627496-2.6729999-6.1627496-6.0389997 0-3.36599976 2.6729998-6.0389996 6.1627496-6.0389996 2.4997498 0 4.6282497 1.43549991 5.5439997 3.5887498l-2.3759999 1.0394999c-.5445-1.2374999-1.7077499-2.07899985-3.1679998-2.07899985-2.0047499 0-3.4897498 1.50974995-3.4897498 3.48974975 0 1.9799999 1.4849999 3.4897498 3.4897498 3.4897498 1.4602499 0 2.6234998-.8414999 3.1679998-2.0789998l2.3759999 1.0394999c-.91575 2.1532499-3.0442499 3.5887498-5.5439997 3.5887498zm18.1589989-11.85524932-5.3707497 5.81624962 5.3707497 5.8162497h-3.5639998l-4.3559997-4.9499997v4.9499997h-2.7719999v-18.5624989h2.7719999v11.8799993l4.3559997-4.94999972zm12.2684995 5.69249962-.02475.594h-9.4049997c.198 1.9799999 1.6582499 3.2917498 3.4897498 3.2917498 1.287 0 2.4502499-.6434999 3.1184999-1.7572499l2.2275.91575c-.96525 1.9304998-2.9205 3.1184998-5.3212499 3.1184998-3.6382498 0-6.2122496-2.6729999-6.2122496-6.0389997 0-3.36599976 2.6234998-6.0389996 6.1379996-6.0389996 3.3412499 0 5.9399999 2.42549985 5.9894999 5.9152496zm-5.9647499-3.68774973c-1.5839999 0-2.7967498.91574994-3.2669998 2.35124983h6.3854997c-.47025-1.43549989-1.55925-2.35124983-3.1184999-2.35124983zm13.8524989-2.00474989v2.27699987h-2.30175v9.35549945h-2.771999v-9.35549945h-2.3265v-2.27699987h2.3265v-4.18274975h2.771999v4.18274975z" fill="#131a4c"/><path d="m20.104686 1.79999989c1.5725177 0 2.8453126 1.13808593 2.8453126 2.54131732v13.44491479c0 .9096529-.5447015 1.7513198-1.428815 2.2041067l-8.630371 4.4231702c-.8898626.4486528-1.941764.4486528-2.8316266 0l-8.63037101-4.4231702c-.8813763-.4527869-1.42881499-1.2944538-1.42881499-2.2041067v-13.44491479c0-1.40323139 1.27416356-2.54131732 2.84531261-2.54131732zm-8.6296867 4.07177395c-1.1448328 0-2.07290309.92807033-2.07290309 2.07290311 0 1.14483277.92807029 2.07290305 2.07290309 2.07290305s2.0729031-.92807028 2.0729031-2.07290305c0-1.14483278-.9280703-2.07290311-2.0729031-2.07290311z" fill="#8144e5" fill-rule="nonzero"/></g></svg>