<svg height="20" viewBox="0 0 24 20" width="24" xmlns="http://www.w3.org/2000/svg"><path d="m1188 408.367642c-.88185.401589-1.83131.673167-2.82726.79451 1.01708-.624052 1.7975-1.613579 2.16517-2.792343-.95228.577826-2.00458.998194-3.12872 1.223546-.89593-.98086-2.17644-1.593355-3.59359-1.593355-2.71738 0-4.92199 2.260744-4.92199 5.048754 0 .395811.04226.780065.12678 1.149874-4.09227-.210907-7.71967-2.218852-10.14967-5.276996-.42402.748285-.66632 1.616468-.66632 2.54099 0 1.750812.86917 3.296497 2.19053 4.202239-.80578-.024558-1.56647-.254243-2.23138-.62983v.062116c0 2.447093 1.69748 4.488263 3.9514 4.950524-.41275.118454-.84804.177681-1.29741.177681-.31696 0-.62687-.030336-.92693-.089563.62688 2.005056 2.4441 3.465511 4.59941 3.504514-1.68481 1.355002-3.80913 2.162514-6.11517 2.162514-.39725 0-.79028-.023113-1.17485-.069339 2.17926 1.430119 4.76845 2.266522 7.54781 2.266522 9.05793 0 14.00951-7.692308 14.00951-14.364753 0-.219573-.00423-.439147-.01268-.654387.96214-.712171 1.7975-1.600578 2.45536-2.613218" fill="#ccd2e1" fill-rule="evenodd" transform="translate(-1164 -406)"/></svg>