<svg height="135" viewBox="0 0 135 135" width="135" xmlns="http://www.w3.org/2000/svg" xmlns:xlink="http://www.w3.org/1999/xlink"><defs><linearGradient id="a" x1="50%" x2="50%" y1="0%" y2="100%"><stop offset="0" stop-color="#84f1ff"/><stop offset="1" stop-color="#4ddffe"/></linearGradient><path id="b" d="m32.0416359 24.7350579c-6.4568958 5.4508993-15.9383423 7.1163355-16.9324936 18.9361225-.9927815 11.8020879 4.8658211 23.9947707 14.3732159 29.6612175-.6345065.0402423 1.4120244 1.5638609 6.1395925 4.5708558 4.2345369 2.6931982 9.1485411 4.4495292 14.4803628 4.9510009 18.003142 1.6928112 33.9682737-11.5550886 35.7393505-29.6169203 1.7749907-18.1186652-11.5814721-34.3952575-29.6210142-36.0916086-9.1052915-.8562384-17.6894364 2.1105077-24.1790139 7.5893322z"/><filter id="c" height="172.7%" width="167.6%" x="-33.8%" y="-27.3%"><feOffset dx="0" dy="6" in="SourceAlpha" result="shadowOffsetOuter1"/><feGaussianBlur in="shadowOffsetOuter1" result="shadowBlurOuter1" stdDeviation="7"/><feColorMatrix in="shadowBlurOuter1" type="matrix" values="0 0 0 0 0.133333333   0 0 0 0 0.160784314   0 0 0 0 0.223529412  0 0 0 0.1 0"/></filter></defs><g fill="none" fill-rule="evenodd" transform="translate(12 14)"><path d="m16.4486692 98.2824427c1.2977642 0 2.3498099 1.0560612 2.3498099 2.3587783 0 1.302718-1.0520457 2.358779-2.3498099 2.358779s-2.3498099-1.056061-2.3498099-2.358779c0-1.3027171 1.0520457-2.3587783 2.3498099-2.3587783zm-14.09885931 0c1.29776416 0 2.34980988 1.0560612 2.34980988 2.3587783 0 1.302718-1.05204572 2.358779-2.34980988 2.358779-1.29776417 0-2.34980989-1.056061-2.34980989-2.358779 0-1.3027171 1.05204572-2.3587783 2.34980989-2.3587783zm42.29657791 0c1.2977642 0 2.3498099 1.0560612 2.3498099 2.3587783 0 1.302718-1.0520457 2.358779-2.3498099 2.358779-1.2977641 0-2.3498099-1.056061-2.3498099-2.358779 0-1.3027171 1.0520458-2.3587783 2.3498099-2.3587783zm-14.4904943 0c1.2977642 0 2.3498099 1.0560612 2.3498099 2.3587783 0 1.302718-1.0520457 2.358779-2.3498099 2.358779-1.2977641 0-2.3498098-1.056061-2.3498098-2.358779 0-1.3027171 1.0520457-2.3587783 2.3498098-2.3587783zm-13.7072243-14.1526717c1.2977642 0 2.3498099 1.0560612 2.3498099 2.3587786 0 1.3027175-1.0520457 2.3587786-2.3498099 2.3587786s-2.3498099-1.0560611-2.3498099-2.3587786c0-1.3027174 1.0520457-2.3587786 2.3498099-2.3587786zm-14.09885931 0c1.29776416 0 2.34980988 1.0560612 2.34980988 2.3587786 0 1.3027175-1.05204572 2.3587786-2.34980988 2.3587786-1.29776417 0-2.34980989-1.0560611-2.34980989-2.3587786 0-1.3027174 1.05204572-2.3587786 2.34980989-2.3587786zm42.29657791 0c1.2977642 0 2.3498099 1.0560612 2.3498099 2.3587786 0 1.3027175-1.0520457 2.3587786-2.3498099 2.3587786-1.2977641 0-2.3498099-1.0560611-2.3498099-2.3587786 0-1.3027174 1.0520458-2.3587786 2.3498099-2.3587786zm-13.7072243 0c1.2977642 0 2.3498099 1.0560612 2.3498099 2.3587786 0 1.3027175-1.0520457 2.3587786-2.3498099 2.3587786s-2.3498099-1.0560611-2.3498099-2.3587786c0-1.3027174 1.0520457-2.3587786 2.3498099-2.3587786zm27.8060836-13.759542c1.2977642 0 2.3498099 1.0560612 2.3498099 2.3587786 0 1.3027175-1.0520457 2.3587787-2.3498099 2.3587787-1.2977641 0-2.3498098-1.0560612-2.3498098-2.3587787 0-1.3027174 1.0520457-2.3587786 2.3498098-2.3587786zm41.9049429 0c1.297764 0 2.34981 1.0560612 2.34981 2.3587786 0 1.3027175-1.052046 2.3587787-2.34981 2.3587787-1.2977641 0-2.3498098-1.0560612-2.3498098-2.3587787 0-1.3027174 1.0520457-2.3587786 2.3498098-2.3587786zm-14.0988592 0c1.2977642 0 2.3498099 1.0560612 2.3498099 2.3587786 0 1.3027175-1.0520457 2.3587787-2.3498099 2.3587787s-2.3498099-1.0560612-2.3498099-2.3587787c0-1.3027174 1.0520457-2.3587786 2.3498099-2.3587786zm-70.1026616 0c1.2977642 0 2.3498099 1.0560612 2.3498099 2.3587786 0 1.3027175-1.0520457 2.3587787-2.3498099 2.3587787s-2.3498099-1.0560612-2.3498099-2.3587787c0-1.3027174 1.0520457-2.3587786 2.3498099-2.3587786zm-14.09885931 0c1.29776416 0 2.34980988 1.0560612 2.34980988 2.3587786 0 1.3027175-1.05204572 2.3587787-2.34980988 2.3587787-1.29776417 0-2.34980989-1.0560612-2.34980989-2.3587787 0-1.3027174 1.05204572-2.3587786 2.34980989-2.3587786zm42.29657791 0c1.2977642 0 2.3498099 1.0560612 2.3498099 2.3587786 0 1.3027175-1.0520457 2.3587787-2.3498099 2.3587787-1.2977641 0-2.3498099-1.0560612-2.3498099-2.3587787 0-1.3027174 1.0520458-2.3587786 2.3498099-2.3587786zm-14.4904943 0c1.2977642 0 2.3498099 1.0560612 2.3498099 2.3587786 0 1.3027175-1.0520457 2.3587787-2.3498099 2.3587787-1.2977641 0-2.3498098-1.0560612-2.3498098-2.3587787 0-1.3027174 1.0520457-2.3587786 2.3498098-2.3587786zm42.688213 0c1.2977641 0 2.3498098 1.0560612 2.3498098 2.3587786 0 1.3027175-1.0520457 2.3587787-2.3498098 2.3587787-1.2977642 0-2.3498099-1.0560612-2.3498099-2.3587787 0-1.3027174 1.0520457-2.3587786 2.3498099-2.3587786zm0-14.1526717c1.2977641 0 2.3498098 1.0560611 2.3498098 2.3587786 0 1.3027174-1.0520457 2.3587786-2.3498098 2.3587786-1.2977642 0-2.3498099-1.0560612-2.3498099-2.3587786 0-1.3027175 1.0520457-2.3587786 2.3498099-2.3587786zm-14.0988594 0c1.2977642 0 2.3498099 1.0560611 2.3498099 2.3587786 0 1.3027174-1.0520457 2.3587786-2.3498099 2.3587786-1.2977641 0-2.3498098-1.0560612-2.3498098-2.3587786 0-1.3027175 1.0520457-2.3587786 2.3498098-2.3587786zm41.9049429 0c1.297764 0 2.34981 1.0560611 2.34981 2.3587786 0 1.3027174-1.052046 2.3587786-2.34981 2.3587786-1.2977641 0-2.3498098-1.0560612-2.3498098-2.3587786 0-1.3027175 1.0520457-2.3587786 2.3498098-2.3587786zm-14.0988592 0c1.2977642 0 2.3498099 1.0560611 2.3498099 2.3587786 0 1.3027174-1.0520457 2.3587786-2.3498099 2.3587786s-2.3498099-1.0560612-2.3498099-2.3587786c0-1.3027175 1.0520457-2.3587786 2.3498099-2.3587786zm-70.1026616 0c1.2977642 0 2.3498099 1.0560611 2.3498099 2.3587786 0 1.3027174-1.0520457 2.3587786-2.3498099 2.3587786s-2.3498099-1.0560612-2.3498099-2.3587786c0-1.3027175 1.0520457-2.3587786 2.3498099-2.3587786zm-14.09885931 0c1.29776416 0 2.34980988 1.0560611 2.34980988 2.3587786 0 1.3027174-1.05204572 2.3587786-2.34980988 2.3587786-1.29776417 0-2.34980989-1.0560612-2.34980989-2.3587786 0-1.3027175 1.05204572-2.3587786 2.34980989-2.3587786zm42.29657791 0c1.2977642 0 2.3498099 1.0560611 2.3498099 2.3587786 0 1.3027174-1.0520457 2.3587786-2.3498099 2.3587786-1.2977641 0-2.3498099-1.0560612-2.3498099-2.3587786 0-1.3027175 1.0520458-2.3587786 2.3498099-2.3587786zm-13.7072243 0c1.2977642 0 2.3498099 1.0560611 2.3498099 2.3587786 0 1.3027174-1.0520457 2.3587786-2.3498099 2.3587786s-2.3498099-1.0560612-2.3498099-2.3587786c0-1.3027175 1.0520457-2.3587786 2.3498099-2.3587786zm-14.4904943-14.1526718c1.2977642 0 2.3498099 1.0560612 2.3498099 2.3587786 0 1.3027175-1.0520457 2.3587786-2.3498099 2.3587786s-2.3498099-1.0560611-2.3498099-2.3587786c0-1.3027174 1.0520457-2.3587786 2.3498099-2.3587786zm-14.09885931 0c1.29776416 0 2.34980988 1.0560612 2.34980988 2.3587786 0 1.3027175-1.05204572 2.3587786-2.34980988 2.3587786-1.29776417 0-2.34980989-1.0560611-2.34980989-2.3587786 0-1.3027174 1.05204572-2.3587786 2.34980989-2.3587786zm84.20152091 0c1.2977642 0 2.3498099 1.0560612 2.3498099 2.3587786 0 1.3027175-1.0520457 2.3587786-2.3498099 2.3587786s-2.3498099-1.0560611-2.3498099-2.3587786c0-1.3027174 1.0520457-2.3587786 2.3498099-2.3587786zm-41.904943 0c1.2977642 0 2.3498099 1.0560612 2.3498099 2.3587786 0 1.3027175-1.0520457 2.3587786-2.3498099 2.3587786-1.2977641 0-2.3498099-1.0560611-2.3498099-2.3587786 0-1.3027174 1.0520458-2.3587786 2.3498099-2.3587786zm56.0038022 0c1.297764 0 2.34981 1.0560612 2.34981 2.3587786 0 1.3027175-1.052046 2.3587786-2.34981 2.3587786-1.2977641 0-2.3498098-1.0560611-2.3498098-2.3587786 0-1.3027174 1.0520457-2.3587786 2.3498098-2.3587786zm-27.8060835 0c1.2977641 0 2.3498098 1.0560612 2.3498098 2.3587786 0 1.3027175-1.0520457 2.3587786-2.3498098 2.3587786-1.2977642 0-2.3498099-1.0560611-2.3498099-2.3587786 0-1.3027174 1.0520457-2.3587786 2.3498099-2.3587786zm-14.0988594 0c1.2977642 0 2.3498099 1.0560612 2.3498099 2.3587786 0 1.3027175-1.0520457 2.3587786-2.3498099 2.3587786-1.2977641 0-2.3498098-1.0560611-2.3498098-2.3587786 0-1.3027174 1.0520457-2.3587786 2.3498098-2.3587786zm-28.5893536 0c1.2977642 0 2.3498099 1.0560612 2.3498099 2.3587786 0 1.3027175-1.0520457 2.3587786-2.3498099 2.3587786-1.2977641 0-2.3498098-1.0560611-2.3498098-2.3587786 0-1.3027174 1.0520457-2.3587786 2.3498098-2.3587786zm42.688213-14.1526718c1.2977641 0 2.3498098 1.0560612 2.3498098 2.3587787 0 1.3027174-1.0520457 2.3587786-2.3498098 2.3587786-1.2977642 0-2.3498099-1.0560612-2.3498099-2.3587786 0-1.3027175 1.0520457-2.3587787 2.3498099-2.3587787zm-14.0988594 0c1.2977642 0 2.3498099 1.0560612 2.3498099 2.3587787 0 1.3027174-1.0520457 2.3587786-2.3498099 2.3587786-1.2977641 0-2.3498098-1.0560612-2.3498098-2.3587786 0-1.3027175 1.0520457-2.3587787 2.3498098-2.3587787zm41.9049429 0c1.297764 0 2.34981 1.0560612 2.34981 2.3587787 0 1.3027174-1.052046 2.3587786-2.34981 2.3587786-1.2977641 0-2.3498098-1.0560612-2.3498098-2.3587786 0-1.3027175 1.0520457-2.3587787 2.3498098-2.3587787zm-14.0988592 0c1.2977642 0 2.3498099 1.0560612 2.3498099 2.3587787 0 1.3027174-1.0520457 2.3587786-2.3498099 2.3587786s-2.3498099-1.0560612-2.3498099-2.3587786c0-1.3027175 1.0520457-2.3587787 2.3498099-2.3587787zm-41.904943 0c1.2977642 0 2.3498099 1.0560612 2.3498099 2.3587787 0 1.3027174-1.0520457 2.3587786-2.3498099 2.3587786-1.2977641 0-2.3498099-1.0560612-2.3498099-2.3587786 0-1.3027175 1.0520458-2.3587787 2.3498099-2.3587787zm-13.7072243 0c1.2977642 0 2.3498099 1.0560612 2.3498099 2.3587787 0 1.3027174-1.0520457 2.3587786-2.3498099 2.3587786s-2.3498099-1.0560612-2.3498099-2.3587786c0-1.3027175 1.0520457-2.3587787 2.3498099-2.3587787zm41.904943-13.7595419c1.2977641 0 2.3498098 1.0560611 2.3498098 2.3587786 0 1.3027174-1.0520457 2.3587786-2.3498098 2.3587786-1.2977642 0-2.3498099-1.0560612-2.3498099-2.3587786 0-1.3027175 1.0520457-2.3587786 2.3498099-2.3587786zm-14.0988594 0c1.2977642 0 2.3498099 1.0560611 2.3498099 2.3587786 0 1.3027174-1.0520457 2.3587786-2.3498099 2.3587786-1.2977641 0-2.3498098-1.0560612-2.3498098-2.3587786 0-1.3027175 1.0520457-2.3587786 2.3498098-2.3587786zm41.9049429 0c1.297764 0 2.34981 1.0560611 2.34981 2.3587786 0 1.3027174-1.052046 2.3587786-2.34981 2.3587786-1.2977641 0-2.3498098-1.0560612-2.3498098-2.3587786 0-1.3027175 1.0520457-2.3587786 2.3498098-2.3587786zm-14.0988592 0c1.2977642 0 2.3498099 1.0560611 2.3498099 2.3587786 0 1.3027174-1.0520457 2.3587786-2.3498099 2.3587786s-2.3498099-1.0560612-2.3498099-2.3587786c0-1.3027175 1.0520457-2.3587786 2.3498099-2.3587786zm-13.7072243-14.1526718c1.2977641 0 2.3498098 1.05606116 2.3498098 2.35877863 0 1.30271746-1.0520457 2.35877862-2.3498098 2.35877862-1.2977642 0-2.3498099-1.05606116-2.3498099-2.35877862 0-1.30271747 1.0520457-2.35877863 2.3498099-2.35877863zm-14.0988594 0c1.2977642 0 2.3498099 1.05606116 2.3498099 2.35877863 0 1.30271746-1.0520457 2.35877862-2.3498099 2.35877862-1.2977641 0-2.3498098-1.05606116-2.3498098-2.35877862 0-1.30271747 1.0520457-2.35877863 2.3498098-2.35877863zm41.9049429 0c1.297764 0 2.34981 1.05606116 2.34981 2.35877863 0 1.30271746-1.052046 2.35877862-2.34981 2.35877862-1.2977641 0-2.3498098-1.05606116-2.3498098-2.35877862 0-1.30271747 1.0520457-2.35877863 2.3498098-2.35877863zm-14.0988592 0c1.2977642 0 2.3498099 1.05606116 2.3498099 2.35877863 0 1.30271746-1.0520457 2.35877862-2.3498099 2.35877862s-2.3498099-1.05606116-2.3498099-2.35877862c0-1.30271747 1.0520457-2.35877863 2.3498099-2.35877863z" fill="#23263c" opacity=".088486"/><g transform="matrix(.5591929 -.82903757 .82903757 .5591929 -19.19112 63.906752)"><use fill="#000" filter="url(#c)" xlink:href="#b"/><g fill-rule="evenodd"><use fill="url(#a)" xlink:href="#b"/><use fill="#fff" xlink:href="#b"/></g></g><path d="m52.8800711 43.2616148c-.6539148.3737652-.8974132 1.0052132-.8974132 2.7489505 0 0 .3310845-.3492479.8222085-.543886.3581398-.1411001.6640032-.3567531.8405511-.4978532.5525718-.4418135.6383236-1.0102168.6383236-1.9678963 0 0-.9010818-.0265188-1.40367.260685m-3.8780909.4084898c-.5333121.5128639-.6892244 1.330444-.6892244 1.330444l-1.7654784 7.4637958-1.4683277-6.1088344c-.1430725-.6494608-.4007865-1.4520303-.80891-1.9949155-.5195551-.6914906-1.5756321-.7350215-1.6879807-.7350215-.1128072 0-1.1688843.0435309-1.6888979.7350215-.407665.5428852-.665379 1.3454547-.8084515 1.9949155l-1.4683277 6.1088344-1.7659369-7.4637958s-.1554538-.8175801-.6887658-1.330444c-.8648551-.83159-2.1616792-.653964-2.1616792-.653964l3.3810056 13.9483969s1.1152321.0880625 1.6737652-.222658c.7327882-.407289 1.0817567-.7220123 1.5256484-2.6198589.3952838-1.6922007 1.5008859-6.6622271 1.6040632-7.0159781.0513594-.1746239.1160172-.5924203.3975766-.5924203.2870622 0 .3466757.4172961.3966594.5924203.101343.3542514 1.2087794 5.3237774 1.6045217 7.0159781.4438917 1.8978466.7924017 2.2125699 1.5256484 2.6198589.5580746.3107205 1.6733066.222658 1.6733066.222658l3.3810057-13.9483969s-1.2963655-.177626-2.1612206.653964m5.2806603 1.6232017s-.2113988.3572535-.6942686.6514623c-.3095319.1891342-.6071411.3172251-.9263029.4843436-.5346878.2796985-.6795946.5914197-.6795946 1.0667569v.1591129.7345212.0200142.1656175 8.3894526s.853391.1180838 1.4114656-.1926366c.718114-.3992834.8831977-.7845567.8896176-2.5192876v-8.4539984l-.0009171.0005004zm8.4274764 4.7309068 4.2898831-6.9619398s-1.8104178-.3362385-2.7069139.553893c-.5736658.5699044-1.2151994 1.5946315-1.2151994 1.5946315l-1.5783835 2.4827616c-.0765805.1290916-.1770064.2696914-.3370458.2696914-.1600395 0-.2600069-.1405998-.3365873-.2696914l-1.5783835-2.4827616s-.6415336-1.0247271-1.2151994-1.5946315c-.8964961-.8901315-2.7069139-.553893-2.7069139-.553893l4.2894245 6.9619398-4.2784189 6.9404245s1.8856225.2601846 2.7821187-.6309477c.5736658-.569404 1.128989-1.4960615 1.128989-1.4960615l1.5783835-2.4822613c.0765804-.1295919.1765478-.2696913.3365873-.2696913.1600394 0 .2604653.1400994.3370458.2696913l1.5783835 2.4822613s.5874228.9266575 1.1610886 1.4960615c.8969547.8911323 2.7495606.6309477 2.7495606.6309477z" fill="#000" fill-rule="nonzero"/></g></svg>