<svg height="135" viewBox="0 0 135 135" width="135" xmlns="http://www.w3.org/2000/svg" xmlns:xlink="http://www.w3.org/1999/xlink"><defs><linearGradient id="a" x1="50%" x2="50%" y1="0%" y2="100%"><stop offset="0" stop-color="#84f1ff"/><stop offset="1" stop-color="#4ddffe"/></linearGradient><path id="b" d="m33.0416359 24.7350579c-6.4568958 5.4508993-15.9383423 7.1163355-16.9324936 18.9361225-.9927815 11.8020879 4.8658211 23.9947707 14.3732159 29.6612175-.6345065.0402423 1.4120244 1.5638609 6.1395925 4.5708558 4.2345369 2.6931982 9.1485411 4.4495292 14.4803628 4.9510009 18.003142 1.6928112 33.9682737-11.5550886 35.7393505-29.6169203 1.7749907-18.1186652-11.5814721-34.3952575-29.6210142-36.0916086-9.1052915-.8562384-17.6894364 2.1105077-24.1790139 7.5893322z"/><filter id="c" height="172.7%" width="167.6%" x="-33.8%" y="-27.3%"><feOffset dx="0" dy="6" in="SourceAlpha" result="shadowOffsetOuter1"/><feGaussianBlur in="shadowOffsetOuter1" result="shadowBlurOuter1" stdDeviation="7"/><feColorMatrix in="shadowBlurOuter1" type="matrix" values="0 0 0 0 0.133333333   0 0 0 0 0.160784314   0 0 0 0 0.223529412  0 0 0 0.1 0"/></filter></defs><g fill="none" fill-rule="evenodd" transform="translate(11 14)"><path d="m16.4486692 98.2824427c1.2977642 0 2.3498099 1.0560612 2.3498099 2.3587783 0 1.302718-1.0520457 2.358779-2.3498099 2.358779s-2.3498099-1.056061-2.3498099-2.358779c0-1.3027171 1.0520457-2.3587783 2.3498099-2.3587783zm-14.09885931 0c1.29776416 0 2.34980988 1.0560612 2.34980988 2.3587783 0 1.302718-1.05204572 2.358779-2.34980988 2.358779-1.29776417 0-2.34980989-1.056061-2.34980989-2.358779 0-1.3027171 1.05204572-2.3587783 2.34980989-2.3587783zm42.29657791 0c1.2977642 0 2.3498099 1.0560612 2.3498099 2.3587783 0 1.302718-1.0520457 2.358779-2.3498099 2.358779-1.2977641 0-2.3498099-1.056061-2.3498099-2.358779 0-1.3027171 1.0520458-2.3587783 2.3498099-2.3587783zm-14.4904943 0c1.2977642 0 2.3498099 1.0560612 2.3498099 2.3587783 0 1.302718-1.0520457 2.358779-2.3498099 2.358779-1.2977641 0-2.3498098-1.056061-2.3498098-2.358779 0-1.3027171 1.0520457-2.3587783 2.3498098-2.3587783zm-13.7072243-14.1526717c1.2977642 0 2.3498099 1.0560612 2.3498099 2.3587786 0 1.3027175-1.0520457 2.3587786-2.3498099 2.3587786s-2.3498099-1.0560611-2.3498099-2.3587786c0-1.3027174 1.0520457-2.3587786 2.3498099-2.3587786zm-14.09885931 0c1.29776416 0 2.34980988 1.0560612 2.34980988 2.3587786 0 1.3027175-1.05204572 2.3587786-2.34980988 2.3587786-1.29776417 0-2.34980989-1.0560611-2.34980989-2.3587786 0-1.3027174 1.05204572-2.3587786 2.34980989-2.3587786zm42.29657791 0c1.2977642 0 2.3498099 1.0560612 2.3498099 2.3587786 0 1.3027175-1.0520457 2.3587786-2.3498099 2.3587786-1.2977641 0-2.3498099-1.0560611-2.3498099-2.3587786 0-1.3027174 1.0520458-2.3587786 2.3498099-2.3587786zm-13.7072243 0c1.2977642 0 2.3498099 1.0560612 2.3498099 2.3587786 0 1.3027175-1.0520457 2.3587786-2.3498099 2.3587786s-2.3498099-1.0560611-2.3498099-2.3587786c0-1.3027174 1.0520457-2.3587786 2.3498099-2.3587786zm27.8060836-13.759542c1.2977642 0 2.3498099 1.0560612 2.3498099 2.3587786 0 1.3027175-1.0520457 2.3587787-2.3498099 2.3587787-1.2977641 0-2.3498098-1.0560612-2.3498098-2.3587787 0-1.3027174 1.0520457-2.3587786 2.3498098-2.3587786zm41.9049429 0c1.297764 0 2.34981 1.0560612 2.34981 2.3587786 0 1.3027175-1.052046 2.3587787-2.34981 2.3587787-1.2977641 0-2.3498098-1.0560612-2.3498098-2.3587787 0-1.3027174 1.0520457-2.3587786 2.3498098-2.3587786zm-14.0988592 0c1.2977642 0 2.3498099 1.0560612 2.3498099 2.3587786 0 1.3027175-1.0520457 2.3587787-2.3498099 2.3587787s-2.3498099-1.0560612-2.3498099-2.3587787c0-1.3027174 1.0520457-2.3587786 2.3498099-2.3587786zm-70.1026616 0c1.2977642 0 2.3498099 1.0560612 2.3498099 2.3587786 0 1.3027175-1.0520457 2.3587787-2.3498099 2.3587787s-2.3498099-1.0560612-2.3498099-2.3587787c0-1.3027174 1.0520457-2.3587786 2.3498099-2.3587786zm-14.09885931 0c1.29776416 0 2.34980988 1.0560612 2.34980988 2.3587786 0 1.3027175-1.05204572 2.3587787-2.34980988 2.3587787-1.29776417 0-2.34980989-1.0560612-2.34980989-2.3587787 0-1.3027174 1.05204572-2.3587786 2.34980989-2.3587786zm42.29657791 0c1.2977642 0 2.3498099 1.0560612 2.3498099 2.3587786 0 1.3027175-1.0520457 2.3587787-2.3498099 2.3587787-1.2977641 0-2.3498099-1.0560612-2.3498099-2.3587787 0-1.3027174 1.0520458-2.3587786 2.3498099-2.3587786zm-14.4904943 0c1.2977642 0 2.3498099 1.0560612 2.3498099 2.3587786 0 1.3027175-1.0520457 2.3587787-2.3498099 2.3587787-1.2977641 0-2.3498098-1.0560612-2.3498098-2.3587787 0-1.3027174 1.0520457-2.3587786 2.3498098-2.3587786zm42.688213 0c1.2977641 0 2.3498098 1.0560612 2.3498098 2.3587786 0 1.3027175-1.0520457 2.3587787-2.3498098 2.3587787-1.2977642 0-2.3498099-1.0560612-2.3498099-2.3587787 0-1.3027174 1.0520457-2.3587786 2.3498099-2.3587786zm0-14.1526717c1.2977641 0 2.3498098 1.0560611 2.3498098 2.3587786 0 1.3027174-1.0520457 2.3587786-2.3498098 2.3587786-1.2977642 0-2.3498099-1.0560612-2.3498099-2.3587786 0-1.3027175 1.0520457-2.3587786 2.3498099-2.3587786zm-14.0988594 0c1.2977642 0 2.3498099 1.0560611 2.3498099 2.3587786 0 1.3027174-1.0520457 2.3587786-2.3498099 2.3587786-1.2977641 0-2.3498098-1.0560612-2.3498098-2.3587786 0-1.3027175 1.0520457-2.3587786 2.3498098-2.3587786zm41.9049429 0c1.297764 0 2.34981 1.0560611 2.34981 2.3587786 0 1.3027174-1.052046 2.3587786-2.34981 2.3587786-1.2977641 0-2.3498098-1.0560612-2.3498098-2.3587786 0-1.3027175 1.0520457-2.3587786 2.3498098-2.3587786zm-14.0988592 0c1.2977642 0 2.3498099 1.0560611 2.3498099 2.3587786 0 1.3027174-1.0520457 2.3587786-2.3498099 2.3587786s-2.3498099-1.0560612-2.3498099-2.3587786c0-1.3027175 1.0520457-2.3587786 2.3498099-2.3587786zm-70.1026616 0c1.2977642 0 2.3498099 1.0560611 2.3498099 2.3587786 0 1.3027174-1.0520457 2.3587786-2.3498099 2.3587786s-2.3498099-1.0560612-2.3498099-2.3587786c0-1.3027175 1.0520457-2.3587786 2.3498099-2.3587786zm-14.09885931 0c1.29776416 0 2.34980988 1.0560611 2.34980988 2.3587786 0 1.3027174-1.05204572 2.3587786-2.34980988 2.3587786-1.29776417 0-2.34980989-1.0560612-2.34980989-2.3587786 0-1.3027175 1.05204572-2.3587786 2.34980989-2.3587786zm42.29657791 0c1.2977642 0 2.3498099 1.0560611 2.3498099 2.3587786 0 1.3027174-1.0520457 2.3587786-2.3498099 2.3587786-1.2977641 0-2.3498099-1.0560612-2.3498099-2.3587786 0-1.3027175 1.0520458-2.3587786 2.3498099-2.3587786zm-13.7072243 0c1.2977642 0 2.3498099 1.0560611 2.3498099 2.3587786 0 1.3027174-1.0520457 2.3587786-2.3498099 2.3587786s-2.3498099-1.0560612-2.3498099-2.3587786c0-1.3027175 1.0520457-2.3587786 2.3498099-2.3587786zm-14.4904943-14.1526718c1.2977642 0 2.3498099 1.0560612 2.3498099 2.3587786 0 1.3027175-1.0520457 2.3587786-2.3498099 2.3587786s-2.3498099-1.0560611-2.3498099-2.3587786c0-1.3027174 1.0520457-2.3587786 2.3498099-2.3587786zm-14.09885931 0c1.29776416 0 2.34980988 1.0560612 2.34980988 2.3587786 0 1.3027175-1.05204572 2.3587786-2.34980988 2.3587786-1.29776417 0-2.34980989-1.0560611-2.34980989-2.3587786 0-1.3027174 1.05204572-2.3587786 2.34980989-2.3587786zm84.20152091 0c1.2977642 0 2.3498099 1.0560612 2.3498099 2.3587786 0 1.3027175-1.0520457 2.3587786-2.3498099 2.3587786s-2.3498099-1.0560611-2.3498099-2.3587786c0-1.3027174 1.0520457-2.3587786 2.3498099-2.3587786zm-41.904943 0c1.2977642 0 2.3498099 1.0560612 2.3498099 2.3587786 0 1.3027175-1.0520457 2.3587786-2.3498099 2.3587786-1.2977641 0-2.3498099-1.0560611-2.3498099-2.3587786 0-1.3027174 1.0520458-2.3587786 2.3498099-2.3587786zm56.0038022 0c1.297764 0 2.34981 1.0560612 2.34981 2.3587786 0 1.3027175-1.052046 2.3587786-2.34981 2.3587786-1.2977641 0-2.3498098-1.0560611-2.3498098-2.3587786 0-1.3027174 1.0520457-2.3587786 2.3498098-2.3587786zm-27.8060835 0c1.2977641 0 2.3498098 1.0560612 2.3498098 2.3587786 0 1.3027175-1.0520457 2.3587786-2.3498098 2.3587786-1.2977642 0-2.3498099-1.0560611-2.3498099-2.3587786 0-1.3027174 1.0520457-2.3587786 2.3498099-2.3587786zm-14.0988594 0c1.2977642 0 2.3498099 1.0560612 2.3498099 2.3587786 0 1.3027175-1.0520457 2.3587786-2.3498099 2.3587786-1.2977641 0-2.3498098-1.0560611-2.3498098-2.3587786 0-1.3027174 1.0520457-2.3587786 2.3498098-2.3587786zm-28.5893536 0c1.2977642 0 2.3498099 1.0560612 2.3498099 2.3587786 0 1.3027175-1.0520457 2.3587786-2.3498099 2.3587786-1.2977641 0-2.3498098-1.0560611-2.3498098-2.3587786 0-1.3027174 1.0520457-2.3587786 2.3498098-2.3587786zm42.688213-14.1526718c1.2977641 0 2.3498098 1.0560612 2.3498098 2.3587787 0 1.3027174-1.0520457 2.3587786-2.3498098 2.3587786-1.2977642 0-2.3498099-1.0560612-2.3498099-2.3587786 0-1.3027175 1.0520457-2.3587787 2.3498099-2.3587787zm-14.0988594 0c1.2977642 0 2.3498099 1.0560612 2.3498099 2.3587787 0 1.3027174-1.0520457 2.3587786-2.3498099 2.3587786-1.2977641 0-2.3498098-1.0560612-2.3498098-2.3587786 0-1.3027175 1.0520457-2.3587787 2.3498098-2.3587787zm41.9049429 0c1.297764 0 2.34981 1.0560612 2.34981 2.3587787 0 1.3027174-1.052046 2.3587786-2.34981 2.3587786-1.2977641 0-2.3498098-1.0560612-2.3498098-2.3587786 0-1.3027175 1.0520457-2.3587787 2.3498098-2.3587787zm-14.0988592 0c1.2977642 0 2.3498099 1.0560612 2.3498099 2.3587787 0 1.3027174-1.0520457 2.3587786-2.3498099 2.3587786s-2.3498099-1.0560612-2.3498099-2.3587786c0-1.3027175 1.0520457-2.3587787 2.3498099-2.3587787zm-41.904943 0c1.2977642 0 2.3498099 1.0560612 2.3498099 2.3587787 0 1.3027174-1.0520457 2.3587786-2.3498099 2.3587786-1.2977641 0-2.3498099-1.0560612-2.3498099-2.3587786 0-1.3027175 1.0520458-2.3587787 2.3498099-2.3587787zm-13.7072243 0c1.2977642 0 2.3498099 1.0560612 2.3498099 2.3587787 0 1.3027174-1.0520457 2.3587786-2.3498099 2.3587786s-2.3498099-1.0560612-2.3498099-2.3587786c0-1.3027175 1.0520457-2.3587787 2.3498099-2.3587787zm41.904943-13.7595419c1.2977641 0 2.3498098 1.0560611 2.3498098 2.3587786 0 1.3027174-1.0520457 2.3587786-2.3498098 2.3587786-1.2977642 0-2.3498099-1.0560612-2.3498099-2.3587786 0-1.3027175 1.0520457-2.3587786 2.3498099-2.3587786zm-14.0988594 0c1.2977642 0 2.3498099 1.0560611 2.3498099 2.3587786 0 1.3027174-1.0520457 2.3587786-2.3498099 2.3587786-1.2977641 0-2.3498098-1.0560612-2.3498098-2.3587786 0-1.3027175 1.0520457-2.3587786 2.3498098-2.3587786zm41.9049429 0c1.297764 0 2.34981 1.0560611 2.34981 2.3587786 0 1.3027174-1.052046 2.3587786-2.34981 2.3587786-1.2977641 0-2.3498098-1.0560612-2.3498098-2.3587786 0-1.3027175 1.0520457-2.3587786 2.3498098-2.3587786zm-14.0988592 0c1.2977642 0 2.3498099 1.0560611 2.3498099 2.3587786 0 1.3027174-1.0520457 2.3587786-2.3498099 2.3587786s-2.3498099-1.0560612-2.3498099-2.3587786c0-1.3027175 1.0520457-2.3587786 2.3498099-2.3587786zm-13.7072243-14.1526718c1.2977641 0 2.3498098 1.05606116 2.3498098 2.35877863 0 1.30271746-1.0520457 2.35877862-2.3498098 2.35877862-1.2977642 0-2.3498099-1.05606116-2.3498099-2.35877862 0-1.30271747 1.0520457-2.35877863 2.3498099-2.35877863zm-14.0988594 0c1.2977642 0 2.3498099 1.05606116 2.3498099 2.35877863 0 1.30271746-1.0520457 2.35877862-2.3498099 2.35877862-1.2977641 0-2.3498098-1.05606116-2.3498098-2.35877862 0-1.30271747 1.0520457-2.35877863 2.3498098-2.35877863zm41.9049429 0c1.297764 0 2.34981 1.05606116 2.34981 2.35877863 0 1.30271746-1.052046 2.35877862-2.34981 2.35877862-1.2977641 0-2.3498098-1.05606116-2.3498098-2.35877862 0-1.30271747 1.0520457-2.35877863 2.3498098-2.35877863zm-14.0988592 0c1.2977642 0 2.3498099 1.05606116 2.3498099 2.35877863 0 1.30271746-1.0520457 2.35877862-2.3498099 2.35877862s-2.3498099-1.05606116-2.3498099-2.35877862c0-1.30271747 1.0520457-2.35877863 2.3498099-2.35877863z" fill="#23263c" opacity=".088486"/><g transform="matrix(.5591929 -.82903757 .82903757 .5591929 -18.750313 64.73579)"><use fill="#000" filter="url(#c)" xlink:href="#b"/><g fill-rule="evenodd"><use fill="url(#a)" xlink:href="#b"/><use fill="#fff" xlink:href="#b"/></g></g><g transform="translate(35 40)"><path d="m3.18045412.02802162h27.89552488c1.7653622 0 3.1944649 1.42910273 3.1944649 3.19446493v10.64821645c0 1.7653622-1.4291027 3.1944649-3.1944649 3.1944649h-10.0037191l1.3730595 3.3625947-6.0386596-3.3625947h-13.21219487c-1.7653622 0-3.19456708-1.4291027-3.19456708-3.1944649v-10.64821645c-.01390866-1.75135139 1.41519407-3.19446493 3.18055627-3.19446493z" fill="#9b5c8f"/><g fill="#fff" fill-rule="nonzero"><path d="m1.70931895 2.92825952c.19615136-.26620541.49037839-.40631352.8826811-.43433515.71455137-.05604324 1.12086489.28021623 1.21894057 1.0087784.43433514 2.92825952.91070272 5.40817308 1.41509192 7.43974073l3.06836762-5.84250826c.28021623-.53241082.6304865-.81262705 1.05081084-.84064867.61647568-.04203243.9947676.35027028 1.1488865 1.17690813.3502703 1.86343788.7986162 3.44665953 1.3310271 4.7916974.364281-3.55874602.9807567-6.12272445 1.849427-7.7059461.2101622-.39230271.5184-.58845407.9247136-.61647569.3222486-.02802162.6164756.07005405.8826811.28021622.2662054.21016217.4063135.47636758.4343351.79861623.0140108.2521946-.0280216.46235677-.1401081.67251893-.5464216 1.0087784-.9947676 2.70408654-1.3590487 5.05790281-.3502703 2.2837622-.4763676 4.0631352-.3923027 5.338119.0280216.3502703-.0280216.6585081-.1681297.9247136-.1681298.3082378-.4203244.4763675-.742573.5043892-.3642811.0280216-.742573-.1401082-1.1068541-.5184001-1.3030054-1.331027-2.33980545-3.3205622-3.09638925-5.96860548-.91070272 1.79338378-1.58322165 3.13842168-2.01755679 4.03511358-.82663786 1.5832217-1.52717841 2.3958487-2.11563248 2.4378811-.3782919.0280217-.70054055-.294227-.98075677-.9667459-.71455137-1.8354163-1.48514598-5.38015148-2.31178383-10.63420564-.04203244-.36428109.02802162-.68652974.22417297-.93872434z"/><path d="m31.8325628 5.12795686c-.5043892-.8826811-1.2469622-1.41509192-2.2417298-1.62525409-.2662054-.05604324-.5184-.08406486-.7565838-.08406486-1.3450378 0-2.4378811.70054055-3.2925406 2.10162166-.7285622 1.19091894-1.0928432 2.50793518-1.0928432 3.95104873 0 1.0788325.2241729 2.003546.6725189 2.7741406.5043892.8826811 1.2469622 1.4150919 2.2417298 1.6252541.2662054.0560432.5184.0840648.7565838.0840648 1.3590486 0 2.4518919-.7005405 3.2925406-2.1016216.7285621-1.2049298 1.0928432-2.52194601 1.0928432-3.96505956 0-1.09284326-.224173-2.00354598-.6725189-2.76012978zm-1.7653622 3.88099467c-.1961514.92471353-.5464216 1.61124327-1.0648216 2.07360007-.4063136.3642811-.7846055.5184-1.1348757.4483459-.3362595-.070054-.6164757-.3642811-.8266379-.9107027-.1681297-.4343351-.2521946-.86867028-.2521946-1.2749838 0-.35027028.0280216-.70054056.0980757-1.02278921.1260973-.57444326.3642811-1.1348757.742573-1.66728652.4623567-.68652975.9527351-.96674597 1.4571243-.86867029.3362595.07005406.6164757.36428109.8266379.91070272.1681297.43433514.2521946.86867029.2521946 1.27498381 0 .36428109-.0420325.71455137-.0980757 1.03680002z"/><path d="m23.0477842 5.12795686c-.5043892-.8826811-1.260973-1.41509192-2.2417297-1.62525409-.2662054-.05604324-.5184-.08406486-.7565838-.08406486-1.3450379 0-2.4378812.70054055-3.2925406 2.10162166-.7285622 1.19091894-1.0928433 2.50793518-1.0928433 3.95104873 0 1.0788325.224173 2.003546.6725189 2.7741406.5043892.8826811 1.2469622 1.4150919 2.2417298 1.6252541.2662054.0560432.5184.0840648.7565838.0840648 1.3590487 0 2.4518919-.7005405 3.2925406-2.1016216.7285622-1.2049298 1.0928433-2.52194601 1.0928433-3.96505956 0-1.09284326-.224173-2.00354598-.672519-2.76012978zm-1.7653622 3.88099467c-.1961513.92471353-.5464216 1.61124327-1.0648216 2.07360007-.4063135.3642811-.7846054.5184-1.1348757.4483459-.3362595-.070054-.6164757-.3642811-.8266379-.9107027-.1681297-.4343351-.2521946-.86867028-.2521946-1.2749838 0-.35027028.0280217-.70054056.0980757-1.02278921.1260973-.57444326.3642811-1.1348757.742573-1.66728652.4623568-.68652975.9527352-.96674597 1.4571244-.86867029.3362594.07005406.6164757.36428109.8266378.91070272.1681298.43433514.2521946.86867029.2521946 1.27498381 0 .36428109-.0280216.71455137-.0980757 1.03680002z"/></g></g></g></svg>