<svg height="17" viewBox="0 0 24 17" width="24" xmlns="http://www.w3.org/2000/svg"><path d="m1077.522 418.634958-.00075-6.791087 6.4845 3.407251zm14.238-7.967877s-.23475-1.665481-.954-2.398898c-.91275-.963033-1.93575-.967565-2.4045-1.023459-3.3585-.244724-8.39625-.244724-8.39625-.244724h-.0105s-5.03775 0-8.39625.244724c-.4695.055894-1.49175.060426-2.40525 1.023459-.71925.733417-.95325 2.398898-.95325 2.398898s-.24 1.956281-.24 3.911806v1.833918c0 1.95628.24 3.911805.24 3.911805s.234 1.665482.95325 2.398898c.9135.963034 2.11275.932821 2.64675 1.033279 1.92.185809 8.16.243213 8.16.243213s5.043-.007553 8.4015-.252277c.46875-.056649 1.49175-.061181 2.4045-1.024215.71925-.733416.954-2.398898.954-2.398898s.24-1.955525.24-3.911805v-1.833918c0-1.955525-.24-3.911806-.24-3.911806z" fill="#ccd2e1" fill-rule="evenodd" transform="translate(-1068 -407)"/></svg>